<svg xmlns="http://www.w3.org/2000/svg" viewBox="0 0 256 220.16"><g><g><path class="fill-secondary" d="M128,0l58.67,26.66L128,53.33,72,26.66Z"/><path class="fill-secondary" d="M117.33,66l-48-22.85V90.67a5.34,5.34,0,0,0,3.36,5l44.64,17.86Z"/><path class="fill-secondary" d="M138.67,66.05v47.42l44.64-17.85a5.34,5.34,0,0,0,3.36-5V44.22Z"/><path class="fill-primary" d="M197.33,106.66,256,133.33,197.33,160l-56-26.67Z"/><path class="fill-primary" d="M186.67,172.64l-48-22.85v47.55a5.34,5.34,0,0,0,3.36,5l44.64,17.86Z"/><path class="fill-primary" d="M208,172.72v47.42l44.64-17.85a5.34,5.34,0,0,0,3.36-5V150.9Z"/><path class="fill-primary" d="M58.67,106.66l58.66,26.67L58.67,160l-56-26.67Z"/><path class="fill-primary" d="M48,172.64,0,149.79v47.55a5.34,5.34,0,0,0,3.36,5L48,220.14Z"/><path class="fill-primary" d="M69.33,172.72v47.42L114,202.29a5.34,5.34,0,0,0,3.36-5V150.9Z"/></g></g></svg>