<svg xmlns="http://www.w3.org/2000/svg" viewBox="0 0 255.98 256"><g><g><path class="fill-secondary" d="M26.64,256a10.66,10.66,0,0,1-8.26-17.4l23.33-28.67A10.67,10.67,0,1,1,58.26,223.4L34.93,252.07A10.65,10.65,0,0,1,26.64,256Z"/><path class="fill-secondary" d="M229.33,256a10.65,10.65,0,0,1-8.29-3.93L197.71,223.4a10.67,10.67,0,0,1,16.55-13.47l23.32,28.67a10.66,10.66,0,0,1-8.25,17.4Z"/><path class="fill-secondary" d="M10.66,72A10.66,10.66,0,0,1,3.12,53.8L53.79,3.13A10.67,10.67,0,0,1,68.88,18.21L18.21,68.88A10.68,10.68,0,0,1,10.66,72Z"/><path class="fill-secondary" d="M245.31,72a10.55,10.55,0,0,1-7.53-3.12L187.1,18.21A10.67,10.67,0,1,1,202.19,3.13L252.86,53.8A10.66,10.66,0,0,1,245.31,72Z"/><path class="fill-primary" d="M128,32A112,112,0,1,0,240,144,112.12,112.12,0,0,0,128,32Zm66.68,122.68H128A10.68,10.68,0,0,1,117.31,144V80a10.68,10.68,0,0,1,21.35,0v53.33h56a10.68,10.68,0,0,1,0,21.35Z"/></g></g></svg>