<svg xmlns="http://www.w3.org/2000/svg" viewBox="0 0 256 245.35"><g id="Layer_2" data-name="Layer 2"><g id="Layer_1-2" data-name="Layer 1"><path class="fill-secondary" d="M216,98.68a10.61,10.61,0,0,1-7.54-3.12L166.75,53.85,75.84,63.94a10.64,10.64,0,0,1-8.72-3L24.46,18.21A10.67,10.67,0,0,1,39.55,3.13l39,39,90.91-10.1a10.52,10.52,0,0,1,8.72,3.06l45.33,45.32A10.69,10.69,0,0,1,216,98.68Z"/><path class="fill-secondary" d="M226.67,106.68H189.34A8,8,0,0,1,183.7,93L221,55.69a8,8,0,0,1,13.67,5.66V98.68A8,8,0,0,1,226.67,106.68Z"/><path class="fill-primary" d="M245.33,184v29.32h-64V184a13.33,13.33,0,0,1,13.33-13.33H232A13.33,13.33,0,0,1,245.33,184Z"/><path class="fill-primary" d="M160,120v93.32H96V120a13.33,13.33,0,0,1,13.33-13.33h37.33A13.33,13.33,0,0,1,160,120Z"/><path class="fill-primary" d="M74.67,141.35v72h-64v-72A13.33,13.33,0,0,1,24,128H61.33A13.33,13.33,0,0,1,74.67,141.35Z"/><path class="fill-secondary" d="M248,245.35H8a8,8,0,0,1,0-16H248a8,8,0,0,1,0,16Z"/></g></g></svg>