<svg xmlns="http://www.w3.org/2000/svg" viewBox="0 0 256 245.34"><g><g><path class="fill-secondary" d="M32,106.67A10.67,10.67,0,0,1,24.91,88l48-42.67a10.62,10.62,0,0,1,8.37-2.61l83,10.07,47-44.56A10.66,10.66,0,0,1,226,23.74l-50.67,48a10.73,10.73,0,0,1-8.61,2.85L83.49,64.5,39.09,104a10.61,10.61,0,0,1-7.09,2.7Z"/><path class="fill-secondary" d="M226.67,53.34A8,8,0,0,1,221,51L183.68,13.66A8,8,0,0,1,189.33,0h37.33a8,8,0,0,1,8,8V45.33a8,8,0,0,1-4.95,7.39A7.66,7.66,0,0,1,226.67,53.34Z"/><path class="fill-primary" d="M74.67,184v29.33h-64V184A13.33,13.33,0,0,1,24,170.67H61.33A13.34,13.34,0,0,1,74.67,184Z"/><path class="fill-primary" d="M160,120v93.33H96V120a13.33,13.33,0,0,1,13.33-13.33h37.33A13.33,13.33,0,0,1,160,120Z"/><path class="fill-primary" d="M245.33,141.34v72h-64v-72A13.32,13.32,0,0,1,194.66,128H232A13.31,13.31,0,0,1,245.33,141.34Z"/><path class="fill-secondary" d="M248,245.34H8a8,8,0,0,1,0-16H248a8,8,0,0,1,0,16Z"/></g></g></svg>