<svg xmlns="http://www.w3.org/2000/svg" viewBox="0 0 234.69 256"><g><g><path class="fill-secondary" d="M224,116.08a10.68,10.68,0,0,1-10.68-10.67,111.23,111.23,0,0,0-32.8-79.2,10.67,10.67,0,1,1,15.09-15.09,132.45,132.45,0,0,1,39.06,94.29A10.69,10.69,0,0,1,224,116.08Z"/><path class="fill-secondary" d="M10.67,116.08A10.68,10.68,0,0,1,0,105.41,132.48,132.48,0,0,1,39.05,11.12,10.67,10.67,0,0,1,54.14,26.21a111.28,111.28,0,0,0-32.8,79.2A10.67,10.67,0,0,1,10.67,116.08Z"/><path class="fill-primary" d="M217.39,180.4A71.48,71.48,0,0,1,192,125.73V96a74.72,74.72,0,0,0-64-73.81V10.67a10.68,10.68,0,0,0-21.35,0V22.19A74.7,74.7,0,0,0,42.67,96v29.74A71.57,71.57,0,0,1,17.2,180.5a18.66,18.66,0,0,0,12.14,32.84h176a18.67,18.67,0,0,0,12-32.94Z"/><path class="fill-secondary" d="M117.34,256a40.05,40.05,0,0,0,39.19-32H78.14A40.09,40.09,0,0,0,117.34,256Z"/></g></g></svg>