<svg xmlns="http://www.w3.org/2000/svg" viewBox="0 0 256 213.33"><g><g><path class="fill-secondary" d="M160,48a10.67,10.67,0,0,1-10.67-10.67v-16H106.66v16a10.68,10.68,0,0,1-21.35,0v-16A21.36,21.36,0,0,1,106.64,0h42.67a21.36,21.36,0,0,1,21.33,21.33v16A10.62,10.62,0,0,1,160,48Z"/><path class="fill-primary" d="M192,112v9.81a8,8,0,0,1-16,0V112H80v9.81a8,8,0,0,1-16,0V112H0v72a29.32,29.32,0,0,0,29.33,29.33H226.66A29.31,29.31,0,0,0,256,184V112Zm34.67-80H29.33A29.32,29.32,0,0,0,0,61.34V96H64V82.67a8,8,0,0,1,16,0V96h96V82.67a8,8,0,0,1,16,0V96h64V61.33A29.32,29.32,0,0,0,226.67,32Z"/></g></g></svg>