<svg xmlns="http://www.w3.org/2000/svg" viewBox="0 0 256 256"><g id="Layer_2" data-name="Layer 2"><g id="bold"><path class="fill-secondary" d="M250.58,30.14l-56-19a8,8,0,0,0-5.16,0l-56,19A8,8,0,0,0,128,37.71V80.58c0,52.32,58.38,77.72,60.88,78.8a8.09,8.09,0,0,0,6.26,0C197.62,158.3,256,132.9,256,80.58V37.71a8,8,0,0,0-5.42-7.57ZM227.06,70.59l-29.33,37.33a10.66,10.66,0,0,1-15.33,1.5l-18.67-16A10.66,10.66,0,0,1,177.6,77.23L187.82,86l22.47-28.57a10.66,10.66,0,0,1,16.77,13.18Z"/><path class="fill-primary" d="M173.87,175.89c-2.56-1.28-5.23-2.67-8-4.37A20.31,20.31,0,0,1,173.87,175.89Z"/><path class="fill-primary" d="M192,234.67H168V211.74a21.33,21.33,0,1,0-16,0v22.93H128V149a10.67,10.67,0,1,0-21.34,0v85.65H85.33V200a8,8,0,0,0-8-8H50.66a8,8,0,0,0-8,8v34.67H21.33V69.33H96a10.68,10.68,0,0,0,10.67-10.67V40A18.7,18.7,0,0,0,88,21.31H74.67V10.67a10.67,10.67,0,0,0-21.34,0V21.34H40A18.69,18.69,0,0,0,21.33,40v8A21.36,21.36,0,0,0,0,69.33v176A10.66,10.66,0,0,0,10.67,256H192a10.67,10.67,0,1,0,0-21.33Z"/><path class="fill-primary" d="M77.33,144H50.66a8,8,0,0,0,0,16H77.33a8,8,0,0,0,0-16Z"/><path class="fill-primary" d="M77.33,80H50.66a8,8,0,0,0,0,16H77.33a8,8,0,0,0,0-16Z"/><path class="fill-primary" d="M77.33,112H50.66a8,8,0,0,0,0,16H77.33a8,8,0,0,0,0-16Z"/></g></g></svg>