<svg xmlns="http://www.w3.org/2000/svg" viewBox="0 0 256 255.98"><g><g><circle class="fill-primary" cx="58.67" cy="149.31" r="32"/><path class="fill-primary" d="M88,202.65H29.33A29.36,29.36,0,0,0,0,232v16a8,8,0,0,0,8,8H109.33a8,8,0,0,0,8-8V232A29.36,29.36,0,0,0,88,202.65Z"/><circle class="fill-primary" cx="197.33" cy="149.31" r="32"/><path class="fill-primary" d="M226.67,202.65H168A29.36,29.36,0,0,0,138.67,232v16a8,8,0,0,0,8,8H248a8,8,0,0,0,8-8V232A29.36,29.36,0,0,0,226.67,202.65Z"/><path class="fill-secondary" d="M149.76,108.48v7.68A11.9,11.9,0,0,1,137.81,128H118.18c-5.76,0-12-4.27-12-13.76v-5.76Z"/><path class="fill-secondary" d="M176,47.68a47.26,47.26,0,0,1-17.6,36.91,22.89,22.89,0,0,0-8.32,13.23H106a20,20,0,0,0-7.79-12.69A47.13,47.13,0,0,1,80,46.73C80.53,21.34,101.76.33,127.25,0a47.34,47.34,0,0,1,34.56,13.88A46.82,46.82,0,0,1,176,47.68Z"/></g></g></svg>