<svg xmlns="http://www.w3.org/2000/svg" viewBox="0 0 256 218.67"><g><g><path class="fill-secondary" d="M88,208a48.06,48.06,0,0,1-48-48,45.85,45.85,0,0,1,2.26-14.48,10.66,10.66,0,1,1,20.22,6.75A24.28,24.28,0,0,0,61.33,160a26.65,26.65,0,0,0,52.56,6.22,10.67,10.67,0,0,1,20.77,4.87A47.71,47.71,0,0,1,88,208Z"/><path class="fill-primary" d="M248,210.67a8,8,0,0,1-2.22-.32L5.78,141A8,8,0,0,1,0,133.34v-48a8,8,0,0,1,5.78-7.68l240-69.32A8,8,0,0,1,256,16V202.7a8,8,0,0,1-3.2,6.4,8.09,8.09,0,0,1-4.8,1.57Z"/><path class="fill-primary" d="M245.33,218.67A10.67,10.67,0,0,1,234.66,208V10.67a10.67,10.67,0,1,1,21.34,0V208A10.66,10.66,0,0,1,245.33,218.67Z"/><path class="fill-primary" d="M10.67,154.67A10.66,10.66,0,0,1,0,144V74.69a10.67,10.67,0,0,1,21.34,0V144A10.67,10.67,0,0,1,10.67,154.67Z"/></g></g></svg>