<svg xmlns="http://www.w3.org/2000/svg" viewBox="0 0 256 256"><g><g><path class="fill-secondary" d="M66.67,117.33H40a8,8,0,0,0-8,8V152a8,8,0,0,0,8,8H66.67a8,8,0,0,0,8-8V125.33A8,8,0,0,0,66.67,117.33Z"/><path class="fill-secondary" d="M66.67,181.33H40a8,8,0,0,0-8,8V216a8,8,0,0,0,8,8H66.67a8,8,0,0,0,8-8V189.33A8,8,0,0,0,66.67,181.33Z"/><path class="fill-secondary" d="M141.33,117.33H114.66a8,8,0,0,0-8,8V152a8,8,0,0,0,8,8h26.67a8,8,0,0,0,8-8V125.33A8,8,0,0,0,141.33,117.33Z"/><path class="fill-secondary" d="M141.33,181.33H114.66a8,8,0,0,0-8,8V216a8,8,0,0,0,8,8h26.67a8,8,0,0,0,8-8V189.33A8,8,0,0,0,141.33,181.33Z"/><path class="fill-secondary" d="M216,117.33H189.33a8,8,0,0,0-8,8V152a8,8,0,0,0,8,8H216a8,8,0,0,0,8-8V125.33A8,8,0,0,0,216,117.33Z"/><path class="fill-primary" d="M224,32H32A32,32,0,0,0,0,64V224a32,32,0,0,0,32,32H224a32,32,0,0,0,32-32V64A32,32,0,0,0,224,32Zm10.67,192A10.67,10.67,0,0,1,224,234.67H32A10.67,10.67,0,0,1,21.33,224V107.09H234.66V224Z"/><path class="fill-secondary" d="M64,0H53.33A10.67,10.67,0,0,0,42.66,10.67V53.34A10.68,10.68,0,0,0,53.33,64H64A10.67,10.67,0,0,0,74.67,53.34V10.67A10.67,10.67,0,0,0,64,0Z"/><path class="fill-secondary" d="M202.67,0H192a10.67,10.67,0,0,0-10.67,10.67V53.34A10.67,10.67,0,0,0,192,64h10.67a10.67,10.67,0,0,0,10.67-10.67V10.67A10.67,10.67,0,0,0,202.67,0Z"/></g></g></svg>