<svg xmlns="http://www.w3.org/2000/svg" viewBox="0 0 256 202.66"><g><g><path class="fill-secondary" d="M53.33,53.33A10.68,10.68,0,0,1,42.66,42.66V21.33a10.67,10.67,0,0,1,21.34,0V42.66A10.68,10.68,0,0,1,53.33,53.33Z"/><path class="fill-primary" d="M29.33,32A29.35,29.35,0,0,0,0,61.33v112a29.36,29.36,0,0,0,29.33,29.33H226.66A29.36,29.36,0,0,0,256,173.33v-112A29.35,29.35,0,0,0,226.67,32h-5.73l-7.88-15.79A29.19,29.19,0,0,0,186.82,0H141.18a29.19,29.19,0,0,0-26.24,16.21L107.06,32ZM170.67,64a53.33,53.33,0,1,1-53.33,53.33A53.39,53.39,0,0,1,170.67,64ZM85.33,77.33a8,8,0,0,1-8,8H40a8,8,0,0,1,0-16H77.33A8,8,0,0,1,85.33,77.33Z"/></g></g></svg>