<svg xmlns="http://www.w3.org/2000/svg" viewBox="0 0 245.34 256"><g id="Layer_2" data-name="Layer 2"><g id="bold"><path class="fill-primary" d="M157.34,154.67a22.61,22.61,0,0,1-8-1.39v60.05h-128V32A10.7,10.7,0,0,1,32,21.33h74.76A34.77,34.77,0,0,1,136,5.33h20.36A32.68,32.68,0,0,0,138.67,0H32A32.09,32.09,0,0,0,0,32V224a32.09,32.09,0,0,0,32,32H138.67a32.09,32.09,0,0,0,32-32V150.61A24.23,24.23,0,0,1,157.34,154.67Z"/><circle class="fill-primary" cx="85.34" cy="149.33" r="21.33"/><path class="fill-primary" d="M128,210.67v2.67H42.67v-2.67A29.32,29.32,0,0,1,72,181.34H98.67A29.3,29.3,0,0,1,128,210.67Z"/><path class="fill-secondary" d="M226.67,21.33H136A18.69,18.69,0,0,0,117.33,40V88A18.69,18.69,0,0,0,136,106.67h13.33v24a8,8,0,0,0,5.1,7.46,7.92,7.92,0,0,0,2.9.54,8,8,0,0,0,5.89-2.59l27-29.41h36.49A18.69,18.69,0,0,0,245.34,88V40a18.7,18.7,0,0,0-18.67-18.67ZM154.67,72a8,8,0,1,1,8-8A8,8,0,0,1,154.67,72Zm26.67,0a8,8,0,1,1,8-8A8,8,0,0,1,181.34,72ZM208,72a8,8,0,1,1,8-8A8,8,0,0,1,208,72Z"/></g></g></svg>