<svg xmlns="http://www.w3.org/2000/svg" viewBox="0 0 256.02 202.67"><g id="Layer_2" data-name="Layer 2"><g id="bold"><path class="fill-primary" d="M245.33,181.33H10.67a10.67,10.67,0,1,0,0,21.34H245.34a10.67,10.67,0,1,0,0-21.34Z"/><path class="fill-primary" d="M112,66.66a32.94,32.94,0,0,0,1,8H42.67V181.33H21.33V74.66A21.39,21.39,0,0,1,42.66,53.33H112Z"/><path class="fill-primary" d="M213.33,101.33h21.33v80H213.33Z"/><circle class="fill-primary" cx="117.33" cy="117.33" r="21.33"/><path class="fill-primary" d="M160,178.66v2.67H74.67v-2.67A29.32,29.32,0,0,1,104,149.33h26.67A29.32,29.32,0,0,1,160,178.66Z"/><path class="fill-secondary" d="M237.33,0H146.66A18.68,18.68,0,0,0,128,18.66v48a18.7,18.7,0,0,0,18.67,18.67H160v24a8,8,0,0,0,13.89,5.41l27-29.41h36.48A18.69,18.69,0,0,0,256,66.66v-48A18.68,18.68,0,0,0,237.33,0Zm-72,50.66a8,8,0,1,1,8-8A8,8,0,0,1,165.33,50.66Zm26.67,0a8,8,0,1,1,8-8A8,8,0,0,1,192,50.66Zm26.67,0a8,8,0,1,1,8-8A8,8,0,0,1,218.67,50.66Z"/></g></g></svg>