<svg xmlns="http://www.w3.org/2000/svg" viewBox="0 0 256 256.02"><g><g><path class="fill-primary" d="M128,64a64,64,0,1,0,64,64,64.06,64.06,0,0,0-64-64Zm34.48,52.59L127.81,154a10.68,10.68,0,0,1-15.36.29L93.78,135.58a10.67,10.67,0,1,1,15.08-15.09l10.84,10.83,27.13-29.22a10.68,10.68,0,0,1,15.65,14.53Z"/><path class="fill-secondary" d="M16,128A111.94,111.94,0,0,1,189.14,34.23L173,50.36A8,8,0,0,0,178.67,64h48a8,8,0,0,0,8-8V8A8,8,0,0,0,221,2.36L200.59,22.78A126.79,126.79,0,0,0,128,0,128,128,0,0,0,5.47,165a8,8,0,1,0,15.31-4.61A112.8,112.8,0,0,1,16,128Z"/><path class="fill-secondary" d="M250.53,91.06a8,8,0,1,0-15.31,4.61A112,112,0,0,1,128,240a111,111,0,0,1-61-18.14L83,205.64A8,8,0,0,0,77.33,192h-48a8,8,0,0,0-8,8.08l.53,48a8,8,0,0,0,13.68,5.54l20-20.26A126.83,126.83,0,0,0,128,256a127.95,127.95,0,0,0,122.53-165Z"/></g></g></svg>