<svg xmlns="http://www.w3.org/2000/svg" viewBox="0 0 256 256"><g><g><path class="fill-secondary" d="M130.67,64H61.34A18.7,18.7,0,0,1,42.67,45.33v-16a8,8,0,0,1,8-8H67.78a29.33,29.33,0,0,1,56.44,0h17.11a8,8,0,0,1,8,8v16A18.68,18.68,0,0,1,130.67,64Z"/><path class="fill-secondary" d="M234.67,224a5.35,5.35,0,0,1-4.77-2.94l-13.74-27.49a26.82,26.82,0,0,1-2.82-11.92V85.34a21.33,21.33,0,0,1,42.66,0v96.3a26.82,26.82,0,0,1-2.82,11.92L239.44,221a5.33,5.33,0,0,1-4.77,3Zm13.75-32.83h0Z"/><path class="fill-primary" d="M162.67,32H160V45.33a29.36,29.36,0,0,1-29.33,29.33H61.34A29.36,29.36,0,0,1,32,45.33V32H29.33A29.35,29.35,0,0,0,0,61.33V226.66A29.36,29.36,0,0,0,29.33,256H162.66A29.36,29.36,0,0,0,192,226.67V61.33A29.35,29.35,0,0,0,162.67,32ZM152,224H40a8,8,0,0,1,0-16H152a8,8,0,0,1,0,16Zm0-32H40a8,8,0,0,1,0-16H152a8,8,0,0,1,0,16Zm0-32H40a8,8,0,0,1,0-16H152a8,8,0,0,1,0,16Zm0-32H40a8,8,0,0,1,0-16H152a8,8,0,0,1,0,16Z"/></g></g></svg>