<svg xmlns="http://www.w3.org/2000/svg" viewBox="0 0 256 234.66"><g><g><path class="fill-secondary" d="M128,234.66a8,8,0,0,1-5.81-2.5L71.52,178.83a8,8,0,0,1,5.81-13.52h24V120a13.33,13.33,0,0,1,13.33-13.32h26.67A13.34,13.34,0,0,1,154.66,120v45.35h24a8,8,0,0,1,5.8,13.52l-50.67,53.33A8,8,0,0,1,128,234.66Z"/><path class="fill-primary" d="M199.18,41.87A81.33,81.33,0,0,0,128,0C90.19,0,57.39,26.3,49.1,62.18,21.54,65.07,0,88.22,0,116.26,0,144,21.1,166.64,48.19,170a29.52,29.52,0,0,1,2.18-8.22C54.94,151.09,64.54,144,80,144V120a34.71,34.71,0,0,1,34.67-34.67h26.67A34.7,34.7,0,0,1,176,120v24c15.33,0,25,7,29.63,17.76a28.78,28.78,0,0,1,1.89,6.62C235.39,161,256,135.84,256,106a64.81,64.81,0,0,0-56.82-64.08Z"/></g></g></svg>