<svg xmlns="http://www.w3.org/2000/svg" viewBox="0 0 256.03 256.02"><g><g><path class="fill-primary" d="M193.17,36.14C180.21,14.05,155.12,0,128,0,93.52,0,63.55,22.64,55.62,53.65,30.35,56.4,10.67,76.74,10.67,101.33c0,26.46,22.79,48,50.79,48h123.6c33.24,0,60.28-25.52,60.28-56.9,0-28.67-22.57-52.62-52.17-56.29Z"/><path class="fill-secondary" d="M245.34,208H170.67v-8A18.69,18.69,0,0,0,152,181.33H138.67V144a10.67,10.67,0,1,0-21.34,0v37.33H104A18.69,18.69,0,0,0,85.33,200v8H10.66a10.67,10.67,0,0,0,0,21.34H85.34v8A18.7,18.7,0,0,0,104,256h48a18.7,18.7,0,0,0,18.67-18.68v-8h74.67a10.67,10.67,0,1,0,0-21.34Z"/></g></g></svg>