<svg xmlns="http://www.w3.org/2000/svg" viewBox="0 0 256 234.66"><g><g><circle class="fill-secondary" cx="128" cy="149.33" r="21.33"/><path class="fill-secondary" d="M162.67,234.66H93.34a8,8,0,0,1-8-8v-16a29.36,29.36,0,0,1,29.33-29.33h26.67a29.35,29.35,0,0,1,29.33,29.33v16A8,8,0,0,1,162.67,234.66Z"/><path class="fill-secondary" d="M194.67,170.66H180.48a55.46,55.46,0,0,1,16.85,40v2.67H216a8.06,8.06,0,0,0,8-8V200A29.32,29.32,0,0,0,194.67,170.66Z"/><path class="fill-secondary" d="M61.33,170.66A29.31,29.31,0,0,0,32,200v5.35a8.06,8.06,0,0,0,8,8H58.67v-2.67a55.46,55.46,0,0,1,16.85-40Z"/><circle class="fill-secondary" cx="74.67" cy="138.66" r="21.33"/><circle class="fill-secondary" cx="181.33" cy="138.66" r="21.33"/><path class="fill-primary" d="M27.2,162.94A52.21,52.21,0,0,1,36,156.38,42.48,42.48,0,0,1,107.73,112a41,41,0,0,1,40.54,0A42.48,42.48,0,0,1,220,156.38a55.09,55.09,0,0,1,5.83,4A64.4,64.4,0,0,0,199.18,41.89,81.31,81.31,0,0,0,128,0C90.19,0,57.39,26.3,49.1,62.18,21.54,65.07,0,88.22,0,116.26c0,19.93,11,37.21,27.2,46.68Z"/></g></g></svg>