<svg xmlns="http://www.w3.org/2000/svg" viewBox="0 0 256 256"><g id="Layer_2" data-name="Layer 2"><g id="Layer_1-2" data-name="Layer 1"><path class="fill-secondary" d="M229,204.06a25.63,25.63,0,0,0-13.31,3.8l-42.34-29.32V128A10.67,10.67,0,0,0,152,128v56.11a10.63,10.63,0,0,0,4.59,8.77l46.9,32.48A26.59,26.59,0,0,0,203,230a26,26,0,1,0,26-26Zm0,30.61a4.64,4.64,0,1,1,4.64-4.64A4.64,4.64,0,0,1,229,234.67Z"/><path class="fill-secondary" d="M138.67,206.42V128a10.67,10.67,0,1,0-21.34,0v78.42a26,26,0,1,0,21.34,0ZM128,234.67a4.64,4.64,0,1,1,4.64-4.64A4.64,4.64,0,0,1,128,234.67Z"/><path class="fill-primary" d="M49.84,172.21l14.1-.18,2.73-1.89V128a26.71,26.71,0,0,1,26.67-26.67,26.41,26.41,0,0,1,17.33,6.57,26.14,26.14,0,0,1,34.66,0,26.53,26.53,0,0,1,44,20.1v42.14l.56.39,16.46-.19a8.5,8.5,0,0,0,2.08-.31A65.34,65.34,0,0,0,199.2,42.38,81,81,0,0,0,49.07,62.91,55.07,55.07,0,0,0,0,117.57C0,145.6,21,169.07,49.84,172.21Z"/><path class="fill-secondary" d="M104,128a10.67,10.67,0,1,0-21.33,0v50.53L40.34,207.84A25.91,25.91,0,1,0,53,230a25.68,25.68,0,0,0-.48-4.67l46.89-32.48a10.63,10.63,0,0,0,4.59-8.77V128ZM27,234.67A4.64,4.64,0,1,1,31.65,230,4.64,4.64,0,0,1,27,234.67Z"/></g></g></svg>