<svg xmlns="http://www.w3.org/2000/svg" viewBox="0 0 213.34 256"><g id="Layer_2" data-name="Layer 2"><g id="bold"><path class="fill-primary" d="M150.66,256h-88a32.07,32.07,0,0,1-31.93-30L21.38,78a10.67,10.67,0,1,1,21.29-1.36l9.39,148a10.68,10.68,0,0,0,10.64,10h88a10.68,10.68,0,0,0,10.64-10l9.39-148A10.67,10.67,0,0,1,192,78l-9.39,148A32.07,32.07,0,0,1,150.66,256Z"/><path class="fill-primary" d="M194.67,85.33h-176A18.69,18.69,0,0,1,0,66.66V61.33A18.69,18.69,0,0,1,18.67,42.66h176a18.68,18.68,0,0,1,18.67,18.67v5.33A18.69,18.69,0,0,1,194.67,85.33Z"/><path class="fill-primary" d="M181.33,61.34A10.65,10.65,0,0,1,171,53.42l-6.45-24.16a10.67,10.67,0,0,0-10.3-7.92H59.06a10.69,10.69,0,0,0-10.31,7.92L42.3,53.42a10.66,10.66,0,1,1-20.6-5.5l6.44-24.16A32.06,32.06,0,0,1,59.06,0h95.23A32.05,32.05,0,0,1,185.2,23.76l6.45,24.16A10.67,10.67,0,0,1,184.1,61,11.09,11.09,0,0,1,181.33,61.34Z"/><path class="fill-secondary" d="M133.62,133.06c-18.2-18.2-45.11-21-60-6.08s-12.12,41.76,6.08,60c10.32,10.32,23.41,15.66,35.54,15.66,9.26,0,18-3.13,24.43-9.57,14.83-14.86,12.11-41.76-6.09-60Zm-35.56.33c8,0,17.09,3.84,24.24,11a37,37,0,0,1,10.64,20.13,37.76,37.76,0,0,0-2.6-2.93c-8.44-8.33-16.52-9-23-9.55-5.28-.43-8.79-.72-13-4.89-3.89-3.94-4.45-7.25-4.88-11.86A19.79,19.79,0,0,1,98.06,133.39Zm-7,42.24a37.33,37.33,0,0,1-10.66-20.14c.79,1,1.64,1.95,2.61,2.94,8.43,8.34,16.51,9,23,9.55,5.28.44,8.78.72,13,5,3.89,3.89,4.44,7.21,4.8,11.82-9.1,4.26-22.81.83-32.78-9.12Z"/></g></g></svg>