<svg xmlns="http://www.w3.org/2000/svg" viewBox="0 0 256.01 245.34"><g id="Layer_2" data-name="Layer 2"><g id="Layer_1-2" data-name="Layer 1"><path class="fill-primary" d="M10.68,245.34A10.67,10.67,0,0,1,5.05,225.6l112-69.33a10.68,10.68,0,0,1,13.15,1.52l35.12,35.12,61.79-61.79a10.67,10.67,0,0,1,15.09,15.09l-69.33,69.33a10.68,10.68,0,0,1-15.09,0l-36.7-36.69L16.26,243.73a10.4,10.4,0,0,1-5.58,1.61Z"/><path class="fill-primary" d="M245.34,181.34a10.64,10.64,0,0,1-7.54-3.12l-42.67-42.67a10.66,10.66,0,0,1,7.53-18.21h42.68A10.69,10.69,0,0,1,256,128v42.65a10.66,10.66,0,0,1-6.58,9.86,10.88,10.88,0,0,1-4.09.81Z"/><path class="fill-secondary" d="M121.4,93.34H90.68v13.33H121.4a6.67,6.67,0,0,0,0-13.33Z"/><path class="fill-secondary" d="M122.68,70.72A6.66,6.66,0,0,0,116.07,64H90.68V77.33h25.39A6.62,6.62,0,0,0,122.68,70.72Z"/><path class="fill-secondary" d="M101.34,0A90.68,90.68,0,0,0,40.92,158.3a89,89,0,0,0,23.73,15.14L109.91,145a24.14,24.14,0,0,1,29.75,3.38l15.23,15.23A90.53,90.53,0,0,0,101.34,0Zm21.34,122.54v8.13a8,8,0,0,1-16,0v-8h-5.33v8a8,8,0,0,1-16,0v-8H82.68a8,8,0,0,1-8-8V56a8,8,0,0,1,8-8h2.67V40a8,8,0,0,1,16,0v8h5.33V40a8,8,0,0,1,16,0v9.1a22.41,22.41,0,0,1,12.69,33.2,22.52,22.52,0,0,1-12.69,40.22Z"/></g></g></svg>