<svg xmlns="http://www.w3.org/2000/svg" viewBox="0 0 255.98 245.34"><g id="Layer_2" data-name="Layer 2"><g id="Layer_1-2" data-name="Layer 1"><path class="fill-primary" d="M234.66,234.67a10.61,10.61,0,0,1-7.54-3.12l-61.79-61.79-35.12,35.12a10.65,10.65,0,0,1-13.15,1.52l-112-69.33a10.67,10.67,0,1,1,11.23-18.14L121.1,183.81l36.71-36.69a10.68,10.68,0,0,1,15.09,0l69.32,69.33a10.68,10.68,0,0,1-7.56,18.22Z"/><path class="fill-primary" d="M245.31,245.34H202.64a10.65,10.65,0,0,1-7.54-18.2l42.68-42.68A10.65,10.65,0,0,1,256,192v42.67A10.66,10.66,0,0,1,245.31,245.34Z"/><path class="fill-secondary" d="M121.38,93.34H90.66v13.33h30.72a6.67,6.67,0,0,0,0-13.33Z"/><path class="fill-secondary" d="M122.66,70.72A6.66,6.66,0,0,0,116.05,64H90.66V77.33h25.39A6.62,6.62,0,0,0,122.66,70.72Z"/><path class="fill-secondary" d="M101.31,0A90.78,90.78,0,0,0,10.64,90.67c0,2.79.19,5.54.45,8.27l108.13,67.89,29.13-29.13a24,24,0,0,1,31.36-2.1A90.18,90.18,0,0,0,101.31,0Zm21.35,122.54v8.13a8,8,0,0,1-16,0v-8h-5.33v8a8,8,0,0,1-16,0v-8H82.66a8,8,0,0,1-8-8V56a8,8,0,0,1,8-8h2.67V40a8,8,0,1,1,16,0v8h5.33V40a8,8,0,0,1,16,0v9.1a22.4,22.4,0,0,1,12.68,33.2,22.52,22.52,0,0,1-12.68,40.22Z"/></g></g></svg>