<svg xmlns="http://www.w3.org/2000/svg" viewBox="0 0 192 256"><g id="Layer_2" data-name="Layer 2"><g id="Layer_1-2" data-name="Layer 1"><path class="fill-secondary" d="M149.33,117.33a10.67,10.67,0,0,1-10.67-10.67V64a42.67,42.67,0,1,0-85.33,0v42.67a10.67,10.67,0,1,1-21.33,0V64a64,64,0,0,1,128,0v42.67A10.66,10.66,0,0,1,149.33,117.33Z"/><path class="fill-primary" d="M110.72,184H80v13.33h30.72a6.67,6.67,0,0,0,0-13.33Z"/><path class="fill-primary" d="M112,161.39a6.66,6.66,0,0,0-6.61-6.72H80V168h25.39A6.64,6.64,0,0,0,112,161.39Z"/><path class="fill-primary" d="M168,96H24A24,24,0,0,0,0,120V232a24,24,0,0,0,24,24H168a24,24,0,0,0,24-24V120A24,24,0,0,0,168,96ZM112,213.2v8.13a8,8,0,1,1-16,0v-8H90.67v8a8,8,0,0,1-16,0v-8H72a8,8,0,0,1-8-8V146.67a8,8,0,0,1,8-8h2.67v-8a8,8,0,0,1,16,0v8H96v-8a8,8,0,0,1,16,0v9.11A22.41,22.41,0,0,1,124.69,173,22.52,22.52,0,0,1,112,213.2Z"/></g></g></svg>