<svg xmlns="http://www.w3.org/2000/svg" viewBox="0 0 256 256"><g id="Layer_2" data-name="Layer 2"><g id="Layer_1-2" data-name="Layer 1"><path class="fill-secondary" d="M245.33,117.33A10.68,10.68,0,0,0,234.66,128,106.67,106.67,0,1,1,128,21.33a114.53,114.53,0,0,1,55.78,15L170,50.05a10.66,10.66,0,0,0,7.54,18.21h46.92a10.68,10.68,0,0,0,10.68-10.67V10.68a10.66,10.66,0,0,0-18.21-7.54L199.39,20.68A134.71,134.71,0,0,0,128,0,128,128,0,1,0,256,128,10.67,10.67,0,0,0,245.33,117.33Z"/><path class="fill-primary" d="M145.78,116.36a6.65,6.65,0,0,0-6.61-6.72H113.78V123h25.39A6.61,6.61,0,0,0,145.78,116.36Z"/><path class="fill-primary" d="M144.5,139H113.78v13.33H144.5a6.67,6.67,0,0,0,0-13.33Z"/><path class="fill-primary" d="M206.43,82.68H175.84a22.6,22.6,0,0,1-15.36-39.24,90.87,90.87,0,1,0,46,39.24Zm-60.65,85.48v8.13a8,8,0,0,1-16,0v-8h-5.33v8a8,8,0,0,1-16,0v-8h-2.67a8,8,0,0,1-8-8V101.64a8,8,0,0,1,8-8h2.67v-8a8,8,0,0,1,16,0v8h5.33v-8a8,8,0,0,1,16,0v9.1a22.4,22.4,0,0,1,12.68,33.2,22.52,22.52,0,0,1-12.68,40.22Z"/></g></g></svg>