<svg xmlns="http://www.w3.org/2000/svg" viewBox="0 0 234.66 234.66"><g id="Layer_2" data-name="Layer 2"><g id="Layer_1-2" data-name="Layer 1"><path class="fill-primary" d="M128,100.05a9.32,9.32,0,0,0-9.28-9.39H101.33v18.67h17.39A9.29,9.29,0,0,0,128,100.05Z"/><path class="fill-primary" d="M124.05,125.33H101.33V144h22.72a9.34,9.34,0,0,0,0-18.67Z"/><path class="fill-primary" d="M117.33,0A117.33,117.33,0,1,0,234.66,117.33,117.46,117.46,0,0,0,117.33,0Zm16,158.18v4.48a8,8,0,0,1-16,0V160H112v2.68a8,8,0,0,1-16,0V160H93.33a8,8,0,0,1-8-8V82.66a8,8,0,0,1,8-8H96V72a8,8,0,1,1,16,0v2.68h5.33V72a8,8,0,0,1,16,0v7.4a25.16,25.16,0,0,1,6,35.2,25.22,25.22,0,0,1-6,43.6Z"/></g></g></svg>