<svg xmlns="http://www.w3.org/2000/svg" viewBox="0 0 256 256"><g><g><path class="fill-primary" d="M123.22,148.5A8,8,0,0,0,116,144H19.36a8,8,0,0,0-8,8c0,57.34,46.94,104,104.66,104a104.67,104.67,0,0,0,45.45-10.29A8,8,0,0,0,165.23,235Z"/><path class="fill-secondary" d="M152,19a8,8,0,0,0-8,8v95.39a7.93,7.93,0,0,0,.8,3.49l41.73,85.95a8,8,0,0,0,10.65,3.73C233.47,198.08,256,162.37,256,122.37,256,65.36,209.34,19,152,19Z"/><path class="fill-primary" d="M112,104V8a8,8,0,0,0-8-8A104.13,104.13,0,0,0,0,104a8,8,0,0,0,8,8h96A8,8,0,0,0,112,104Z"/></g></g></svg>