<svg xmlns="http://www.w3.org/2000/svg" viewBox="0 0 234.66 256"><g id="Layer_2" data-name="Layer 2"><g id="bold"><path class="fill-primary" d="M117.33,42.67a21.34,21.34,0,1,1,21.33-21.34,21.36,21.36,0,0,1-21.33,21.34Z"/><path class="fill-primary" d="M152,85.33H82.67a8,8,0,0,1-8-8,24,24,0,0,1,24-24H136a24,24,0,0,1,24,24A8,8,0,0,1,152,85.33Z"/><circle class="fill-secondary" cx="202.66" cy="197.33" r="16"/><path class="fill-secondary" d="M226.66,256h-48a8,8,0,0,1-8-8,24,24,0,0,1,24-24h16a24,24,0,0,1,24,24A8,8,0,0,1,226.66,256Z"/><circle class="fill-secondary" cx="117.33" cy="197.33" r="16"/><path class="fill-secondary" d="M141.33,256h-48a8,8,0,0,1-8-8,24,24,0,0,1,24-24h16a24,24,0,0,1,24,24A8,8,0,0,1,141.33,256Z"/><circle class="fill-secondary" cx="32" cy="197.33" r="16"/><path class="fill-secondary" d="M56,256H8a8,8,0,0,1-8-8,24,24,0,0,1,24-24H40a24,24,0,0,1,24,24A8,8,0,0,1,56,256Z"/><path class="fill-primary" d="M181.33,96h-128a10.67,10.67,0,0,0,0,21.34h6.46l7,65.17c.73,7.33,6.43,9.49,13.76,9.49a37.16,37.16,0,0,1,73.6,0c7.34,0,13-2.16,13.76-9.49l7-65.17h6.47a10.67,10.67,0,0,0,0-21.34Z"/></g></g></svg>