<svg xmlns="http://www.w3.org/2000/svg" viewBox="0 0 234.69 234.67"><g id="Layer_2" data-name="Layer 2"><g id="Layer_1-2" data-name="Layer 1"><path class="fill-secondary" d="M224,64H160a10.68,10.68,0,1,1,0-21.35h64A10.68,10.68,0,0,1,224,64Z"/><path class="fill-secondary" d="M224,21.34H160A10.67,10.67,0,1,1,160,0h64a10.67,10.67,0,0,1,0,21.34Z"/><path class="fill-secondary" d="M224,106.67H160a10.67,10.67,0,1,1,0-21.33h64a10.67,10.67,0,1,1,0,21.33Z"/><path class="fill-secondary" d="M224,149.34H10.67a10.67,10.67,0,0,1,0-21.34H224a10.67,10.67,0,0,1,0,21.34Z"/><path class="fill-secondary" d="M224,192H10.67a10.68,10.68,0,0,1,0-21.35H224A10.68,10.68,0,0,1,224,192Z"/><path class="fill-secondary" d="M224,234.67H10.67a10.67,10.67,0,1,1,0-21.33H224a10.67,10.67,0,0,1,0,21.33Z"/><path class="fill-primary" d="M112,0H16A16,16,0,0,0,0,16V90.69a16,16,0,0,0,16,16h96a16,16,0,0,0,16-16V16A16,16,0,0,0,112,0Zm-5.35,21.32v43L91.52,50.75a10.69,10.69,0,0,0-14.85.56L59.34,69.47,51,61.58a10.66,10.66,0,0,0-15,.42L21.34,77.28V21.34Z"/></g></g></svg>