<svg xmlns="http://www.w3.org/2000/svg" viewBox="0 0 255.98 256.06"><g><g><path class="fill-secondary" d="M53.34,10.67V53.34H32V10.67a10.66,10.66,0,1,1,21.32,0Z"/><path class="fill-secondary" d="M53.34,106.67V245.34a10.67,10.67,0,1,1-21.34,0V106.67Z"/><path class="fill-secondary" d="M237.31,53.36H224V10.69a10.67,10.67,0,0,0-21.34,0V53.38H189.31a18.68,18.68,0,0,0-18.67,18.67v16a18.69,18.69,0,0,0,18.67,18.67h13.33V245.39a10.67,10.67,0,1,0,21.34,0V106.72h13.33A18.69,18.69,0,0,0,256,88.05v-16a18.69,18.69,0,0,0-18.67-18.69Z"/><path class="fill-secondary" d="M152,160H138.66V10.69a10.68,10.68,0,0,0-21.35,0V160H104A18.7,18.7,0,0,0,85.31,178.7v16A18.7,18.7,0,0,0,104,213.38h13.33v32a10.68,10.68,0,0,0,21.35,0v-32H152a18.7,18.7,0,0,0,18.68-18.68v-16A18.71,18.71,0,0,0,152,160Z"/><path class="fill-primary" d="M85.34,72V88a18.69,18.69,0,0,1-18.67,18.67h-48A18.62,18.62,0,0,1,0,88V72A18.69,18.69,0,0,1,18.67,53.33h48A18.76,18.76,0,0,1,85.34,72Z"/><path class="fill-primary" d="M170.64,178.67v16A18.69,18.69,0,0,1,152,213.34H104A18.62,18.62,0,0,1,85.3,194.67v-16A18.69,18.69,0,0,1,104,160h48A18.76,18.76,0,0,1,170.64,178.67Z"/><path class="fill-primary" d="M256,72V88a18.69,18.69,0,0,1-18.67,18.67h-48A18.62,18.62,0,0,1,170.64,88V72a18.69,18.69,0,0,1,18.67-18.67h48A18.76,18.76,0,0,1,256,72Z"/></g></g></svg>