<svg xmlns="http://www.w3.org/2000/svg" viewBox="0 0 256 256"><g><g><circle class="fill-primary" cx="128" cy="128" r="53.33"/><path class="fill-secondary" d="M128,234.67A106.67,106.67,0,1,1,234.67,128,106.79,106.79,0,0,1,128,234.67Zm0-192A85.33,85.33,0,1,0,213.33,128,85.43,85.43,0,0,0,128,42.67Z"/><path class="fill-primary" d="M128,53.34a10.67,10.67,0,0,1-10.67-10.67v-32a10.67,10.67,0,1,1,21.34,0v32A10.67,10.67,0,0,1,128,53.34Z"/><path class="fill-primary" d="M128,256a10.67,10.67,0,0,1-10.67-10.67v-32a10.67,10.67,0,1,1,21.34,0v32A10.66,10.66,0,0,1,128,256Z"/><path class="fill-primary" d="M42.67,138.67h-32a10.67,10.67,0,1,1,0-21.34h32a10.67,10.67,0,1,1,0,21.34Z"/><path class="fill-primary" d="M245.33,138.67h-32a10.67,10.67,0,0,1,0-21.34h32a10.67,10.67,0,0,1,0,21.34Z"/></g></g></svg>