<svg xmlns="http://www.w3.org/2000/svg" viewBox="0 0 256 148.28"><g><g><path class="fill-primary" d="M202.67,30.31v70.08a19.84,19.84,0,0,1-18.35,2.88l-2-.75a32.67,32.67,0,0,0-6-37.65L140.37,28.92l28.59-10Z"/><path class="fill-primary" d="M116,78.08l37.65,37v.11a20.72,20.72,0,0,1-5.33,9.07,22.22,22.22,0,0,1-16.64,6.4L91.52,90.58a4.21,4.21,0,0,0-1.39,3.2,4.34,4.34,0,0,0,2,3.73l38.08,37.33a21,21,0,0,1-4.59,6.92,22.37,22.37,0,0,1-15.89,6.52,21.9,21.9,0,0,1-15.36-6.2L70.93,120.85a45.79,45.79,0,0,0-17.71-10,2.87,2.87,0,0,0,.11-1V20.26L80.74,9a27.8,27.8,0,0,1,24,1.28l-1.7.88A32.66,32.66,0,0,0,85.55,34.9a32.75,32.75,0,0,0,9.07,28,32.28,32.28,0,0,0,20,9.28,3.79,3.79,0,0,0-.75,2.24,4.2,4.2,0,0,0,2,3.71Z"/><path class="fill-primary" d="M172.16,99.11a17.19,17.19,0,0,1-3.31,4.59,22.66,22.66,0,0,1-14.19,6.93l-38.52-38.4h1.28a33.24,33.24,0,0,0,14.72-3.52l3.41-1.81,18.35-9.28,14.84,14.83.11.11a22.1,22.1,0,0,1,3.31,26.55Z"/><path class="fill-secondary" d="M34.67,117.88H8a8,8,0,0,1-8-8V19.2a8,8,0,0,1,8-8H34.67a8,8,0,0,1,8,8v90.68A8,8,0,0,1,34.67,117.88Z"/><path class="fill-secondary" d="M248,117.88H221.33a8,8,0,0,1-8-8V19.2a8,8,0,0,1,8-8H248a8,8,0,0,1,8,8v90.68A8,8,0,0,1,248,117.88Z"/><path class="fill-primary" d="M191.36,12.28c-.11,0-.21-.12-.43-.12l-24.42-10A28.23,28.23,0,0,0,143,3L113.92,17.6l-6.08,3a21.59,21.59,0,0,0-5.65,34.65,21.64,21.64,0,0,0,25.06,3.94l3.52-1.81L146,49.7l42.44-21.33,14.2,5.87v-15a7.25,7.25,0,0,1,.2-2.12Z"/></g></g></svg>