<svg xmlns="http://www.w3.org/2000/svg" viewBox="0 0 256 256"><g><g><path class="fill-secondary" d="M172,20.57,55.79,80,9.6,57.32,123.71,1A9.43,9.43,0,0,1,132,1Z"/><path class="fill-secondary" d="M246.27,57.32,128.06,115.88,83.79,94.08l-6.38-3.25L193.7,31.36l6.4,3.24Z"/><path class="fill-primary" d="M118.59,132.76,118.46,256,5.23,196.91A9.89,9.89,0,0,1,0,188.22V74.2L48,97.84v41.55a9.6,9.6,0,1,0,19.2,0V107.45l6.4,3.12Z"/><path class="fill-primary" d="M255.87,74.33,137.79,132.64l-.13,123.23L256,194.08Z"/></g></g></svg>