<svg xmlns="http://www.w3.org/2000/svg" viewBox="0 0 256 256"><g><g><path class="fill-primary" d="M163.78,19.12A42.63,42.63,0,0,0,128,0C109.46,0,93.23,11.81,87.86,28.34,74.26,31,64,42.66,64,56.53c0,15.89,13.42,28.8,29.92,28.8h63.3c19.18,0,34.78-15,34.78-33.43,0-16.22-12.08-29.87-28.22-32.78Z"/><path class="fill-secondary" d="M224,168a8,8,0,0,1-8-8V144H40v16a8,8,0,0,1-16,0V136a8,8,0,0,1,8-8H224a8,8,0,0,1,8,8v24A8,8,0,0,1,224,168Z"/><path class="fill-secondary" d="M128,170.67a8,8,0,0,1-8-8v-48a8,8,0,0,1,16,0v48A8,8,0,0,1,128,170.67Z"/><circle class="fill-primary" cx="32" cy="197.33" r="16"/><path class="fill-primary" d="M40,224H24A24,24,0,0,0,0,248a8,8,0,0,0,8,8H56a8,8,0,0,0,8-8A24,24,0,0,0,40,224Z"/><circle class="fill-primary" cx="128" cy="197.33" r="16"/><path class="fill-primary" d="M136,224H120a24,24,0,0,0-24,24,8,8,0,0,0,8,8h48a8,8,0,0,0,8-8A24,24,0,0,0,136,224Z"/><circle class="fill-primary" cx="224" cy="197.33" r="16"/><path class="fill-primary" d="M232,224H216a24,24,0,0,0-24,24,8,8,0,0,0,8,8h48a8,8,0,0,0,8-8A24,24,0,0,0,232,224Z"/></g></g></svg>