<svg xmlns="http://www.w3.org/2000/svg" viewBox="0 0 256 256"><g id="Layer_2" data-name="Layer 2"><g id="bold"><path class="fill-secondary" d="M216,0H40a8.06,8.06,0,0,0-8,8V98.67A29.32,29.32,0,0,0,61.33,128H88.1a48,48,0,0,1,79.77,0h26.77A29.32,29.32,0,0,0,224,98.67V8A8.06,8.06,0,0,0,216,0ZM176,66.67a8,8,0,0,1-4.94,7.39,7.88,7.88,0,0,1-3.06.61,8,8,0,0,1-5.66-2.33L154,64l-15.2,13.94A8,8,0,0,1,129.36,79L116,71.33,93.65,93.66A8,8,0,0,1,82.34,82.35L109,55.68a8,8,0,0,1,9.63-1.3l13.58,7.76,10.42-9.53-6.94-7A8,8,0,0,1,141.33,32H168a8,8,0,0,1,8,8Z"/><circle class="fill-primary" cx="42.67" cy="160" r="21.33"/><path class="fill-primary" d="M71.15,196.27A44.71,44.71,0,0,0,53.34,232v2.67H8a8.06,8.06,0,0,1-8-8v-5.33A29.32,29.32,0,0,1,29.33,192H56a29.13,29.13,0,0,1,15.15,4.27Z"/><circle class="fill-primary" cx="213.33" cy="160" r="21.33"/><path class="fill-primary" d="M256,221.33v5.33a8.07,8.07,0,0,1-8,8H202.67V232a44.69,44.69,0,0,0-17.81-35.73A29.07,29.07,0,0,1,200,192h26.67A29.32,29.32,0,0,1,256,221.33Z"/><circle class="fill-primary" cx="128" cy="154.67" r="32"/><path class="fill-primary" d="M157.33,202.67H98.66A29.35,29.35,0,0,0,69.33,232v16a8,8,0,0,0,8,8H178.66a8,8,0,0,0,8-8V232A29.35,29.35,0,0,0,157.33,202.67Z"/><path class="fill-secondary" d="M237.33,16H18.67a8,8,0,0,1,0-16H237.34a8,8,0,1,1,0,16Z"/></g></g></svg>