<svg xmlns="http://www.w3.org/2000/svg" viewBox="0 0 256 213.36"><g><g><path class="fill-secondary" d="M10.67,58.69A10.66,10.66,0,0,1,0,48V32A32,32,0,0,1,32,0H48a10.67,10.67,0,1,1,0,21.34H32A10.67,10.67,0,0,0,21.33,32V48A10.66,10.66,0,0,1,10.67,58.69Z"/><path class="fill-secondary" d="M245.33,58.69A10.67,10.67,0,0,1,234.66,48V32A10.69,10.69,0,0,0,224,21.34H208A10.67,10.67,0,1,1,208,0h16a32,32,0,0,1,32,32V48a10.64,10.64,0,0,1-10.65,10.69Z"/><path class="fill-secondary" d="M48,213.36H32a32,32,0,0,1-32-32v-16a10.67,10.67,0,0,1,21.34,0v16A10.68,10.68,0,0,0,32,192H48a10.67,10.67,0,1,1,0,21.33Z"/><path class="fill-secondary" d="M224,213.36H208A10.67,10.67,0,1,1,208,192h16a10.68,10.68,0,0,0,10.67-10.68v-16a10.67,10.67,0,1,1,21.33,0v16A32,32,0,0,1,224,213.36Z"/><path class="fill-primary" d="M128,152a45.33,45.33,0,1,1,45.33-45.33A45.39,45.39,0,0,1,128,152Zm0-69.33a24,24,0,1,0,24,24A24,24,0,0,0,128,82.69Z"/></g></g></svg>