<svg xmlns="http://www.w3.org/2000/svg" viewBox="0 0 256 256"><g><g><path class="fill-primary" d="M256,178.08a5.58,5.58,0,0,1-3.84,5.28l-51.81,17-17,51.8a5.6,5.6,0,0,1-5.3,3.86,5.5,5.5,0,0,1-5.17-3.57L128.38,135.57a4.89,4.89,0,0,1-.38-2,5.58,5.58,0,0,1,5.57-5.57,4.89,4.89,0,0,1,2,.38l116.86,44.53a5.54,5.54,0,0,1,3.57,5.17Z"/><path class="fill-secondary" d="M117.33,234.67A117.34,117.34,0,1,1,234.66,117.33a109.73,109.73,0,0,1-1,15.26,10.66,10.66,0,1,1-21.12-2.89,89.82,89.82,0,0,0,.82-12.36,96,96,0,1,0-96,96,92.84,92.84,0,0,0,12.38-.81,10.66,10.66,0,1,1,2.88,21.13,112.4,112.4,0,0,1-15.26,1Z"/><path class="fill-secondary" d="M112.27,181.17c-.33,0-.67,0-1,0a64.12,64.12,0,1,1,69.86-69.71,10.67,10.67,0,0,1-21.25,1.92,42.78,42.78,0,1,0-46.64,46.57,10.66,10.66,0,0,1-1,21.27Z"/></g></g></svg>