<svg xmlns="http://www.w3.org/2000/svg" viewBox="0 0 256.03 213.34"><g><g><path class="fill-secondary" d="M235.14,0H20.86A20.9,20.9,0,0,0,0,20.88v36.4A38.57,38.57,0,0,0,67.46,83,40.83,40.83,0,0,0,128,82.16a40.84,40.84,0,0,0,60.53.83A38.57,38.57,0,0,0,256,57.28V20.88A20.86,20.86,0,0,0,235.14,0Zm-179,57.28a17.39,17.39,0,0,1-34.78,0l-.47-35.94H56.11V57.28ZM97.39,74.67A20,20,0,0,1,77.46,54.74V21.34h39.88v33.4A20,20,0,0,1,97.39,74.67Zm61.22,0a20,20,0,0,1-19.94-19.93V21.34h39.89v33.4A20,20,0,0,1,158.61,74.67Zm76.06-17.39a17.39,17.39,0,1,1-34.78,0v-36l34.78-.35Z"/><path class="fill-primary" d="M234.67,114.78v23.89H21.33V114.78A61.13,61.13,0,0,1,0,103.15v59.52a18.76,18.76,0,0,0,18.67,18.67h81.7c-1.25,5.35-4.58,14-13.46,22.9a5.33,5.33,0,0,0,3.78,9.1h74.67a5.33,5.33,0,0,0,3.78-9.1c-8.87-8.86-12.28-17.54-13.6-22.9h81.82A18.76,18.76,0,0,0,256,162.67V103.15A61.53,61.53,0,0,1,234.67,114.78Z"/></g></g></svg>