<svg xmlns="http://www.w3.org/2000/svg" viewBox="0 0 255.99 256"><g id="Layer_2" data-name="Layer 2"><g id="Bold"><path class="fill-primary" d="M224,0H32A32.09,32.09,0,0,0,0,32V202.67a32.09,32.09,0,0,0,32,32h74.24L110,213.34H32a10.7,10.7,0,0,1-10.67-10.67V53.34H234.66v50.77a37.66,37.66,0,0,1,17.8,10l3.52,3.52V32A32.06,32.06,0,0,0,224,0Z"/><path class="fill-primary" d="M205.33,69.33H50.66a8.06,8.06,0,0,0-8,8v48a8.06,8.06,0,0,0,8,8h129.8l16-16H58.66v-32H197.33v31.15l.43-.43a45.35,45.35,0,0,1,15.57-10.45V77.33A8.06,8.06,0,0,0,205.33,69.33Z"/><path class="fill-primary" d="M164.59,149.23l-16.11,16H51.2a8,8,0,0,1,0-16Z"/><path class="fill-primary" d="M132.48,181.23l-14,14a10.19,10.19,0,0,0-1.71,2H51.2a8,8,0,0,1,0-16Z"/><path class="fill-secondary" d="M250.53,142.4l-13.2-13.2c-5.23-5.23-14.79-7.86-24.51,1.89l-79.2,79.2a8.08,8.08,0,0,0-2.23,4.27l-5.66,32.06a7.92,7.92,0,0,0,2.22,7,8.06,8.06,0,0,0,5.68,2.34,10.71,10.71,0,0,0,1.39-.11l32-5.67a7.83,7.83,0,0,0,4.27-2.22l79.2-79.2A18.7,18.7,0,0,0,250.53,142.4Z"/></g></g></svg>