<svg xmlns="http://www.w3.org/2000/svg" viewBox="0 0 256 256"><g><g><path class="fill-primary" d="M152,0H29.33A29.32,29.32,0,0,0,0,29.33V194.66A29.32,29.32,0,0,0,29.33,224h78.72l2.35-13.12a29.71,29.71,0,0,1,8.11-15.68l62.83-62.72V29.33A29.33,29.33,0,0,0,152,0ZM42.67,42.67H85.34a10.67,10.67,0,1,1,0,21.33H42.66a10.67,10.67,0,0,1,0-21.33ZM96,149.33H42.67a10.67,10.67,0,1,1,0-21.33H96a10.67,10.67,0,1,1,0,21.33Zm42.67-42.66h-96a10.67,10.67,0,0,1,0-21.34h96a10.67,10.67,0,1,1,0,21.34Z"/><path class="fill-secondary" d="M133.63,256a8,8,0,0,1-7.89-9.38l5.67-32.06a8,8,0,0,1,2.22-4.27l79.2-79.2c9.73-9.75,19.28-7.12,24.51-1.89l13.2,13.2a18.69,18.69,0,0,1,0,26.4L171.34,248a7.83,7.83,0,0,1-4.27,2.22l-32,5.67A10.71,10.71,0,0,1,133.63,256Zm32.05-13.65h0Z"/></g></g></svg>