<svg xmlns="http://www.w3.org/2000/svg" viewBox="0 0 256 202.66"><g><g><path class="fill-primary" d="M192,0H21.33A21.36,21.36,0,0,0,0,21.33v96a21.36,21.36,0,0,0,21.33,21.33H192a21.36,21.36,0,0,0,21.33-21.33v-96A21.36,21.36,0,0,0,192,0Zm0,48L118.4,85.12A25.12,25.12,0,0,1,106.67,88a24.39,24.39,0,0,1-11.84-3L21.34,48V30.08l80.85,40.75a9.64,9.64,0,0,0,8.85.11l81-40.86Z"/><path class="fill-secondary" d="M234.67,64v53.33A42.72,42.72,0,0,1,192,160H42.67v21.33A21.36,21.36,0,0,0,64,202.66H234.67A21.36,21.36,0,0,0,256,181.33v-96A21.36,21.36,0,0,0,234.67,64Z"/></g></g></svg>