<svg xmlns="http://www.w3.org/2000/svg" viewBox="0 0 256 245.34"><g><g><path class="fill-primary" d="M170.67,106.67H85.34a10.67,10.67,0,0,1,0-21.34h85.33a10.67,10.67,0,1,1,0,21.34Z"/><path class="fill-primary" d="M128,64H85.33a10.67,10.67,0,0,1,0-21.34H128A10.67,10.67,0,0,1,128,64Z"/><path class="fill-secondary" d="M224,32v84.91l-21.33,11.2V32A10.7,10.7,0,0,0,192,21.33H64A10.7,10.7,0,0,0,53.33,32v96.11L32,116.91V32A32.09,32.09,0,0,1,64,0H192A32.09,32.09,0,0,1,224,32Z"/><path class="fill-secondary" d="M53.33,128.11V144A10.67,10.67,0,1,1,32,144V116.91Z"/><path class="fill-secondary" d="M224,116.91V144a10.67,10.67,0,1,1-21.34,0V128.11Z"/><path class="fill-primary" d="M256,98V213.34a32.09,32.09,0,0,1-32,32H32a32.09,32.09,0,0,1-32-32V98A32.18,32.18,0,0,1,16.64,69.87L32,61.55V85.87l-5.12,2.77A10.61,10.61,0,0,0,21.33,98v13.33L32,116.91l21.33,11.2,68.48,35.73a13.89,13.89,0,0,0,12.48-.11l68.37-35.63L224,116.91l10.67-5.55V98a10.6,10.6,0,0,0-5.55-9.39L224,85.87V61.55l15.36,8.32A32.18,32.18,0,0,1,256,98Z"/></g></g></svg>