<svg xmlns="http://www.w3.org/2000/svg" viewBox="0 0 256 256"><path class="fill-secondary" d="M72.11,86.51l-3.52-21L70,64.11l-4.36-4.48A24.12,24.12,0,0,1,59.86,35.2c.11-.32.2-.53.32-.85l-1.4-.21-9-18.88a8,8,0,0,0-14.49,0l-8.88,19L6.72,37.33A8,8,0,0,0,.43,42.77a7.94,7.94,0,0,0,1.92,8.11L16.86,65.71l-3.42,21A8.07,8.07,0,0,0,21.33,96a8.33,8.33,0,0,0,4-1l17.49-9.81,17.6,9.6a8.2,8.2,0,0,0,8.53-.43,8,8,0,0,0,3.21-7.89Z"/><path class="fill-secondary" d="M255.57,42.45a7.85,7.85,0,0,0-6.4-5.33l-19.73-3-9-18.88a8,8,0,0,0-14.5,0l-8.86,19-1.17.21c0,.11.11.21.11.32a23.76,23.76,0,0,1-5.44,24.32L185.81,64l1.71,1.71-3.41,21A8.07,8.07,0,0,0,192,96,8.33,8.33,0,0,0,196,95l17.49-9.81,17.6,9.6a8.2,8.2,0,0,0,8.53-.43,8.06,8.06,0,0,0,3.2-7.89l-3.52-21,14.51-14.92a8.09,8.09,0,0,0,1.81-8.13Z"/><path class="fill-primary" d="M100.18,106.67a8,8,0,0,1-7.91-9.25l4.61-28.8L77,48.37a8,8,0,0,1,4.46-13.51l27.09-4.22,12.11-26A8,8,0,0,1,127.86,0h0a8,8,0,0,1,7.23,4.58l12.29,25.9,27.12,4.05A8,8,0,0,1,179.09,48L159.31,68.38l4.8,28.77a8,8,0,0,1-11.74,8.34L128.18,92.24l-24.12,13.42a7.94,7.94,0,0,1-3.88,1Z"/><circle class="fill-secondary" cx="42.67" cy="160" r="21.33"/><path class="fill-secondary" d="M71.15,196.27A44.71,44.71,0,0,0,53.34,232v2.67H8a8.06,8.06,0,0,1-8-8v-5.33A29.32,29.32,0,0,1,29.33,192H56a29.13,29.13,0,0,1,15.15,4.27Z"/><circle class="fill-secondary" cx="213.33" cy="160" r="21.33"/><path class="fill-secondary" d="M256,221.33v5.33a8.07,8.07,0,0,1-8,8H202.67V232a44.69,44.69,0,0,0-17.81-35.73A29.07,29.07,0,0,1,200,192h26.67A29.32,29.32,0,0,1,256,221.33Z"/><circle class="fill-primary" cx="128" cy="154.67" r="32"/><path class="fill-primary" d="M157.33,202.67H98.66A29.35,29.35,0,0,0,69.33,232v16a8,8,0,0,0,8,8H178.66a8,8,0,0,0,8-8V232A29.35,29.35,0,0,0,157.33,202.67Z"/></svg>