<svg xmlns="http://www.w3.org/2000/svg" viewBox="0 0 255.99 256"><g id="Layer_2" data-name="Layer 2"><g id="bold"><path class="fill-secondary" d="M122.66,120A10.67,10.67,0,0,1,112,109.31V96a42.71,42.71,0,0,1,42.67-42.65h58.67A21.36,21.36,0,0,0,234.66,32V10.67a10.67,10.67,0,1,1,21.33,0V32a42.71,42.71,0,0,1-42.67,42.66H154.65A21.35,21.35,0,0,0,133.32,96v13.33A10.67,10.67,0,0,1,122.66,120Z"/><path class="fill-primary" d="M40.81,256a38.6,38.6,0,0,1-18.34-4.45C9.16,244.51,1.24,230.1.2,211c-1.63-29.89,6.78-59,25.69-89C40.82,98.27,58.73,91.42,85.7,99c12,3.37,24.61,6.57,36.77,6.24,10.91-.2,22.7-2.18,37.14-6.24,27-7.6,44.89-.74,59.82,22.94,18.93,30,27.33,59.15,25.7,89-1,19.12-9,33.54-22.28,40.58-13.93,7.37-31.44,5.52-49.26-5.24-12.43-7.48-23.87-15.13-34.38-22.28a30.09,30.09,0,0,0-33.09,0c-10.51,7.15-21.94,14.78-34.39,22.28-10.65,6.45-21.2,9.7-30.92,9.7ZM66.6,117.3c-9.46,0-15.59,4.8-22.66,16-16.49,26.16-23.84,51.19-22.45,76.5.63,11.36,4.52,19.49,11,22.89,6.95,3.68,17.27,2,28.29-4.65,12-7.23,23.14-14.67,33.39-21.65,16.82-11.46,40.28-11.46,57.09,0,10.26,7,21.39,14.42,33.39,21.65,11,6.64,21.33,8.33,28.29,4.65,6.45-3.4,10.34-11.53,11-22.89,1.38-25.31-6-50.34-22.45-76.5-9.92-15.74-18-18.86-36-13.79-16.24,4.58-29.76,6.8-42.54,7-14.92.16-29.41-3.23-42.93-7A50.26,50.26,0,0,0,66.6,117.3Zm56.06-1.41h0Z"/><path class="fill-primary" d="M88,178.64H50.66a8,8,0,0,1,0-16H88a8,8,0,1,1,0,16Z"/><path class="fill-primary" d="M69.32,197.3a8,8,0,0,1-8-8V152a8,8,0,0,1,16,0V189.3A8,8,0,0,1,69.32,197.3Z"/><path class="fill-primary" d="M181.32,192a21.33,21.33,0,1,1,21.33-21.33A21.36,21.36,0,0,1,181.32,192Z"/></g></g></svg>