<svg xmlns="http://www.w3.org/2000/svg" viewBox="0 0 253.45 256"><g><g><path class="fill-primary" d="M158.75,170.67a70.52,70.52,0,0,0,0-21.25l17.64-13.84a10.75,10.75,0,0,0,2.65-13.72l-11.37-19.72a10.73,10.73,0,0,0-13.24-4.56L133.66,106a67.43,67.43,0,0,0-18.35-10.61l-3.15-22.19A10.71,10.71,0,0,0,101.6,64H78.86A10.71,10.71,0,0,0,68.3,73.17L65.15,95.36A67.44,67.44,0,0,0,46.89,106L26,97.58a10.74,10.74,0,0,0-13.21,4.56L1.42,121.86A10.73,10.73,0,0,0,4.09,135.6l17.62,13.74A68.44,68.44,0,0,0,20.89,160a70,70,0,0,0,.8,10.58L4.06,184.42A10.75,10.75,0,0,0,1.4,198.14l11.38,19.72A10.76,10.76,0,0,0,26,222.42l20.79-8.37a67.43,67.43,0,0,0,18.35,10.61l3.15,22.19A10.71,10.71,0,0,0,78.86,256H101.6a10.71,10.71,0,0,0,10.56-9.17l3.15-22.19a67.24,67.24,0,0,0,18.25-10.59l20.88,8.37a10.72,10.72,0,0,0,13.22-4.56L179,198.14a10.73,10.73,0,0,0-2.68-13.74ZM90.22,197.33A37.33,37.33,0,1,1,127.55,160,37.37,37.37,0,0,1,90.22,197.33Z"/><path class="fill-secondary" d="M241.72,58.34a39.74,39.74,0,0,0,.52-5,36.19,36.19,0,0,0-.52-5l9.6-7.26a5.31,5.31,0,0,0,1.4-6.92L244.11,19.2A5.3,5.3,0,0,0,237.42,17l-11.06,4.67a39.61,39.61,0,0,0-8.75-5.21L216.14,4.67A5.32,5.32,0,0,0,210.86,0H193.61a5.33,5.33,0,0,0-5.29,4.67l-1.48,11.75a39.06,39.06,0,0,0-8.73,5.2l-11.06-4.68a5.34,5.34,0,0,0-6.69,2.24l-8.62,15A5.33,5.33,0,0,0,153.13,41l9.6,7.26a39.73,39.73,0,0,0-.51,5,37.79,37.79,0,0,0,.51,5l-9.6,7.26a5.32,5.32,0,0,0-1.39,6.92l8.62,14.94a5.3,5.3,0,0,0,6.69,2.24L178.11,85a40.22,40.22,0,0,0,8.73,5.2L188.32,102a5.33,5.33,0,0,0,5.29,4.67h17.25a5.34,5.34,0,0,0,5.3-4.67l1.47-11.74a39.37,39.37,0,0,0,8.73-5.2l11.06,4.67a5.34,5.34,0,0,0,6.69-2.24l8.62-14.94a5.33,5.33,0,0,0-1.39-6.92Zm-39.5,16.33a21.33,21.33,0,1,1,21.33-21.33A21.33,21.33,0,0,1,202.22,74.67Z"/></g></g></svg>