<svg xmlns="http://www.w3.org/2000/svg" viewBox="0 0 256 256"><g id="Layer_2" data-name="Layer 2"><g id="Layer_1-2" data-name="Layer 1"><path class="fill-primary" d="M88.74,145.39A8,8,0,0,1,82,133.14L107.14,93a8,8,0,0,1,13.55,8.5L95.5,141.63a7.94,7.94,0,0,1-6.76,3.76Z"/><path class="fill-primary" d="M154,76.91a8,8,0,0,1-1.75-15.81l43.95-9.8a8,8,0,0,1,3.49,15.63l-44,9.81A9.41,9.41,0,0,1,154,76.91Z"/><circle class="fill-primary" cx="74.67" cy="160" r="32"/><circle class="fill-primary" cx="128" cy="74.67" r="32"/><circle class="fill-primary" cx="224" cy="53.33" r="32"/><path class="fill-secondary" d="M21.33,256a10.67,10.67,0,0,1-10.67-10.67V10.67a10.67,10.67,0,0,1,21.34,0V245.34A10.66,10.66,0,0,1,21.33,256Z"/><path class="fill-secondary" d="M245.33,245.33H10.67a10.67,10.67,0,1,1,0-21.33H245.34a10.67,10.67,0,1,1,0,21.33Z"/></g></g></svg>