<svg xmlns="http://www.w3.org/2000/svg" viewBox="0 0 256 244.09"><g><g><path class="fill-secondary" d="M35.72,92.28a92.28,92.28,0,0,1,184.56,0v47.63a8.93,8.93,0,0,1-17.86,0V92.28a74.42,74.42,0,1,0-148.84,0v47.63a8.93,8.93,0,1,1-17.86,0Z"/><path class="fill-secondary" d="M211.35,154.79a8.93,8.93,0,0,1,8.93,8.93v35.72a32.75,32.75,0,0,1-32.75,32.75H151.81a8.94,8.94,0,0,1,0-17.87h35.72a14.88,14.88,0,0,0,14.89-14.88V163.72a8.93,8.93,0,0,1,8.93-8.93Z"/><path class="fill-secondary" d="M107.16,223.26A20.84,20.84,0,0,1,128,202.42h11.91a20.84,20.84,0,0,1,0,41.67H128a20.84,20.84,0,0,1-20.84-20.83Zm20.84-3a3,3,0,1,0,0,5.95h11.91a3,3,0,0,0,0-5.95Z"/><path class="fill-primary" d="M32.74,107.16A32.74,32.74,0,0,0,0,139.91v23.81a32.75,32.75,0,0,0,32.74,32.75H44.65a8.93,8.93,0,0,0,8.93-8.94V116.09a8.93,8.93,0,0,0-8.93-8.93Z"/><path class="fill-primary" d="M223.26,107.16A32.74,32.74,0,0,1,256,139.91v23.81a32.75,32.75,0,0,1-32.74,32.75H211.35a8.93,8.93,0,0,1-8.93-8.94V116.09a8.93,8.93,0,0,1,8.93-8.93Z"/></g></g></svg>