<svg xmlns="http://www.w3.org/2000/svg" viewBox="0 0 213.34 256.01"><g id="Layer_2" data-name="Layer 2"><g id="bold"><path class="fill-primary" d="M106.67,256a11,11,0,0,1-2.8-.37C102.83,255.35,0,226.26,0,127.21v-80a10.66,10.66,0,0,1,6.88-10L102.88.7a10.65,10.65,0,0,1,7.58,0l96,36.52a10.65,10.65,0,0,1,6.88,10v80c0,99.05-102.83,128.14-103.87,128.43a11,11,0,0,1-2.8.37ZM21.34,54.55v72.66c0,75.17,70,102,85.33,107,15.31-5,85.33-31.82,85.33-107V54.55L106.67,22.09Z"/><path class="fill-secondary" d="M109.34,192H104a18.7,18.7,0,0,1-18.68-18.67v-24h-24a18.7,18.7,0,0,1-18.67-18.68v-5.32a18.7,18.7,0,0,1,18.67-18.68h24v-24A18.7,18.7,0,0,1,104,64h5.32A18.7,18.7,0,0,1,128,82.66v24h24a18.7,18.7,0,0,1,18.67,18.68v5.32A18.7,18.7,0,0,1,152,149.34H128v24A18.71,18.71,0,0,1,109.34,192Z"/></g></g></svg>