<svg xmlns="http://www.w3.org/2000/svg" viewBox="0 0 256 192"><g><g><path class="fill-secondary" d="M53.33,85.33A21.33,21.33,0,1,0,32,64,21.36,21.36,0,0,0,53.33,85.33Z"/><path class="fill-primary" d="M224,21.33H111.09L92.88,3.12A10.67,10.67,0,0,0,85.34,0H32A32,32,0,0,0,0,32V160a32,32,0,0,0,32,32H224a32,32,0,0,0,32-32V53.33A32,32,0,0,0,224,21.33Zm-192,0H80.93L99.14,39.54a10.67,10.67,0,0,0,7.53,3.12H224a10.67,10.67,0,0,1,10.67,10.67v74L178.56,71.23a18.74,18.74,0,0,0-26.46,0L101.33,122,87.89,108.56a18.73,18.73,0,0,0-26.47,0L21.31,148.67V32A10.7,10.7,0,0,1,32,21.33Z"/></g></g></svg>