<svg xmlns="http://www.w3.org/2000/svg" viewBox="0 0 255.98 234.67"><g><g><path class="fill-secondary" d="M66.66,186.66a40,40,0,0,1-37.8-27.22l-.36-1.23a39.09,39.09,0,0,1-1.86-11.57V73.92L.78,160.32a24.24,24.24,0,0,0,17,29.39L182.7,233.89a24.08,24.08,0,0,0,6.13.78,23.73,23.73,0,0,0,23-17.44l9.6-30.56H66.66Z"/><path class="fill-secondary" d="M96,74.66A21.33,21.33,0,1,0,74.66,53.33,21.36,21.36,0,0,0,96,74.66Z"/><path class="fill-primary" d="M229.31,0h-160A26.71,26.71,0,0,0,42.64,26.67V144a26.71,26.71,0,0,0,26.67,26.67h160A26.7,26.7,0,0,0,256,144V26.67A26.69,26.69,0,0,0,229.31,0Zm-160,21.33h160a5.32,5.32,0,0,1,5.33,5.33v75.72l-33.7-39.31a19.1,19.1,0,0,0-14.3-6.56,18.63,18.63,0,0,0-14.26,6.74l-39.6,47.55L119.89,97.9a18.75,18.75,0,0,0-26.47,0L64,127.34V26.66a5.33,5.33,0,0,1,5.33-5.33Z"/></g></g></svg>