<svg xmlns="http://www.w3.org/2000/svg" viewBox="0 0 256 245.36"><g><g><path class="fill-primary" d="M128,117.36a7.92,7.92,0,0,1-3.1-.63L4.9,66.06a8,8,0,0,1,0-14.75L124.9.64a7.9,7.9,0,0,1,6.22,0l120,50.67a8,8,0,0,1,0,14.75l-120,50.67A7.92,7.92,0,0,1,128,117.36Z"/><path class="fill-primary" d="M251.1,136.65l-12.49-5.28L137.33,174.12a24,24,0,0,1-18.69,0L17.39,131.36,4.88,136.64a8,8,0,0,0,0,14.75l120,50.67a8.06,8.06,0,0,0,6.2,0l120-50.67a8,8,0,0,0,0-14.74Z"/><path class="fill-secondary" d="M251.1,94,238.61,88.7,137.33,131.45a24,24,0,0,1-18.69,0L17.39,88.68,4.88,94a8,8,0,0,0,0,14.77l120,50.67a7.94,7.94,0,0,0,6.2,0l120-50.67a8,8,0,0,0,0-14.75Z"/><path class="fill-secondary" d="M251.1,179.31,238.61,174,137.33,216.78a23.66,23.66,0,0,1-9.33,1.9,23.91,23.91,0,0,1-9.36-1.9L17.39,174,4.88,179.31a8,8,0,0,0,0,14.75l120,50.67a7.94,7.94,0,0,0,6.2,0l120-50.67a8,8,0,0,0,0-14.75Z"/></g></g></svg>