<svg xmlns="http://www.w3.org/2000/svg" viewBox="0 0 256 256"><g><g><path class="fill-primary" d="M244.27,0H150.4a11.73,11.73,0,0,0-11.73,11.73v147.2a11.73,11.73,0,0,0,11.73,11.73h93.87A11.73,11.73,0,0,0,256,158.93V11.73A11.73,11.73,0,0,0,244.27,0Z"/><path class="fill-secondary" d="M11.73,170.67H105.6a11.73,11.73,0,0,0,11.73-11.73V11.74A11.73,11.73,0,0,0,105.6,0H11.73A11.73,11.73,0,0,0,0,11.73v147.2a11.74,11.74,0,0,0,11.73,11.74Z"/><path class="fill-primary" d="M244.27,192H11.73A11.73,11.73,0,0,0,0,203.73v40.53A11.73,11.73,0,0,0,11.73,256H244.26A11.73,11.73,0,0,0,256,244.27V203.74A11.73,11.73,0,0,0,244.27,192Z"/></g></g></svg>