<svg xmlns="http://www.w3.org/2000/svg" viewBox="0 0 256 256"><g><g><path class="fill-secondary" d="M0,102.4V244.27A11.73,11.73,0,0,0,11.73,256h51.2a11.73,11.73,0,0,0,11.73-11.73V102.4A11.73,11.73,0,0,0,62.93,90.67H11.73A11.73,11.73,0,0,0,0,102.4Z"/><path class="fill-primary" d="M244.27,0H11.73A11.73,11.73,0,0,0,0,11.73v51.2A11.73,11.73,0,0,0,11.73,74.66H244.26A11.72,11.72,0,0,0,256,62.93V11.73A11.7,11.7,0,0,0,244.27,0Z"/><path class="fill-primary" d="M102.4,256H244.27A11.73,11.73,0,0,0,256,244.27V102.4a11.73,11.73,0,0,0-11.73-11.73H102.4A11.73,11.73,0,0,0,90.67,102.4V244.27A11.73,11.73,0,0,0,102.4,256Z"/></g></g></svg>