<svg xmlns="http://www.w3.org/2000/svg" viewBox="0 0 234.67 234.67"><g><g><path class="fill-primary" d="M177.25,156.4a10.67,10.67,0,0,1-7.54-18.21l28.43-28.43a51,51,0,0,0,15.2-36.61,51.88,51.88,0,0,0-51.82-51.81A51.09,51.09,0,0,0,125,36.51L96.48,65A10.67,10.67,0,0,1,81.39,49.89l28.43-28.43A72.25,72.25,0,0,1,161.52,0a73.23,73.23,0,0,1,73.15,73.15,72.24,72.24,0,0,1-21.49,51.73L184.8,153.27A10.67,10.67,0,0,1,177.25,156.4Z"/><path class="fill-primary" d="M73.14,234.67A73.22,73.22,0,0,1,0,161.52a72.28,72.28,0,0,1,21.47-51.71l28.4-28.4A10.67,10.67,0,0,1,65,96.5L36.53,124.93a51.15,51.15,0,0,0-15.2,36.61,51.86,51.86,0,0,0,51.81,51.8,51.14,51.14,0,0,0,36.57-15.16l28.47-28.47a10.67,10.67,0,1,1,15.09,15.09l-28.44,28.43A72.22,72.22,0,0,1,73.14,234.67Z"/><path class="fill-secondary" d="M74.67,170.67a10.67,10.67,0,0,1-7.53-18.21l85.32-85.32a10.67,10.67,0,0,1,15.09,15.08L82.22,167.55A10.69,10.69,0,0,1,74.67,170.67Z"/></g></g></svg>