<svg xmlns="http://www.w3.org/2000/svg" viewBox="0 0 192 256"><g><g><path class="fill-primary" d="M160,0H32A32,32,0,0,0,0,32V192a10.66,10.66,0,0,0,3.12,7.54l53.33,53.32A10.63,10.63,0,0,0,64,256h96a32,32,0,0,0,32-32V32A32,32,0,0,0,160,0Zm10.67,224A10.67,10.67,0,0,1,160,234.67H74.67v-24a29.36,29.36,0,0,0-29.33-29.33h-24V32A10.68,10.68,0,0,1,32,21.33H160A10.68,10.68,0,0,1,170.69,32V224Z"/><path class="fill-secondary" d="M130.67,85.33H61.34A18.7,18.7,0,0,1,42.67,66.66V61.33A18.69,18.69,0,0,1,61.34,42.66h69.33a18.68,18.68,0,0,1,18.67,18.67v5.33A18.7,18.7,0,0,1,130.67,85.33Z"/><path class="fill-secondary" d="M138.67,128H53.34a10.67,10.67,0,1,1,0-21.34h85.33a10.67,10.67,0,1,1,0,21.34Z"/><path class="fill-secondary" d="M138.67,170.67H53.34a10.67,10.67,0,0,1,0-21.34h85.33a10.67,10.67,0,1,1,0,21.34Z"/></g></g></svg>