<svg xmlns="http://www.w3.org/2000/svg" viewBox="0 0 255.96 256"><path class="fill-primary" d="M96,186.67A90.77,90.77,0,0,1,186.63,96a89.82,89.82,0,0,1,38.9,8.9,64.28,64.28,0,0,0-95.3-86L120,29.15,109.72,18.88a64.21,64.21,0,0,0-90.93,0,64.56,64.56,0,0,0,0,91.06L96,187.28Z"/><path class="fill-secondary" d="M186.63,117.33A69.34,69.34,0,1,0,256,186.67,69.41,69.41,0,0,0,186.63,117.33Zm30.19,55.73-30.54,37.32a8.06,8.06,0,0,1-5.92,3h-.27a8,8,0,0,1-5.84-2.53l-17.46-18.67a8,8,0,0,1,11.7-10.95l11.21,12,24.76-30.26a8,8,0,1,1,12.36,10.15Z"/></svg>