<svg xmlns="http://www.w3.org/2000/svg" viewBox="0 0 255.99 245.34"><g><g><path class="fill-primary" d="M40.46,231.55l-16-16a10.62,10.62,0,0,1-2.64-10.7L43.14,136a10.66,10.66,0,0,1,20.37,6.32L44.09,205,51,211.94l63.2-19.44a10.66,10.66,0,1,1,6.27,20.38L51.14,234.21A10.68,10.68,0,0,1,40.46,231.55Z"/><path class="fill-primary" d="M37.32,245.34H8a8,8,0,0,1-6.46-12.7l21.33-29.33a7.92,7.92,0,0,1,5.84-3.26A8.1,8.1,0,0,1,35,202.37L53.66,221a8,8,0,0,1,0,11.31L43,243A8.06,8.06,0,0,1,37.32,245.34Z"/><path class="fill-secondary" d="M236.58,104.18l2-2.07a59.93,59.93,0,0,0-84.75-84.75l-2.06,2.05Z"/><path class="fill-primary" d="M136.66,34.42,48.09,122.18a18.38,18.38,0,0,0,0,26.06L107.78,208a18.41,18.41,0,0,0,26.07-.08l87.73-88.55Z"/></g></g></svg>