<svg xmlns="http://www.w3.org/2000/svg" viewBox="0 0 256 255.91"><g id="Layer_2" data-name="Layer 2"><g id="bold"><path class="fill-secondary" d="M244.27,93.45c-22.19-11-43-17.17-62.93-18.56v9.28a109.1,109.1,0,0,1-.64,12c17,1.28,34.68,6.72,54,16.11v46.72c0,35.52-24.53,66.77-58.67,75.2a77.27,77.27,0,0,1-53.23-46.93,113.48,113.48,0,0,1-19.09,9.39,98.38,98.38,0,0,0,70.08,59,15.41,15.41,0,0,0,2.24.2,18.82,18.82,0,0,0,2.24-.2c45-9.72,77.76-50.36,77.76-96.64V112.35A21,21,0,0,0,244.27,93.45Z"/><path class="fill-secondary" d="M208,138.57c-8.45,0-15-5.06-15.94-12.3a8,8,0,0,1,15.46-3.73,4.82,4.82,0,0,0,.93,0,8,8,0,0,1,15.45,3.73C223,133.51,216.45,138.57,208,138.57Z"/><path class="fill-primary" d="M149.57,19.05C97.65-6.37,53.06-6.36,9.25,19.15A18.69,18.69,0,0,0,0,35.34V84.17a99.59,99.59,0,0,0,78.32,96.88,7.93,7.93,0,0,0,3.36,0A99.57,99.57,0,0,0,160,84.17V35.85A18.8,18.8,0,0,0,149.57,19.05ZM32.06,54.87C33,47.64,39.55,42.57,48,42.57s15,5.06,15.94,12.3a8,8,0,0,1-6.9,9,7.37,7.37,0,0,1-1,.07,8,8,0,0,1-7.52-5.31,3.62,3.62,0,0,0-.93,0,8,8,0,0,1-15.49-3.72ZM115.23,120C103.92,132.31,92.06,138.57,80,138.57S56.08,132.31,44.77,120a8,8,0,1,1,11.79-10.8c16.32,17.79,30.56,17.79,46.88,0A8,8,0,1,1,115.23,120ZM121,63.83a7.37,7.37,0,0,1-1,.07,8,8,0,0,1-7.52-5.31,3.54,3.54,0,0,0-.92,0,8,8,0,0,1-15.46-3.73C97,47.63,103.57,42.55,112,42.55S127,47.61,128,54.86A8,8,0,0,1,121,63.83Z"/><path class="fill-secondary" d="M199.44,200c-16.32-17.79-30.56-17.79-46.88,0a8,8,0,0,1-11.79-10.8c22.61-24.67,47.84-24.67,70.46,0A8,8,0,0,1,199.44,200Z"/></g></g></svg>