<svg xmlns="http://www.w3.org/2000/svg" viewBox="0 0 152.88 256"><g><g><path class="fill-primary" d="M132.91,110.53l19-73.84A29.28,29.28,0,0,0,123.6,0H108.45V96.61a89.88,89.88,0,0,1,24.46,13.92Z"/><path class="fill-primary" d="M76.45,90.67a90.68,90.68,0,0,1,16,1.51V0h-32V92.16A90.68,90.68,0,0,1,76.45,90.67Z"/><path class="fill-primary" d="M20,110.5A90.15,90.15,0,0,1,44.45,96.61V0H29.3A29.25,29.25,0,0,0,1,36.66Z"/><path class="fill-secondary" d="M76.45,106.67a74.67,74.67,0,1,0,74.67,74.66A74.75,74.75,0,0,0,76.45,106.67Zm0,112a37.34,37.34,0,1,1,37.33-37.34A37.38,37.38,0,0,1,76.45,218.67Z"/></g></g></svg>