<svg xmlns="http://www.w3.org/2000/svg" viewBox="0 0 256.02 256.02"><g id="Layer_2" data-name="Layer 2"><g id="bold"><path class="fill-secondary" d="M170.67,234.69H149.34V213.36H106.67v21.33H85.34a10.67,10.67,0,0,0,0,21.33h85.33a10.67,10.67,0,1,0,0-21.33Z"/><path class="fill-primary" d="M237.33,42.69h-57.6a74.11,74.11,0,0,1,1.6,15.36v6h53.33V192H21.33V64H74.66v-6a73.43,73.43,0,0,1,1.6-15.36H18.66A18.74,18.74,0,0,0,0,61.34V194.67a18.76,18.76,0,0,0,18.67,18.67H237.34A18.77,18.77,0,0,0,256,194.67V61.34A18.77,18.77,0,0,0,237.33,42.69Z"/><path class="fill-secondary" d="M176,138.58H80a5.33,5.33,0,0,1-5.33-5.33v-12.5a26.5,26.5,0,0,1,7.81-18.86L96,88.35V58a59,59,0,0,1,12.16-35.77L123.76,2a5.52,5.52,0,0,1,8.46,0l15.6,20.29A59,59,0,0,1,160,58V88.35l13.52,13.52a26.49,26.49,0,0,1,7.81,18.87v12.49A5.32,5.32,0,0,1,176,138.58Z"/><path class="fill-secondary" d="M154.67,159.9A10.67,10.67,0,0,1,144,149.23v-16a10.67,10.67,0,0,1,21.34,0v16A10.68,10.68,0,0,1,154.67,159.9Z"/><path class="fill-secondary" d="M101.33,159.9a10.67,10.67,0,0,1-10.67-10.67v-16a10.67,10.67,0,0,1,21.34,0v16A10.67,10.67,0,0,1,101.33,159.9Z"/></g></g></svg>