<svg xmlns="http://www.w3.org/2000/svg" viewBox="0 0 258.67 256"><g id="Layer_2" data-name="Layer 2"><g id="Bold"><path class="fill-secondary" d="M248,234.67H40a18.67,18.67,0,0,1,0-37.34h64a40,40,0,0,0,0-80H58.67a10.67,10.67,0,0,0,0,21.34H104A18.67,18.67,0,1,1,104,176H40a40,40,0,0,0,0,80H248C253.89,256,253.89,234.67,248,234.67Z"/><path class="fill-primary" d="M56,0C26.59,0,2.67,24.22,2.67,54c0,41.09,46.16,81.06,48.13,82.75a8,8,0,0,0,10.4,0c2-1.68,48.13-41.65,48.13-82.75C109.33,24.22,85.41,0,56,0Zm0,74.67A21.34,21.34,0,1,1,77.33,53.33,21.36,21.36,0,0,1,56,74.67Z"/><path class="fill-primary" d="M237.33,245.33a10.67,10.67,0,0,0,21.34,0V202.66H237.34v42.67Z"/><path class="fill-primary" d="M170.66,192a8,8,0,0,1-6.47-12.7l17.91-24.63-17.91-24.62a8,8,0,0,1,6.47-12.71h88V192Z"/></g></g></svg>