<svg xmlns="http://www.w3.org/2000/svg" viewBox="0 0 256 256"><g id="Layer_2" data-name="Layer 2"><g id="bold"><path class="fill-secondary" d="M61.33,173v-25.3a21.33,21.33,0,1,0-16,0V176a8.14,8.14,0,0,0,1.92,5.22L77.33,216.3V248a8,8,0,0,0,16,0V213.33a8.12,8.12,0,0,0-1.92-5.22Z"/><path class="fill-secondary" d="M128,106.67a21.31,21.31,0,0,0-8,41.07V248a8,8,0,0,0,16,0V147.74a21.31,21.31,0,0,0-8-41.07Z"/><path class="fill-secondary" d="M224,128a21.33,21.33,0,1,0-29.33,19.74V173l-30.08,35.09a8,8,0,0,0-1.92,5.21V248a8,8,0,0,0,16,0V216.29l30.08-35.09a8,8,0,0,0,1.92-5.22V147.73A21.29,21.29,0,0,0,224,128Z"/><path class="fill-primary" d="M224,0H32A32.09,32.09,0,0,0,0,32V202.67a32.09,32.09,0,0,0,32,32H56V224.22l-9.28-10.88H32a10.7,10.7,0,0,1-10.67-10.67V53.34H234.67V202.67A10.7,10.7,0,0,1,224,213.34H209.28L200,224.22v10.45h24a32.09,32.09,0,0,0,32-32V32A32.09,32.09,0,0,0,224,0Z"/></g></g></svg>