<svg xmlns="http://www.w3.org/2000/svg" viewBox="0 0 226.67 255.98"><g><g><path class="fill-secondary" d="M48,58.67H10.67a10.67,10.67,0,0,1,0-21.34H48a10.67,10.67,0,0,1,0,21.34Z"/><path class="fill-secondary" d="M48,112H10.67a10.67,10.67,0,1,1,0-21.34H48A10.67,10.67,0,0,1,48,112Z"/><path class="fill-secondary" d="M48,165.33H10.67a10.67,10.67,0,1,1,0-21.33H48a10.67,10.67,0,0,1,0,21.33Z"/><path class="fill-secondary" d="M48,218.67H10.67a10.67,10.67,0,1,1,0-21.34H48a10.67,10.67,0,0,1,0,21.34Z"/><path class="fill-primary" d="M197.34,0h-144A29.35,29.35,0,0,0,24,29.33V226.66A29.35,29.35,0,0,0,53.34,256h144a29.35,29.35,0,0,0,29.33-29.32V29.33A29.35,29.35,0,0,0,197.34,0ZM88,53.33h42.67a10.67,10.67,0,1,1,0,21.34H88a10.67,10.67,0,1,1,0-21.34Zm96,149.34H88a10.67,10.67,0,1,1,0-21.34h96a10.67,10.67,0,1,1,0,21.34ZM184,160H88a10.67,10.67,0,1,1,0-21.34h96A10.67,10.67,0,0,1,184,160Zm0-42.67H88A10.67,10.67,0,1,1,88,96h96a10.67,10.67,0,1,1,0,21.33Z"/></g></g></svg>