<svg xmlns="http://www.w3.org/2000/svg" viewBox="0 0 226.67 227.75"><path class="fill-secondary" d="M215.33,206.4h-204C5.08,206.4,0,211.18,0,217.07s5.08,10.68,11.34,10.68h204c6.26,0,11.34-4.79,11.34-10.68S221.59,206.4,215.33,206.4Z"/><path class="fill-primary" d="M89.92,195.71a31.26,31.26,0,0,0,22.18-9.17L192.61,106a10.68,10.68,0,0,0,0-15.09L104.77,3.12a10.68,10.68,0,0,0-15.09,0L9.17,83.63a31.39,31.39,0,0,0,0,44.35l58.56,58.56A31.28,31.28,0,0,0,89.92,195.71Zm7.31-170L170,98.48l-1.24,1.23H23.6a8.42,8.42,0,0,1,.67-1Z"/><path class="fill-primary" d="M173.33,168.16c0,15.2,12,27.55,26.67,27.55s26.67-12.37,26.67-27.55c0-12.24-15.3-36.4-20-43.5-3-4.5-10.4-4.5-13.36,0C188.62,131.76,173.33,155.92,173.33,168.16Z"/></svg>