<svg xmlns="http://www.w3.org/2000/svg" viewBox="0 0 256 234.72"><g id="Layer_2" data-name="Layer 2"><g id="bold"><path class="fill-primary" d="M5.25,106.72A5.34,5.34,0,0,0,0,112.05v98.64a2.68,2.68,0,0,0,2.67,2.67H28a5.33,5.33,0,0,0,5.13-3.87L56.7,126.3a10.66,10.66,0,0,0-6.6-12.92c-9.67-3.52-24.5-7-44.85-6.66Z"/><path class="fill-primary" d="M234.67,165.36c-21.33,0-64,27-85.33,27S104,176,104,176s28.74,5.33,45.33,5.33,21.33-5.66,21.33-13.33c0-18.67-31.72-21.57-47.75-24-15.74-8.77-23.92-15.69-50-17.9a28.85,28.85,0,0,1-.81,4.54L50.67,206.19c24.27,11,66.05,28.53,88,28.53,32,0,117.32-42.67,117.32-53.33s-10.65-16-21.31-16Z"/><path class="fill-secondary" d="M250.75,128a5.34,5.34,0,0,0,5.25-5.33V24a2.68,2.68,0,0,0-2.67-2.67H228a5.33,5.33,0,0,0-5.13,3.87l-23.6,83.19a10.66,10.66,0,0,0,6.6,12.92C215.57,124.86,230.4,128.35,250.75,128Z"/><path class="fill-secondary" d="M21.33,69.36c21.33,0,64-27,85.33-27S152,58.69,152,58.69s-28.72-5.33-45.31-5.33S85.34,59,85.34,66.69c0,18.67,31.72,21.57,47.75,24,15.74,8.77,23.92,15.69,50,17.9a28.85,28.85,0,0,1,.81-4.54l21.43-75.52C181.06,17.49,139.28,0,117.34,0,85.33,0,0,42.69,0,53.36s10.67,16,21.33,16Z"/></g></g></svg>