<svg xmlns="http://www.w3.org/2000/svg" viewBox="0 0 256 256"><g id="Layer_2" data-name="Layer 2"><g id="bold"><path class="fill-primary" d="M162.62,162.53l17.14-27.87a10.65,10.65,0,0,0,.8-9.6L137.89,20a10.68,10.68,0,0,0-19.78,0L75.44,125.06a10.71,10.71,0,0,0,.8,9.6l17.14,27.87a18.56,18.56,0,0,0-9.2,13.68L74.74,247a7.94,7.94,0,0,0,7.93,9h90.67a8,8,0,0,0,7.92-9.07l-9.44-70.74a18.56,18.56,0,0,0-9.2-13.66ZM117.33,78.62v28.05a10.67,10.67,0,1,0,21.34,0v-28l20.08,49.46L139.14,160H116.85L97.23,128.08Z"/><path class="fill-secondary" d="M248,0H221.33a8,8,0,0,0-8,8v2.67H42.66V8a8,8,0,0,0-8-8H8A8,8,0,0,0,0,8V34.67a8,8,0,0,0,8,8H34.67a8,8,0,0,0,8-8V32H62.51a111.78,111.78,0,0,0-46.38,88.24,21.32,21.32,0,1,0,21.33.13,90.58,90.58,0,0,1,181.1,0,21.33,21.33,0,1,0,21.33-.13A111.84,111.84,0,0,0,193.5,32h19.84v2.67a8,8,0,0,0,8,8H248a8,8,0,0,0,8-8V8a8,8,0,0,0-8-8Z"/></g></g></svg>