<svg xmlns="http://www.w3.org/2000/svg" viewBox="0 0 256 255.84"><g><g><path class="fill-secondary" d="M10.67,255.84a10.68,10.68,0,0,1-7.54-18.23l86.08-86a10.67,10.67,0,1,1,15.08,15.1l-86.08,86A10.61,10.61,0,0,1,10.67,255.84Z"/><path class="fill-primary" d="M250.54,80.72,175.12,5.29a19.12,19.12,0,0,0-26.4,0L138.3,15.71a27.18,27.18,0,0,0-6.61,27.93A11.25,11.25,0,0,1,129,55.21L98.38,85.79A13.3,13.3,0,0,1,89,89.69H76.46a29.11,29.11,0,0,0-20.73,8.59l-5.06,5.06a18.66,18.66,0,0,0,0,26.4l75.42,75.42a18.64,18.64,0,0,0,26.4,0l5.06-5.07a29.12,29.12,0,0,0,8.59-20.73v-12.5a13.43,13.43,0,0,1,3.91-9.42l30.57-30.58a11.24,11.24,0,0,1,11.57-2.74,27.14,27.14,0,0,0,27.92-6.6l10.42-10.42a18.65,18.65,0,0,0,0-26.38Z"/></g></g></svg>