<svg xmlns="http://www.w3.org/2000/svg" viewBox="0 0 256.01 255.99"><g id="Layer_2" data-name="Layer 2"><g id="Layer_1-2" data-name="Layer 1"><g id="bold"><path class="fill-primary" d="M79.28,256c-.48,0-.94,0-1.42-.05a18.3,18.3,0,0,1-13.41-7.47L42.13,217.88a9.1,9.1,0,0,0-1.9-1.92L7.49,191.83A18.39,18.39,0,0,1,5.38,164a19.11,19.11,0,0,1,21.3-4l24.8,10.83,50.44-54.35a3.23,3.23,0,0,0-.72-5L14.42,65.59A19.23,19.23,0,0,1,10.37,35.3a16.79,16.79,0,0,1,15.68-4.59L152.88,57.58a3.33,3.33,0,0,0,3.11-.93L201.48,8.33C206.34,3.18,214.53.15,224,0c9.65-.18,18.74,2.89,23.94,8.11s8.24,14.18,8.09,24c-.12,9.44-3.16,17.63-8.3,22.48h0l-48.44,45.67a3.26,3.26,0,0,0-1,3.13l29.18,128.31a16.9,16.9,0,0,1-4.56,15.93,19.21,19.21,0,0,1-30-3.52L144.4,154.38a3,3,0,0,0-2.09-1.12,3.15,3.15,0,0,0-2.61.83L85.46,204.5l10.83,24.82a19.13,19.13,0,0,1-4,21.3,18.46,18.46,0,0,1-13,5.37ZM242.2,48.73h0Z"/></g></g></g></svg>