<svg xmlns="http://www.w3.org/2000/svg" viewBox="0 0 256 256"><g><g><path class="fill-secondary" d="M181.33,0H74.66a32,32,0,0,0-32,32V74.67a10.67,10.67,0,0,0,21.34,0V32A10.67,10.67,0,0,1,74.67,21.33H182.4a9.6,9.6,0,0,1,9.6,9.6V74.66a10.67,10.67,0,0,0,21.34,0V32A32,32,0,0,0,181.33,0Z"/><path class="fill-primary" d="M226.67,64H29.33A29.32,29.32,0,0,0,0,93.33v69.33A29.32,29.32,0,0,0,29.33,192H64V160H192v32h34.67A29.32,29.32,0,0,0,256,162.67V93.34A29.32,29.32,0,0,0,226.67,64Z"/><path class="fill-secondary" d="M202.66,138.66H53.33a10.66,10.66,0,0,0-10.67,10.67V224a32,32,0,0,0,32,32H181.33a32,32,0,0,0,32-32V149.33A10.68,10.68,0,0,0,202.66,138.66Zm-40,85.34H93.34a8,8,0,0,1,0-16h69.33a8,8,0,0,1,0,16Zm0-32H93.34a8,8,0,0,1,0-16h69.33a8,8,0,0,1,0,16Z"/></g></g></svg>