<svg xmlns="http://www.w3.org/2000/svg" viewBox="0 0 256 256"><g><g><path class="fill-secondary" d="M216,101.33H82.67a8.06,8.06,0,0,0-8,8v75.2a41.94,41.94,0,0,1,20.91,18.13H216a8.07,8.07,0,0,0,8-8V109.33A8.06,8.06,0,0,0,216,101.33Zm-21.33,69.34h-32a8,8,0,0,1,0-16h32a8,8,0,0,1,0,16Z"/><path class="fill-secondary" d="M173.33,0H82.66a8,8,0,0,0-8,8V82.67a8,8,0,0,0,8,8h90.67a8,8,0,0,0,8-8V8A8,8,0,0,0,173.33,0ZM152,74.67H130.67a8,8,0,1,1,0-16H152a8,8,0,0,1,0,16Z"/><path class="fill-primary" d="M252.43,237.38,238.1,224.59a31.8,31.8,0,0,0-24.35-11.25H88.7A31.94,31.94,0,0,0,64,192.51V21.76A21.38,21.38,0,0,0,42.91.43L10.82,0h-.15a10.67,10.67,0,0,0-.16,21.33l32.15.43V196.42a31.91,31.91,0,1,0,46,38.25H213.75a10.63,10.63,0,0,1,8.33,4A11.38,11.38,0,0,0,223.3,240l14.93,13.33a10.69,10.69,0,0,0,7.1,2.7,10.67,10.67,0,0,0,7.1-18.62Z"/></g></g></svg>