<svg xmlns="http://www.w3.org/2000/svg" viewBox="0 0 256 256"><g><g><path class="fill-primary" d="M184,0H29.33A29.35,29.35,0,0,0,0,29.33V66.66A29.36,29.36,0,0,0,29.33,96H184a29.35,29.35,0,0,0,29.33-29.33V29.34A29.36,29.36,0,0,0,184,0Z"/><path class="fill-secondary" d="M229.33,37.33h-16V58.66h16A5.33,5.33,0,0,1,234.66,64v48a5.33,5.33,0,0,1-5.33,5.33H122.66a32,32,0,0,0-32,32V160H112V149.33a10.69,10.69,0,0,1,10.67-10.67H229.34A26.68,26.68,0,0,0,256,112V64A26.69,26.69,0,0,0,229.33,37.33Z"/><path class="fill-primary" d="M120,160H82.67A18.68,18.68,0,0,0,64,178.67v58.67A18.68,18.68,0,0,0,82.67,256H120a18.69,18.69,0,0,0,18.67-18.67V178.66A18.69,18.69,0,0,0,120,160Z"/></g></g></svg>