<svg xmlns="http://www.w3.org/2000/svg" viewBox="0 0 256.01 256"><g><g><path class="fill-secondary" d="M128,106.67a128.15,128.15,0,0,0-128,128A21.36,21.36,0,0,0,21.34,256H234.66A21.36,21.36,0,0,0,256,234.67C256,164.1,198.58,106.67,128,106.67ZM128,224a42.67,42.67,0,1,1,42.67-42.67A42.71,42.71,0,0,1,128,224Z"/><path class="fill-primary" d="M33.45,117.34a22.89,22.89,0,0,1-12.56-3.69,50.7,50.7,0,0,1-6.61-5.12A43.84,43.84,0,0,1,.74,68.3C5.45,43.31,33.27,27.06,53.8,17A169.32,169.32,0,0,1,128,0c34.77,0,69.86,10.62,96.26,29.14,11.95,8.4,26.22,20.11,30.4,36.41a44,44,0,0,1-12.93,43,49.9,49.9,0,0,1-6.49,5,23.84,23.84,0,0,1-26.87-.76L171.1,86.18c-8.32-5.94-11.64-16.42-8.08-25.52.19-.53.41-1,.64-1.56a113,113,0,0,0-71.33,0L93,60.64c3.57,9.1.22,19.6-8.08,25.52l-37.3,26.61a24.15,24.15,0,0,1-14.14,4.57Z"/></g></g></svg>