<svg xmlns="http://www.w3.org/2000/svg" viewBox="0 0 256 256"><g id="Layer_2" data-name="Layer 2"><g id="bold"><path class="fill-secondary" d="M186.58,19.47l-56-19a8,8,0,0,0-5.16,0l-56,19A8,8,0,0,0,64,27.06V69.92c0,52.32,58.38,77.73,60.88,78.8a8.1,8.1,0,0,0,3.12.64,7.85,7.85,0,0,0,3.12-.64c2.5-1.07,60.88-26.5,60.88-78.82V27.06a8,8,0,0,0-5.42-7.59ZM163.06,59.92,133.73,97.25a10.67,10.67,0,0,1-7.35,4c-.33,0-.7,0-1,0a10.7,10.7,0,0,1-6.94-2.56l-18.67-16A10.66,10.66,0,0,1,113.6,66.58l10.22,8.75,22.47-28.58a10.66,10.66,0,0,1,16.77,13.17Z"/><path class="fill-primary" d="M237.34,42.67h-24V64h21.33V181.33H21.33V64H42.66V42.67h-24A18.74,18.74,0,0,0,0,61.33v144A18.75,18.75,0,0,0,18.66,224h81.69c-1.25,5.34-4.57,14-13.45,22.9a5.33,5.33,0,0,0,3.77,9.1h74.67a5.34,5.34,0,0,0,3.78-9.1c-8.86-8.87-12.27-17.54-13.6-22.9h81.82A18.75,18.75,0,0,0,256,205.33v-144A18.74,18.74,0,0,0,237.34,42.67Z"/></g></g></svg>