<svg xmlns="http://www.w3.org/2000/svg" viewBox="0 0 256.02 213.34"><g><g><path class="fill-secondary" d="M162.66,106.34a8,8,0,0,1-6.06-13.2l11.54-13.47L156.6,66.22A8,8,0,1,1,168.74,55.8l16,18.67a8,8,0,0,1,0,10.42l-16,18.67A8,8,0,0,1,162.66,106.34Z"/><path class="fill-secondary" d="M93.35,106.34a8,8,0,0,1-6.08-2.78l-16-18.67a8,8,0,0,1,0-10.42l16-18.67A8,8,0,0,1,99.42,66.22L87.88,79.67,99.42,93.13a8,8,0,0,1-6.07,13.21Z"/><path class="fill-secondary" d="M118.22,122.14a8,8,0,0,1-6-9.6l16-69.33a8,8,0,1,1,15.6,3.6l-16,69.33a8,8,0,0,1-9.6,6Z"/><path class="fill-primary" d="M237.33,0H18.67A18.76,18.76,0,0,0,0,18.67v144a18.76,18.76,0,0,0,18.67,18.67h81.68c-1.25,5.35-4.57,14-13.45,22.9a5.33,5.33,0,0,0,3.77,9.1h74.67a5.33,5.33,0,0,0,3.78-9.1c-8.86-8.86-12.27-17.54-13.6-22.9h81.82A18.77,18.77,0,0,0,256,162.67v-144A18.79,18.79,0,0,0,237.33,0Zm-2.66,138.67H21.33V21.34H234.66V138.67Z"/></g></g></svg>