<svg xmlns="http://www.w3.org/2000/svg" viewBox="0 0 256 234.67"><path class="fill-secondary" d="M117.15,74.85a53.33,53.33,0,1,0,53.33,53.33,53.39,53.39,0,0,0-53.33-53.33Zm0,85.33a32,32,0,1,1,32-32,32,32,0,0,1-32,32Z"/><path class="fill-secondary" d="M149.7,149.68a10.61,10.61,0,0,1,7.53,3.12l31.65,31.65a10.67,10.67,0,0,1-15.09,15.09l-31.65-31.65a10.67,10.67,0,0,1,7.56-18.21Z"/><path class="fill-primary" d="M224,0H32A32,32,0,0,0,0,32V202.67a32,32,0,0,0,32,32H224a32,32,0,0,0,32-32V32A32,32,0,0,0,224,0Zm0,213.33H32a10.68,10.68,0,0,1-10.67-10.67V53.33H234.66V202.66A10.67,10.67,0,0,1,224,213.33Z"/></svg>