<svg xmlns="http://www.w3.org/2000/svg" viewBox="0 0 256 256"><g><g><path class="fill-primary" d="M181.33,93.33a18.69,18.69,0,0,0-18.67-18.67h-144A18.7,18.7,0,0,0,0,93.33v144A18.68,18.68,0,0,0,18.67,256h144a18.69,18.69,0,0,0,18.67-18.67v-144Z"/><path class="fill-secondary" d="M245.34,53.33a10.69,10.69,0,0,1-10.67-10.67V32A10.67,10.67,0,0,0,224,21.33H213.33a10.67,10.67,0,1,1,0-21.33H224a32,32,0,0,1,32,32V42.67A10.66,10.66,0,0,1,245.34,53.33Z"/><path class="fill-secondary" d="M53.34,53.33A10.69,10.69,0,0,1,42.67,42.66V32a32,32,0,0,1,32-32H85.34a10.67,10.67,0,0,1,0,21.34H74.66A10.66,10.66,0,0,0,64,32V42.67A10.66,10.66,0,0,1,53.34,53.33Z"/><path class="fill-secondary" d="M170.67,21.33H128A10.67,10.67,0,1,1,128,0h42.67a10.67,10.67,0,1,1,0,21.33Z"/><path class="fill-secondary" d="M224,213.33H213.33a10.67,10.67,0,1,1,0-21.33H224a10.67,10.67,0,0,0,10.67-10.67V170.66a10.67,10.67,0,1,1,21.33,0v10.67A32,32,0,0,1,224,213.33Z"/><path class="fill-secondary" d="M245.34,138.67A10.68,10.68,0,0,1,234.67,128V85.33a10.67,10.67,0,1,1,21.33,0V128A10.67,10.67,0,0,1,245.34,138.67Z"/></g></g></svg>