<svg xmlns="http://www.w3.org/2000/svg" viewBox="0 0 256 256"><g><g><path class="fill-primary" d="M194.67,48h-5.33a2.68,2.68,0,0,0-2.67,2.67V77.34A2.68,2.68,0,0,0,189.34,80h5.33a2.68,2.68,0,0,0,2.67-2.68V50.67A2.69,2.69,0,0,0,194.67,48Z"/><path class="fill-primary" d="M226.67,0H29.33A29.32,29.32,0,0,0,0,29.33V98.66a29.28,29.28,0,0,0,17.6,26.88,41.68,41.68,0,0,1,25.07-8.21A42.44,42.44,0,0,1,70.83,128H82A53,53,0,0,1,174,128h11.2a42.49,42.49,0,0,1,28.16-10.67,41.81,41.81,0,0,1,25.07,8.21A29.28,29.28,0,0,0,256,98.66V29.33A29.32,29.32,0,0,0,226.67,0ZM61.76,56h4.48c10.56,0,19.09,9,19.09,20S76.8,96,66.24,96H50.67a8,8,0,0,1,0-16H66.24c1.71,0,3.09-1.81,3.09-4s-1.39-4-3.09-4H61.76c-10.56,0-19.09-9-19.09-20S51.2,32,61.76,32H77.33a8,8,0,0,1,0,16H61.76c-1.71,0-3.09,1.81-3.09,4S60.05,56,61.76,56Zm79.57,0a8,8,0,0,1,0,16H122.66v5.33A2.64,2.64,0,0,0,125.33,80h16a8,8,0,0,1,0,16h-16a18.76,18.76,0,0,1-18.67-18.67V50.66A18.77,18.77,0,0,1,125.33,32h16a8,8,0,1,1,0,16h-16a2.65,2.65,0,0,0-2.67,2.68V56Zm72,21.33A18.76,18.76,0,0,1,194.66,96h-5.33a18.76,18.76,0,0,1-18.67-18.67V50.66A18.77,18.77,0,0,1,189.33,32h5.33a18.77,18.77,0,0,1,18.67,18.68Z"/><circle class="fill-secondary" cx="42.67" cy="160" r="21.33"/><path class="fill-secondary" d="M71.15,196.27A44.71,44.71,0,0,0,53.34,232v2.67H8a8.06,8.06,0,0,1-8-8v-5.33A29.32,29.32,0,0,1,29.33,192H56a29.13,29.13,0,0,1,15.15,4.27Z"/><circle class="fill-secondary" cx="213.33" cy="160" r="21.33"/><path class="fill-secondary" d="M256,221.33v5.33a8.07,8.07,0,0,1-8,8H202.67V232a44.69,44.69,0,0,0-17.81-35.73A29.07,29.07,0,0,1,200,192h26.67A29.32,29.32,0,0,1,256,221.33Z"/><circle class="fill-secondary" cx="128" cy="154.67" r="32"/><path class="fill-secondary" d="M157.33,202.67H98.66A29.35,29.35,0,0,0,69.33,232v16a8,8,0,0,0,8,8H178.66a8,8,0,0,0,8-8V232A29.35,29.35,0,0,0,157.33,202.67Z"/></g></g></svg>