<svg xmlns="http://www.w3.org/2000/svg" viewBox="0 0 213.34 256"><g><g><path class="fill-primary" d="M106.67,22.22,192,53.81v76.06c0,71.62-68.77,98.71-85.33,104.19-16.75-5.55-85.34-32.65-85.34-104.19V53.81Zm0-22.22a7.81,7.81,0,0,0-2.78.5L5.22,37A8,8,0,0,0,0,44.53v85.34C0,227,103.57,255.47,104.62,255.74a8,8,0,0,0,2,.26,8.36,8.36,0,0,0,2-.27c1.06-.27,104.62-28.79,104.62-125.87V44.51a8,8,0,0,0-5.21-7.5L109.46.48A8.31,8.31,0,0,0,106.67,0Z"/><path class="fill-secondary" d="M51.12,109.33h4.43c10.55,0,19.12,9,19.12,20s-8.57,20-19.12,20H40a8,8,0,0,1,0-16H55.55c1.68,0,3.12-1.84,3.12-4s-1.42-4-3.12-4H51.12c-10.54,0-19.12-9-19.12-20s8.58-20,19.12-20H66.67a8,8,0,0,1,0,16H51.12c-1.68,0-3.12,1.84-3.12,4S49.44,109.33,51.12,109.33Z"/><path class="fill-secondary" d="M120,109.33a8,8,0,0,1,0,16H101.33v5.33a2.68,2.68,0,0,0,2.67,2.67h16a8,8,0,1,1,0,16H104a18.69,18.69,0,0,1-18.67-18.67V104A18.69,18.69,0,0,1,104,85.33h16a8,8,0,0,1,0,16H104a2.68,2.68,0,0,0-2.67,2.67v5.33Z"/><path class="fill-secondary" d="M162.67,85.33h-5.33A18.69,18.69,0,0,0,138.67,104v26.67a18.69,18.69,0,0,0,18.67,18.67h5.33a18.68,18.68,0,0,0,18.67-18.67V104A18.7,18.7,0,0,0,162.67,85.33Zm2.67,45.34a2.68,2.68,0,0,1-2.67,2.67h-5.33a2.68,2.68,0,0,1-2.67-2.67V104a2.68,2.68,0,0,1,2.67-2.67h5.33a2.68,2.68,0,0,1,2.67,2.67Z"/></g></g></svg>