<svg xmlns="http://www.w3.org/2000/svg" viewBox="0 0 256 256"><path class="fill-secondary" d="M250.58,126.14l-56-19a8,8,0,0,0-5.16,0l-56,19a8,8,0,0,0-5.42,7.57v42.87c0,52.32,58.38,77.72,60.88,78.8A8.19,8.19,0,0,0,192,256a7.85,7.85,0,0,0,3.12-.64c2.5-1.06,60.88-26.48,60.88-78.78V133.71a8,8,0,0,0-5.42-7.57Zm-23.52,40.45-29.33,37.33a10.66,10.66,0,0,1-15.33,1.5l-18.67-16a10.66,10.66,0,0,1,13.87-16.19L187.82,182l22.47-28.57a10.66,10.66,0,0,1,16.77,13.18Z"/><path class="fill-primary" d="M202.67,0H32a32,32,0,0,0,0,64H202.67a32,32,0,0,0,0-64ZM32,42.67A10.67,10.67,0,1,1,42.67,32,10.67,10.67,0,0,1,32,42.67Zm42.67,0A10.67,10.67,0,1,1,85.34,32,10.67,10.67,0,0,1,74.67,42.67Z"/><path class="fill-primary" d="M32,85.33a32,32,0,0,0,0,64h74.67V133.76a29.38,29.38,0,0,1,20-27.84l55.89-19a29,29,0,0,1,9.49-1.6ZM32,128a10.67,10.67,0,1,1,10.67-10.67A10.7,10.7,0,0,1,32,128Zm42.67,0a10.67,10.67,0,1,1,10.67-10.67A10.7,10.7,0,0,1,74.67,128Z"/><path class="fill-primary" d="M106.67,176.53v-5.87H32a32,32,0,0,0,0,64h95.68C115.41,219.09,106.67,199.57,106.67,176.53ZM32,213.33a10.67,10.67,0,1,1,10.67-10.66A10.7,10.7,0,0,1,32,213.33Zm42.67,0a10.67,10.67,0,1,1,10.67-10.66A10.7,10.7,0,0,1,74.67,213.33Z"/></svg>