<svg xmlns="http://www.w3.org/2000/svg" viewBox="0 0 256 213.34"><g><g><path class="fill-secondary" d="M177.81,73.28c.11-1.28.21-2.56.21-4s-.12-2.67-.21-4l8.85-6.52a13.19,13.19,0,0,0,3.63-17.07L182.4,27.71a12.76,12.76,0,0,0-16.64-5.44L156,26.86a51.33,51.33,0,0,0-6.08-3.63L148.8,11.84A13,13,0,0,0,135.89,0H120.1a13,13,0,0,0-12.92,11.84l-1.07,11.41A51.33,51.33,0,0,0,100,26.88l-9.81-4.59a12.86,12.86,0,0,0-16.64,5.44L65.7,41.81a13.12,13.12,0,0,0,3.63,17.07l8.85,6.51c-.12,1.28-.21,2.56-.21,4s.11,2.68.21,4l-8.85,6.51a13.12,13.12,0,0,0-3.62,17l7.89,14.08a12.84,12.84,0,0,0,16.64,5.44l9.81-4.59a51.33,51.33,0,0,0,6.08,3.63l1.07,11.41a13,13,0,0,0,12.91,11.84H135.9a13,13,0,0,0,12.92-11.84l1.07-11.41a51.33,51.33,0,0,0,6.08-3.63l9.81,4.59a12.76,12.76,0,0,0,16.64-5.44l7.88-14.08a13.12,13.12,0,0,0-3.63-17.07Zm-23.14-3.94A26.67,26.67,0,1,1,128,42.67,26.69,26.69,0,0,1,154.67,69.34Z"/><path class="fill-primary" d="M224,149.34H32a32,32,0,0,0,0,64H224a32,32,0,0,0,0-64ZM42.67,192a10.67,10.67,0,1,1,10.67-10.66A10.67,10.67,0,0,1,42.67,192ZM96,192a10.67,10.67,0,1,1,10.67-10.66A10.67,10.67,0,0,1,96,192Zm64,0a10.67,10.67,0,1,1,10.67-10.66A10.67,10.67,0,0,1,160,192Zm53.33,0A10.67,10.67,0,1,1,224,181.34,10.67,10.67,0,0,1,213.33,192Z"/></g></g></svg>