<svg xmlns="http://www.w3.org/2000/svg" viewBox="0 0 255.98 245.34"><g id="Layer_2" data-name="Layer 2"><g id="bold"><path class="fill-secondary" d="M219.1,108.48v7.68A11.89,11.89,0,0,1,207.15,128H187.52c-5.76,0-12-4.27-12-13.76v-5.76Z"/><path class="fill-secondary" d="M245.34,47.68a47.26,47.26,0,0,1-17.6,36.91,22.89,22.89,0,0,0-8.32,13.23H175.36a20,20,0,0,0-7.79-12.69,47.13,47.13,0,0,1-18.24-38.4C149.86,21.34,171.09.33,196.58,0a47.34,47.34,0,0,1,34.56,13.88,46.83,46.83,0,0,1,14.2,33.79Z"/><path class="fill-primary" d="M5.25,117.34A5.34,5.34,0,0,0,0,122.67v98.64A2.68,2.68,0,0,0,2.67,224H28a5.33,5.33,0,0,0,5.13-3.87l23.6-83.18A10.66,10.66,0,0,0,50.1,124c-9.67-3.52-24.5-7-44.85-6.66Z"/><path class="fill-primary" d="M234.67,176c-21.33,0-64,27-85.33,27S104,186.65,104,186.65,132.74,192,149.33,192s21.33-5.66,21.33-13.33c0-18.67-31.72-21.56-47.75-24-15.74-8.76-23.92-15.69-50-17.9a28.85,28.85,0,0,1-.81,4.54L50.67,216.81c24.27,11,66.05,28.53,88,28.53,32,0,117.32-42.67,117.32-53.33S245.33,176,234.67,176Z"/></g></g></svg>