<svg xmlns="http://www.w3.org/2000/svg" viewBox="0 0 256 202.66"><g><g><path class="fill-primary" d="M235.33,170.66h-13a10.68,10.68,0,1,1,0-21.35h12.33V115L204.72,74.35l-34.05.29v74.69H176a10.67,10.67,0,1,1,0,21.33H160A10.68,10.68,0,0,1,149.33,160V73.58A20.49,20.49,0,0,1,170,53.31h35.12a20.88,20.88,0,0,1,16.82,8.47l30.19,41.44A19.87,19.87,0,0,1,256,115V150.4a20.48,20.48,0,0,1-20.67,20.26Z"/><path class="fill-primary" d="M160,170.66H89.81a10.68,10.68,0,0,1,0-21.35h59.52V20.59l-128.71.74.71,128.72L41,149.33a10.67,10.67,0,1,1,0,21.34H20.62A20.66,20.66,0,0,1,0,150.05V20.62A20.64,20.64,0,0,1,20.62,0H150.05a20.64,20.64,0,0,1,20.62,20.62V160A10.67,10.67,0,0,1,160,170.66Z"/><path class="fill-primary" d="M200,202.66a32,32,0,1,1,32-32A32,32,0,0,1,200,202.66Z"/><path class="fill-primary" d="M64,202.66a32,32,0,1,1,32-32A32,32,0,0,1,64,202.66Z"/><path class="fill-secondary" d="M41.47,89.33A9.29,9.29,0,0,1,36,87.52,9.84,9.84,0,0,1,33.76,74L57.47,40.06a9.35,9.35,0,0,1,13.22-2.25A9.85,9.85,0,0,1,72.9,51.33L49.18,85.26A9.35,9.35,0,0,1,41.47,89.33Z"/><path class="fill-secondary" d="M105.47,121.33a9.29,9.29,0,0,1-5.5-1.81A9.86,9.86,0,0,1,97.76,106l23.71-33.93a9.36,9.36,0,0,1,13.22-2.26,9.87,9.87,0,0,1,2.21,13.54l-23.72,33.93a9.35,9.35,0,0,1-7.71,4.07Z"/><path class="fill-secondary" d="M63.17,121.33a9.65,9.65,0,0,1-5.6-1.79,10.17,10.17,0,0,1-2.5-14L99.38,40.32a9.7,9.7,0,0,1,13.69-2.54,10.16,10.16,0,0,1,2.5,14L71.26,117A9.73,9.73,0,0,1,63.17,121.33Z"/></g></g></svg>