<svg xmlns="http://www.w3.org/2000/svg" viewBox="0 0 256 256"><g><g><path class="fill-primary" d="M138.67,64H32A32.09,32.09,0,0,0,0,96v96a53.35,53.35,0,0,0,53.33,53.33h64a53.52,53.52,0,0,0,29.44-8.85l-14.29-13.65c-.64-.64-1.17-1.28-1.71-1.92A30.06,30.06,0,0,1,117.33,224h-64a32.09,32.09,0,0,1-32-32V96A10.7,10.7,0,0,1,32,85.33H138.67A10.7,10.7,0,0,1,149.34,96v21.55a11.46,11.46,0,0,1,2.68-.21h18.67V96a32.12,32.12,0,0,0-32-32Z"/><path class="fill-secondary" d="M205.33,256a18.44,18.44,0,0,1-13.3-5.58l-44.77-43a29.31,29.31,0,0,1-8.59-20.75V152A13.35,13.35,0,0,1,152,138.67h34.67a29.13,29.13,0,0,1,20.58,8.45l43.34,45.09A18.36,18.36,0,0,1,256,205.33a18.55,18.55,0,0,1-5.47,13.2l-32,32a18.5,18.5,0,0,1-13.2,5.47Z"/><path class="fill-primary" d="M117.33,117.33a10.68,10.68,0,0,1-10.67-10.67v-64a21.33,21.33,0,1,0-42.66,0v64a10.67,10.67,0,0,1-21.34,0v-64a42.67,42.67,0,0,1,85.34,0v64A10.66,10.66,0,0,1,117.33,117.33Z"/></g></g></svg>