<svg xmlns="http://www.w3.org/2000/svg" viewBox="0 0 256.03 256.03"><g><g><path class="fill-primary" d="M250.58,51.23A24.14,24.14,0,0,0,232,42.7H24A24.11,24.11,0,0,0,5.46,51.23,23.31,23.31,0,0,0,.34,70.11l28.8,166.4A23.87,23.87,0,0,0,52.82,256h150.4a23.88,23.88,0,0,0,23.68-19.52l28.8-166.4a23.37,23.37,0,0,0-5.12-18.88ZM85.34,202.69a10.67,10.67,0,0,1-21.34,0V160a10.67,10.67,0,0,1,21.34,0Zm53.35,0a10.68,10.68,0,0,1-21.35,0V160a10.68,10.68,0,0,1,21.35,0Zm53.33,0a10.68,10.68,0,0,1-21.35,0V160A10.68,10.68,0,0,1,192,160Z"/><path class="fill-secondary" d="M74.69,85.36a10.51,10.51,0,0,1-3.38-.56,10.65,10.65,0,0,1-6.73-13.49l21.32-64a10.66,10.66,0,1,1,20.23,6.74l-21.33,64A10.65,10.65,0,0,1,74.69,85.36Z"/><path class="fill-secondary" d="M181.34,85.36a10.67,10.67,0,0,1-10.11-7.3l-21.33-64a10.66,10.66,0,1,1,20.23-6.73l21.33,64a10.65,10.65,0,0,1-6.74,13.48A10.77,10.77,0,0,1,181.34,85.36Z"/></g></g></svg>