<svg xmlns="http://www.w3.org/2000/svg" viewBox="0 0 256.02 213.34"><g><g><path class="fill-primary" d="M203.63,160H107.7a31,31,0,0,1-29.84-22.08L45.42,28.05a9.58,9.58,0,0,0-9.36-6.72H10.67A10.67,10.67,0,1,1,10.67,0H36.08A31,31,0,0,1,65.92,22.08L72,42.67H235.14A21,21,0,0,1,252,51.15a20.18,20.18,0,0,1,3.07,18.1l-22,69.84A31,31,0,0,1,203.63,160Zm31.51-96h0Z"/><path class="fill-secondary" d="M117.33,213.34A21.34,21.34,0,1,1,138.66,192,21.35,21.35,0,0,1,117.33,213.34Z"/><path class="fill-secondary" d="M192,213.34A21.34,21.34,0,1,1,213.33,192,21.35,21.35,0,0,1,192,213.34Z"/></g></g></svg>