<svg xmlns="http://www.w3.org/2000/svg" viewBox="0 0 160.75 256"><g><g><path class="fill-secondary" d="M44.65,0a8.93,8.93,0,0,0-8.93,8.93V20.84A20.84,20.84,0,0,0,56.56,41.68h47.63A20.84,20.84,0,0,0,125,20.84V8.93A8.93,8.93,0,0,0,116.09,0Z"/><path class="fill-primary" d="M0,32.74A32.74,32.74,0,0,1,32.75,0H128a32.75,32.75,0,0,1,32.75,32.74V223.26A32.75,32.75,0,0,1,128,256H32.75A32.74,32.74,0,0,1,0,223.26ZM32.75,17.86A14.88,14.88,0,0,0,17.86,32.74V223.26a14.88,14.88,0,0,0,14.89,14.88H128a14.88,14.88,0,0,0,14.88-14.88V32.74A14.88,14.88,0,0,0,128,17.86Z"/></g></g></svg>