<svg xmlns="http://www.w3.org/2000/svg" viewBox="0 0 256 234.67"><g><g><path class="fill-secondary" d="M192,226.67H138.67V157.34a18.67,18.67,0,0,1,18.67-18.67h16A18.67,18.67,0,0,1,192,157.34v69.33Z"/><path class="fill-primary" d="M245.33,106.67H10.67a10.67,10.67,0,1,1,0-21.33H245.34a10.67,10.67,0,1,1,0,21.33Z"/><path class="fill-primary" d="M234.66,101.34A10.65,10.65,0,0,1,224.1,92.1l-8.2-61.49a10.73,10.73,0,0,0-10.57-9.27H50.69a10.72,10.72,0,0,0-10.58,9.27L31.92,92.1a10.67,10.67,0,0,1-21.15-2.82L19,27.79A32.08,32.08,0,0,1,50.67,0H205.31A32.08,32.08,0,0,1,237,27.79l8.2,61.49a10.66,10.66,0,0,1-9.17,12,12.81,12.81,0,0,1-1.39.08Z"/><path class="fill-primary" d="M69.34,101.34a11.52,11.52,0,0,1-1.42-.09,10.68,10.68,0,0,1-9.17-12l10.67-80a10.67,10.67,0,0,1,21.16,2.82l-10.68,80A10.65,10.65,0,0,1,69.34,101.34Z"/><path class="fill-primary" d="M128,101.34a10.67,10.67,0,0,1-10.67-10.67v-80a10.67,10.67,0,1,1,21.34,0v80A10.67,10.67,0,0,1,128,101.34Z"/><path class="fill-primary" d="M186.66,101.34A10.65,10.65,0,0,1,176.1,92.1l-10.68-80a10.67,10.67,0,1,1,21.16-2.82l10.67,80a10.66,10.66,0,0,1-9.17,12A13.83,13.83,0,0,1,186.66,101.34Z"/><path class="fill-primary" d="M202.67,234.67H53.34a32,32,0,0,1-32-32V96A10.64,10.64,0,0,1,32,85.34H224A10.68,10.68,0,0,1,234.67,96V202.69A32,32,0,0,1,202.67,234.67Zm-160-128v96a10.68,10.68,0,0,0,10.67,10.67H202.67a10.67,10.67,0,0,0,10.67-10.67v-96Z"/><path class="fill-secondary" d="M98.67,192h-16A18.7,18.7,0,0,1,64,173.34v-16a18.7,18.7,0,0,1,18.67-18.67h16a18.69,18.69,0,0,1,18.67,18.67v16A18.71,18.71,0,0,1,98.67,192Z"/></g></g></svg>