<svg xmlns="http://www.w3.org/2000/svg" viewBox="0 0 256 256.02"><g><g><path class="fill-primary" d="M160,170.69H90.67a32,32,0,0,1-6.14-63.41,45.3,45.3,0,0,1,82.33-10.59,37.32,37.32,0,0,1-6.86,74Z"/><path class="fill-secondary" d="M221,2.35,200.59,22.77A126.7,126.7,0,0,0,128,0,128,128,0,0,0,5.46,165a8,8,0,1,0,15.32-4.61A112,112,0,0,1,128,16a111.19,111.19,0,0,1,61.14,18.2L173,50.35A8,8,0,0,0,178.67,64h48a8,8,0,0,0,8-8V8A8,8,0,0,0,221,2.35Z"/><path class="fill-secondary" d="M250.54,91a8,8,0,1,0-15.32,4.61A112,112,0,0,1,128,240a111.06,111.06,0,0,1-61-18.15L83,205.63A8,8,0,0,0,77.33,192h-48a8,8,0,0,0-8,8.08l.54,48a8,8,0,0,0,13.68,5.53l20-20.25A126.85,126.85,0,0,0,128,256,128,128,0,0,0,250.54,91Z"/></g></g></svg>