<svg xmlns="http://www.w3.org/2000/svg" viewBox="0 0 186.69 256"><g><g><path class="fill-secondary" d="M26.69,83.54V58.66a32,32,0,0,1,64,0V80a31.67,31.67,0,0,1,3.25.37A47.94,47.94,0,1,0,10.69,48a47.71,47.71,0,0,0,16,35.54Z"/><path class="fill-primary" d="M170.69,117.33a16,16,0,0,0-16,16V136a2.68,2.68,0,0,1-5.35,0V122.67a16,16,0,1,0-32,0V136a2.67,2.67,0,1,1-5.34,0V112a16,16,0,0,0-32,0v24a2.67,2.67,0,1,1-5.34,0V58.67a16,16,0,0,0-32,0v96a5.32,5.32,0,0,1-5.33-5.33V128H32.06C14.51,128,0,142.16,0,159.71.08,216.05,41.09,256,66.3,256h67.06a53.32,53.32,0,0,0,53.33-53.33V133.34a16,16,0,0,0-16-16Z"/></g></g></svg>