<svg xmlns="http://www.w3.org/2000/svg" viewBox="0 0 256 244.09"><g><g><path class="fill-primary" d="M0,68.47A32.74,32.74,0,0,1,32.74,35.72H223.26A32.74,32.74,0,0,1,256,68.47V211.35a32.74,32.74,0,0,1-32.74,32.74H32.74A32.74,32.74,0,0,1,0,211.35ZM32.74,53.58A14.88,14.88,0,0,0,17.86,68.47V211.35a14.88,14.88,0,0,0,14.88,14.88H223.26a14.88,14.88,0,0,0,14.88-14.88V68.47a14.88,14.88,0,0,0-14.88-14.89Z"/><path class="fill-primary" d="M26.43,2.62a8.93,8.93,0,0,1,12.63,0L68.47,32l29.4-29.4A8.93,8.93,0,0,1,110.5,15.24L74.78,51a8.94,8.94,0,0,1-12.63,0L26.43,15.24A8.91,8.91,0,0,1,26.43,2.62Z"/><path class="fill-secondary" d="M109.76,85.31a8.92,8.92,0,0,0-14.5,7v95.25a8.93,8.93,0,0,0,14.5,7l59.54-47.63a8.94,8.94,0,0,0,0-13.95Z"/></g></g></svg>