<svg xmlns="http://www.w3.org/2000/svg" viewBox="0 0 256 256"><g><g><path class="fill-secondary" d="M186.67,117.33A69.34,69.34,0,1,0,256,186.68,69.43,69.43,0,0,0,186.67,117.33Zm37.34,55L186.68,215a10.65,10.65,0,0,1-7.68,3.63h-.35a10.67,10.67,0,0,1-7.53-3.12l-21.33-21.33a10.67,10.67,0,0,1,15.09-15.09l13.26,13.27L208,158.3a10.67,10.67,0,1,1,16,14.07Z"/><path class="fill-primary" d="M177.92,32.32,92.58.32a5.88,5.88,0,0,0-3.84,0l-85.35,32a5.36,5.36,0,0,0-3.39,5v68.59c0,97.28,88.64,117.76,89.5,118a6.28,6.28,0,0,0,2.34,0,73.48,73.48,0,0,0,10.77-3.41A89.34,89.34,0,0,1,96,186.68a90.78,90.78,0,0,1,85.34-90.56V37.35a5.38,5.38,0,0,0-3.42-5Z"/></g></g></svg>