<svg xmlns="http://www.w3.org/2000/svg" viewBox="0 0 256 256"><g id="Layer_2" data-name="Layer 2"><g id="bold"><path class="fill-secondary" d="M256,21.33v160a21.39,21.39,0,0,1-21.33,21.33H186a55.9,55.9,0,0,0-55.36-48H128V149a63.52,63.52,0,0,0,16-22.08v27.73h96V29.33A13.33,13.33,0,0,0,226.67,16H157.34A13.33,13.33,0,0,0,144,29.33V76.05a62.68,62.68,0,0,0-16-22.19V21.33A21.39,21.39,0,0,1,149.33,0h85.33A21.4,21.4,0,0,1,256,21.33Z"/><path class="fill-secondary" d="M192,85.33a16,16,0,1,1,16-16A16,16,0,0,1,192,85.33Z"/><path class="fill-secondary" d="M216,128H168a8,8,0,0,1-8-8,24,24,0,0,1,24-24h16a24,24,0,0,1,24,24A8,8,0,0,1,216,128Z"/><path class="fill-primary" d="M162.67,256H8a8,8,0,0,1-8-8V210.67a40,40,0,0,1,40-40h90.67a40,40,0,0,1,40,40V248A8,8,0,0,1,162.67,256Z"/><path class="fill-primary" d="M38.4,91.73a1.8,1.8,0,0,1,.11-.75,48,48,0,0,1,93.76.32c0,.11.11.32.11.43s-.32.11-.43.11C114,96.64,102.4,77.12,102,76.27a5.32,5.32,0,0,0-3.84-2.56,5.42,5.42,0,0,0-4.48,1.39c-22.62,21-52.81,17-55.26,16.63Z"/><path class="fill-primary" d="M126.08,103.25c-14.4,0-24.64-10-29.76-16.43-24.32,19.08-53,16.32-58.88,15.56a21.89,21.89,0,0,0,.21,4.6,48,48,0,0,0,95.36-.32,18.89,18.89,0,0,0,.21-4.28A26.93,26.93,0,0,1,126.08,103.25Z"/></g></g></svg>