<svg xmlns="http://www.w3.org/2000/svg" viewBox="0 0 256.03 213.34"><g><g><path class="fill-primary" d="M237.34,0H18.66A18.69,18.69,0,0,0,0,18.67v144a18.69,18.69,0,0,0,18.67,18.67h81.7c-1.25,5.35-4.58,14-13.46,22.9a5.33,5.33,0,0,0,3.78,9.1h74.67a5.33,5.33,0,0,0,3.78-9.1c-8.87-8.86-12.28-17.54-13.6-22.9h81.82A18.68,18.68,0,0,0,256,162.67v-144A18.73,18.73,0,0,0,237.34,0Zm-2.67,138.67H21.33V21.34H234.67Z"/><path class="fill-secondary" d="M114.67,117.34a8,8,0,0,1-8-8V50.67a8,8,0,0,1,12.16-6.83l48,29.33a8,8,0,0,1,0,13.66l-48,29.33A8,8,0,0,1,114.67,117.34Z"/></g></g></svg>