<svg xmlns="http://www.w3.org/2000/svg" viewBox="0 0 256 256"><g id="Layer_2" data-name="Layer 2"><g id="bold"><path class="fill-primary" d="M170.67,37.33V32a32.09,32.09,0,0,0-32-32H32A32.09,32.09,0,0,0,0,32V224a32.09,32.09,0,0,0,32,32H138.67a32.09,32.09,0,0,0,32-32V154.67H149.34v58.67h-128V32A10.7,10.7,0,0,1,32,21.33H138.69A10.7,10.7,0,0,1,149.36,32v5.33Z"/><circle class="fill-primary" cx="85.33" cy="149.33" r="21.33"/><path class="fill-primary" d="M128,210.67v2.67H42.67v-2.67A29.32,29.32,0,0,1,72,181.34H98.67A29.3,29.3,0,0,1,128,210.67Z"/><path class="fill-secondary" d="M248,138.67a8,8,0,0,1-4.8-1.6l-19.38-14.53a18.67,18.67,0,0,1-18.49,16.13H146.66A18.69,18.69,0,0,1,128,120V69.33c0-7.38,4.9-16,18.67-16h58.67A18.69,18.69,0,0,1,224,70.94L242.9,55.18A8,8,0,0,1,256,61.33v69.33a8,8,0,0,1-8,8Z"/></g></g></svg>