<svg xmlns="http://www.w3.org/2000/svg" viewBox="0 0 256.02 202.68"><g id="Layer_2" data-name="Layer 2"><g id="bold"><path class="fill-primary" d="M245.33,181.33H10.67a10.68,10.68,0,0,0,0,21.35H245.34a10.68,10.68,0,1,0,0-21.35Z"/><path class="fill-primary" d="M112,66.66a28.3,28.3,0,0,0,1.07,8H42.67V181.33H21.33V74.66A21.39,21.39,0,0,1,42.66,53.33H112Z"/><path class="fill-primary" d="M234.67,97.17v84.16H213.34v-81a33.47,33.47,0,0,0,14.93-7.79l5.33,4a3.67,3.67,0,0,0,1.07.64Z"/><circle class="fill-primary" cx="117.33" cy="117.33" r="21.33"/><path class="fill-primary" d="M160,178.66v2.67H74.67v-2.67A29.32,29.32,0,0,1,104,149.33h26.67A29.32,29.32,0,0,1,160,178.66Z"/><path class="fill-secondary" d="M248,85.33a8,8,0,0,1-4.8-1.6L223.82,69.2a18.67,18.67,0,0,1-18.49,16.13H146.66A18.68,18.68,0,0,1,128,66.66V16c0-7.37,4.9-16,18.67-16h58.67A18.69,18.69,0,0,1,224,17.62L242.9,1.86A8,8,0,0,1,256,8V77.33a8,8,0,0,1-4.42,7.15A7.82,7.82,0,0,1,248,85.33Z"/></g></g></svg>