<svg xmlns="http://www.w3.org/2000/svg" viewBox="0 0 256 256"><g><g><path class="fill-primary" d="M186.67,74.67h-160A26.67,26.67,0,0,0,0,101.33v128A26.67,26.67,0,0,0,26.66,256h160a26.67,26.67,0,0,0,26.67-26.67v-128A26.66,26.66,0,0,0,186.67,74.67Zm-5.34,160H32A10.67,10.67,0,0,1,21.33,224V128H192v96A10.67,10.67,0,0,1,181.33,234.67Z"/><path class="fill-secondary" d="M229.34,0h-160A26.68,26.68,0,0,0,42.66,26.67V53.34h192V180.8A26.67,26.67,0,0,0,256,154.67v-128A26.67,26.67,0,0,0,229.34,0Z"/></g></g></svg>