<svg xmlns="http://www.w3.org/2000/svg" viewBox="0 0 256 234.67"><g><g><path class="fill-secondary" d="M162.66,160.33a8,8,0,0,1-6.07-13.2l11.54-13.46-11.54-13.45a8,8,0,0,1,12.15-10.42l16,18.67a8,8,0,0,1,0,10.42l-16,18.67A8.07,8.07,0,0,1,162.66,160.33Z"/><path class="fill-secondary" d="M93.34,160.33a8,8,0,0,1-6.08-2.79l-16-18.67a8,8,0,0,1,0-10.41l16-18.68A8,8,0,0,1,99.41,120.2L87.87,133.66l11.54,13.45a8,8,0,0,1-6.07,13.22Z"/><path class="fill-secondary" d="M118.21,176.12a8,8,0,0,1-6-9.6l16-69.33a8,8,0,1,1,15.6,3.6l-16,69.33a8,8,0,0,1-9.6,6Z"/><path class="fill-primary" d="M224,0H32A32.09,32.09,0,0,0,0,32V202.67a32.09,32.09,0,0,0,32,32H224a32.09,32.09,0,0,0,32-32V32A32.09,32.09,0,0,0,224,0Zm10.67,202.66A10.7,10.7,0,0,1,224,213.33H32a10.7,10.7,0,0,1-10.67-10.67V53.33H234.66V202.66Z"/></g></g></svg>