<svg xmlns="http://www.w3.org/2000/svg" viewBox="0 0 512 499.09"><path class="lineal-fill" d="M114.32,343.22H89.6A74.6,74.6,0,0,1,15,268.61V249.33h174v19.28A74.61,74.61,0,0,1,114.32,343.22Z"/><path class="lineal-fill" d="M422.4,343.22H397.68a74.61,74.61,0,0,1-74.62-74.61V249.33H497v19.28A74.6,74.6,0,0,1,422.4,343.22Z"/><path class="lineal-stroke" d="M511.51,248.23c0-.17,0-.34,0-.51s-.08-.58-.13-.87-.06-.39-.1-.57-.12-.48-.18-.71-.13-.48-.2-.71-.13-.36-.2-.55-.2-.55-.32-.82l-.22-.45c-.14-.29-.28-.57-.43-.85a.61.61,0,0,1-.07-.14l-43.49-75.32a14.55,14.55,0,1,0-25.2,14.55l30.88,53.5H348.27l70.17-121.55h79a14.55,14.55,0,1,0,0-29.1H310.85a57,57,0,0,0-40.3-40.3V14.55a14.55,14.55,0,1,0-29.1,0V56.49A14.55,14.55,0,0,0,256,71h0a27.65,27.65,0,0,1,0,55.29h0a27.69,27.69,0,0,1-27.63-27.65A14.55,14.55,0,0,0,213.8,84.13H14.55a14.55,14.55,0,0,0,0,29.1H76.76L2.38,242.05l-.06.14c-.16.28-.3.56-.44.85l-.22.45c-.12.27-.22.55-.32.82s-.14.37-.2.55-.13.47-.2.71-.13.47-.18.71-.07.38-.1.57-.1.58-.13.87,0,.34,0,.51,0,.63,0,.94V268.6A89.27,89.27,0,0,0,89.6,357.77h24.72a89.27,89.27,0,0,0,89.17-89.17V249.33c0-.05,0-.1,0-.16,0-.31,0-.63,0-.94s0-.34,0-.51-.09-.58-.14-.87-.06-.39-.1-.57-.12-.48-.18-.71-.12-.48-.19-.71-.14-.36-.21-.55-.2-.55-.32-.82-.14-.3-.21-.45-.28-.57-.44-.85l-.07-.14-45.29-78.44a14.55,14.55,0,0,0-25.2,14.55l32.69,56.62H40.19l70.17-121.55h90.79a57,57,0,0,0,40.3,40.3V398.69H114.13a14.55,14.55,0,0,0-14.55,14.55v71.3a14.56,14.56,0,0,0,14.55,14.55H397.87a14.55,14.55,0,0,0,14.55-14.55v-71.3a14.54,14.54,0,0,0-14.55-14.55H326.33a14.55,14.55,0,1,0,0,29.1h57V470H128.68v-42.2H256a14.55,14.55,0,0,0,14.55-14.55V153.53a57,57,0,0,0,40.3-40.3h74L310.46,242.05a.61.61,0,0,1-.07.14c-.15.28-.29.56-.43.85l-.22.45c-.12.27-.22.55-.32.82s-.14.37-.2.55-.14.47-.2.71-.13.47-.18.71-.07.38-.1.57-.1.58-.13.87,0,.34,0,.51-.05.63-.05.94c0,.06,0,.11,0,.16V268.6a89.28,89.28,0,0,0,89.17,89.17H422.4a89.27,89.27,0,0,0,89.17-89.17V249.33c0-.05,0-.1,0-.16C511.55,248.86,511.53,248.54,511.51,248.23ZM174.39,268.61a60.13,60.13,0,0,1-60.07,60.06H89.6a60.12,60.12,0,0,1-60.06-60.06v-4.73H174.39v4.73Zm308.07,0a60.12,60.12,0,0,1-60.06,60.06H397.68a60.13,60.13,0,0,1-60.07-60.06v-4.73H482.46Z"/></svg>