<svg xmlns="http://www.w3.org/2000/svg" viewBox="0 0 384 360.59"><path class="lineal-stroke" d="M11.58,313.75A11.57,11.57,0,0,1,0,302.17V11.58a11.58,11.58,0,0,1,23.16,0V302.17a11.58,11.58,0,0,1-11.58,11.58Z"/><path class="lineal-stroke" d="M55,254.7a11.58,11.58,0,0,1-11.58-11.58V11.58a11.58,11.58,0,1,1,23.16,0V243.12A11.57,11.57,0,0,1,55,254.7Z"/><path class="lineal-stroke" d="M98.33,254.7a11.57,11.57,0,0,1-11.58-11.58V104.18a11.58,11.58,0,1,1,23.16,0V243.12A11.59,11.59,0,0,1,98.33,254.7Z"/><path class="lineal-stroke" d="M98.33,68.75A11.57,11.57,0,0,1,86.75,57.18V11.58a11.58,11.58,0,0,1,23.16,0v45.6A11.58,11.58,0,0,1,98.33,68.75Z"/><path class="lineal-stroke" d="M185.08,110.45A11.57,11.57,0,0,1,173.5,98.88V11.58a11.58,11.58,0,1,1,23.16,0v87.3a11.58,11.58,0,0,1-11.58,11.57Z"/><path class="lineal-stroke" d="M141.7,254.7a11.58,11.58,0,0,1-11.58-11.58V11.58a11.58,11.58,0,0,1,23.16,0V243.12A11.57,11.57,0,0,1,141.7,254.7Z"/><path class="lineal-fill" d="M350.3,244a82.85,82.85,0,1,1-82.85-82.85A82.85,82.85,0,0,1,350.3,244Z"/><path class="lineal-stroke" d="M380.61,340.82l-38.72-38.71a93.64,93.64,0,0,0,20-58.07,94.92,94.92,0,0,0-3.06-23.93c0-.43.07-.86.07-1.3V11.58a11.58,11.58,0,1,0-23.15,0V178.87c-.51-.53-1-1.07-1.52-1.59a94.21,94.21,0,0,0-31.28-20.78V11.58a11.58,11.58,0,1,0-23.16,0V150.44A94.62,94.62,0,0,0,240,153.65V11.58a11.58,11.58,0,0,0-23.16,0V164.31a94.62,94.62,0,0,0-16.18,13c-1.41,1.4-2.74,2.85-4,4.32V150.67a11.58,11.58,0,1,0-23.15,0v83.9q-.47,4.69-.47,9.48a94.41,94.41,0,0,0,152.49,74.44l38.71,38.71a11.58,11.58,0,0,0,16.38-16.38ZM217.06,294.44a71.35,71.35,0,0,1,16.67-113.21l.39-.21a71.71,71.71,0,0,1,53.63-5.32c.19.07.39.12.6.18a71.28,71.28,0,1,1-71.29,118.56Z"/></svg>