<svg xmlns="http://www.w3.org/2000/svg" viewBox="0 0 512 381.92"><polygon class="lineal-fill" points="228.38 200.24 98.31 70.16 56.62 111.85 14.93 153.54 145 283.62 228.38 200.24"/><path class="lineal-stroke" d="M507.63,87.75,424.25,4.37a14.93,14.93,0,0,0-21.11,0L228.38,179.13,108.86,59.6a14.93,14.93,0,0,0-21.11,0L4.37,143c-.35.36-.68.72-1,1.11s-.46.6-.67.91c-.07.09-.14.17-.2.26-.25.38-.47.76-.68,1.14l-.07.11c-.21.4-.39.79-.56,1.2l-.06.12c-.16.39-.29.78-.42,1.17,0,.07,0,.14-.07.21-.11.37-.2.74-.28,1.11,0,.1,0,.21-.07.31-.07.35-.12.7-.16,1.06,0,.13,0,.26-.06.39,0,.45-.06.9-.07,1.35v.21c0,.45,0,.9.07,1.35l.06.4c0,.35.09.7.16,1.05,0,.11.05.21.07.31.08.38.17.75.28,1.11,0,.07,0,.13.07.2.13.4.26.79.42,1.18l.06.12a13.17,13.17,0,0,0,.57,1.2.22.22,0,0,0,.05.08q.31.6.69,1.17l.15.2c.23.33.47.66.73,1s.43.48.65.72.22.26.34.38L217.83,377.55a14.93,14.93,0,0,0,21.11-21.11l-72.82-72.82,72.82-72.83h0L413.69,36,476,98.31,301.21,273.06a14.93,14.93,0,0,0,21.11,21.11L507.63,108.86A14.93,14.93,0,0,0,507.63,87.75ZM98.31,91.27l109,109L145,262.51l-109-109Z"/></svg>