<svg xmlns="http://www.w3.org/2000/svg" viewBox="0 0 349.06 409.6"><path class="lineal-stroke" d="M249.63,409.6H99.43a45.94,45.94,0,0,1-45.22-39.12l-40-275.27A11.95,11.95,0,0,1,26,81.56H323a11.93,11.93,0,0,1,11.8,13.65l-40,275.27a45.94,45.94,0,0,1-45.21,39.12ZM39.83,105.42l38,261.63a21.94,21.94,0,0,0,21.6,18.69H249.62a22,22,0,0,0,21.61-18.69l38-261.63Z"/><path class="lineal-fill" d="M311.05,62.65H256.14V38.93a27,27,0,0,0-27-27H119.92a27,27,0,0,0-27,27V62.65H38a26.08,26.08,0,0,0,0,52.16h273a26.08,26.08,0,0,0,0-52.16Z"/><path class="lineal-stroke" d="M311.05,126.74H38a38,38,0,0,1,0-76H81V38.93A39,39,0,0,1,119.92,0H229.14a39,39,0,0,1,38.93,38.93V50.72h43a38,38,0,0,1,0,76ZM38,74.58a14.15,14.15,0,0,0,0,28.3h273a14.15,14.15,0,0,0,0-28.3H256.14a11.93,11.93,0,0,1-11.93-11.93V38.93a15.09,15.09,0,0,0-15.07-15.07H119.92a15.09,15.09,0,0,0-15.07,15.07V62.65A11.94,11.94,0,0,1,92.92,74.59H38Z"/><polyline class="lineal-fill" points="266.39 205 306.82 205 294.52 289.68 54.53 289.68 42.24 205 207.93 205"/><path class="lineal-stroke" d="M294.52,301.61h-240a11.93,11.93,0,0,1-11.8-10.21l-12.3-84.68a11.95,11.95,0,0,1,11.81-13.65H207.93a11.93,11.93,0,0,1,0,23.86H56l8.82,60.82H284.2L293,216.93H266.39a11.93,11.93,0,1,1,0-23.86h40.43a11.93,11.93,0,0,1,11.8,13.65l-12.3,84.68a11.92,11.92,0,0,1-11.8,10.21Z"/></svg>