<svg xmlns="http://www.w3.org/2000/svg" viewBox="0 0 409.6 409.6"><path class="lineal-fill" d="M204.8,11.75C98.18,11.75,11.74,98.18,11.74,204.8S98.18,397.86,204.8,397.86,397.85,311.42,397.85,204.8s-86.43-193-193-193Zm0,322.52A129.41,129.41,0,0,1,101.52,126.8L152,86.57a129.47,129.47,0,1,1,52.76,247.7Z"/><path class="lineal-stroke" d="M204.8,409.6C91.87,409.6,0,317.73,0,204.8S91.87,0,204.8,0,409.6,91.87,409.6,204.8,317.73,409.6,204.8,409.6Zm0-386.11c-100,0-181.31,81.33-181.31,181.31S104.82,386.11,204.8,386.11,386.11,304.77,386.11,204.8,304.77,23.49,204.8,23.49Z"/><path class="lineal-stroke" d="M204.8,346C126.93,346,63.58,282.67,63.58,204.8a139.85,139.85,0,0,1,28.58-85.09,11.75,11.75,0,0,1,18.73,14.18A116.55,116.55,0,0,0,87.07,204.8,117.73,117.73,0,1,0,204.8,87.07a116.53,116.53,0,0,0-48,10.22,11.75,11.75,0,0,1-9.6-21.44A139.88,139.88,0,0,1,204.8,63.59C282.67,63.59,346,126.93,346,204.8S282.66,346,204.8,346Z"/><path class="lineal-stroke" d="M202.51,262.73C183,262.07,167,252,167,241.56c0-5.54,4.89-13.68,11.07-13.68,6.84,0,12.38,9.6,24.43,11.72V213.22c-15-5.7-32.57-12.7-32.57-33.55,0-20.69,15.31-30.62,32.57-33.06v-4.56c0-2.28,2.61-4.4,6.19-4.4,3.1,0,6.19,2.12,6.19,4.4v4.07c10.1.33,29.15,2.93,29.15,14.17,0,4.4-2.93,13.36-10.1,13.36-5.37,0-8.46-5.22-19.05-6V191.4c14.82,5.53,32.08,13.19,32.08,35.17,0,20.2-13,32.41-32.08,35.5v4.73c0,2.28-3.09,4.4-6.19,4.4-3.58,0-6.19-2.12-6.19-4.4Zm1.63-75.25V168.11c-7.33,1.46-10.43,5.21-10.43,9.12,0,4.72,4.24,7.65,10.43,10.25Zm9.12,30.13v21.83c5.54-1.3,9.93-4.4,9.93-10.26,0-5.37-4.07-8.8-9.93-11.57Z"/></svg>