<svg xmlns="http://www.w3.org/2000/svg" viewBox="0 0 409.6 375.46"><path class="lineal-stroke" d="M247.14,375.07H193.35a11.89,11.89,0,0,1-11.89-11.88V221.67a11.89,11.89,0,0,1,23.77,0V351.31h30V303.56a11.89,11.89,0,1,1,23.77,0v59.63a11.88,11.88,0,0,1-11.88,11.88Z"/><path class="lineal-stroke" d="M347.71,143.19H319.27a11.89,11.89,0,0,1,0-23.77h27.31l38.61-47.83L346.58,23.76H133v95.66H246.39a11.89,11.89,0,0,1,0,23.77H121.1a11.88,11.88,0,0,1-11.89-11.88V11.88A11.88,11.88,0,0,1,121.1,0H347.71a21.26,21.26,0,0,1,16.64,8l40.54,50.2a21.52,21.52,0,0,1,0,26.87l-40.54,50.2a21.26,21.26,0,0,1-16.64,8Z"/><path class="lineal-stroke" d="M170.49,65.43c-4.31-1.55-8-2.9-8-5.39s2.76-3.85,7.39-3.85a16,16,0,0,1,7.21,1.54,7.45,7.45,0,0,0,3,.84c3.37,0,4.83-3.51,4.83-5.31,0-5.71-12.54-6-15.05-6-9.18,0-19,3.56-19,13.54,0,9,8.06,12,14.55,14.43,5,1.87,9.23,3.48,9.23,7,0,3.31-3.78,4.48-7.32,4.48a13.35,13.35,0,0,1-8.57-3c-1.36-1-2.53-1.8-4-1.8-2.76,0-5.21,3-5.21,5.38,0,4.66,8.46,8.76,18.1,8.76,11.47,0,18.61-5.6,18.61-14.6,0-10.3-8.74-13.44-15.75-16Z"/><path class="lineal-stroke" d="M226.68,52.2c0-2.3-1.38-4.63-4-4.63H191.33c-2.64,0-4,2.33-4,4.63,0,2.71,1.69,4.68,4,4.68h9.91v35c0,2.45,2.91,3.55,5.79,3.55s5.8-1.11,5.8-3.55v-35h9.83c2.33,0,4-2,4-4.68Z"/><path class="lineal-stroke" d="M250.62,50.61c-.89-2.51-4.27-3.41-7.14-3.41s-6.18.89-7.07,3.4L222.09,90.15a3.44,3.44,0,0,0-.19.91c0,2.81,4.18,4.36,7.06,4.36s3.87-1.26,4.19-2.29l2.59-7.69H251.3l2.58,7.66c.33,1.06,1.32,2.32,4.19,2.32s7.06-1.66,7.06-4.36a2.45,2.45,0,0,0-.15-.77Zm-2.06,26.47H238.39l5.09-15.2Z"/><path class="lineal-stroke" d="M296.41,74.8c5.92-2,9.16-6.62,9.16-13.13s-3.22-14.1-18.54-14.1H272.37c-2.3,0-4.1,1.53-4.1,3.49V91.87c0,2.44,3,3.55,5.8,3.55s5.79-1.1,5.79-3.55V76.46h4.7l10.22,16.85A4.84,4.84,0,0,0,299,95.74c3.14,0,7-2.42,7-5.25a2.54,2.54,0,0,0-.57-1.6ZM294,62.43c0,4-2.08,5.67-7,5.67h-7.16V56.69H287c4.81,0,7,1.77,7,5.74Z"/><path class="lineal-stroke" d="M341.7,47.57H310.37c-2.64,0-4,2.33-4,4.63,0,2.71,1.69,4.68,4,4.68h9.91v35c0,2.45,2.91,3.55,5.79,3.55s5.8-1.11,5.8-3.55v-35h9.83c2.33,0,4-2,4-4.68,0-2.3-1.38-4.63-4-4.63Z"/><path class="lineal-fill" d="M61.89,250.57H247.14V131.15H61.89a9.52,9.52,0,0,0-7.4,3.54L14,184.89a9.52,9.52,0,0,0,0,12L54.49,247a9.52,9.52,0,0,0,7.4,3.53Z"/><path class="lineal-stroke" d="M247.14,262.46H61.89a21.29,21.29,0,0,1-16.65-8L4.71,204.3a21.53,21.53,0,0,1,0-26.88l40.53-50.2a21.31,21.31,0,0,1,16.65-8H247.14A11.88,11.88,0,0,1,259,131.15V250.57a11.88,11.88,0,0,1-11.88,11.89ZM63,238.69H235.26V143H63L24.41,190.86Z"/><path class="lineal-stroke" d="M276.4,375.46H162.32a11.89,11.89,0,0,1,0-23.77H276.4a11.89,11.89,0,0,1,0,23.77Z"/></svg>