<svg xmlns="http://www.w3.org/2000/svg" viewBox="0 0 281.82 384"><path class="lineal-stroke" d="M182.39,208.78c-16.91,0-26.22,8.48-26.22,23.88v22.07c0,15.41,9.31,23.89,26.22,23.89,16.66,0,26.21-8.71,26.21-23.89V232.66c0-15.18-9.55-23.88-26.21-23.88Zm-4.72,23.88c0-3.32,1.28-4.56,4.72-4.56,4,0,4.87,1.82,4.87,4.56v22.07c0,2.74-.83,4.57-4.87,4.57-3.44,0-4.72-1.24-4.72-4.57Z"/><path class="lineal-stroke" d="M167.26,152.35a9.78,9.78,0,0,0-9.14,5.52L103.57,269.92a9.87,9.87,0,0,0-1.08,4.25,11.52,11.52,0,0,0,11.6,11.13c4.21,0,8.07-2.23,9.6-5.51l54.71-112a9.64,9.64,0,0,0,.93-4.25c0-6.67-6.24-11.14-12.07-11.14Z"/><path class="lineal-stroke" d="M99.43,158.72c-16.91,0-26.22,8.49-26.22,23.89v22.07c0,15.4,9.31,23.89,26.22,23.89,16.66,0,26.22-8.71,26.22-23.89V182.61c0-15.18-9.56-23.89-26.22-23.89ZM94.71,182.6c0-3.32,1.28-4.56,4.72-4.56,4,0,4.88,1.83,4.88,4.56v22.08c0,2.74-.83,4.56-4.88,4.56-3.44,0-4.72-1.23-4.72-4.56Z"/><rect class="lineal-fill" x="10.96" y="10.96" width="259.9" height="91.74"/><path class="lineal-stroke" d="M270.86,0H11A11,11,0,0,0,0,11V373a11,11,0,0,0,11,11h9.88a11,11,0,0,0,8.05-3.52L54.28,353l25.38,27.49a11,11,0,0,0,16.1-14.87l-33.44-36.2a11,11,0,0,0-16.09,0L21.91,355.73V113.66h238V355.73l-24.31-26.32a11,11,0,0,0-16.09,0l-30.18,32.68H179.14L149,329.41a11,11,0,0,0-16.1,14.87l33.44,36.2a11,11,0,0,0,8,3.52h19.77a11,11,0,0,0,8-3.52L227.54,353l25.39,27.49A11,11,0,0,0,261,384h9.88a11,11,0,0,0,11-11V11a11,11,0,0,0-11-11ZM21.91,91.75V21.91h238V91.75Z"/></svg>