<svg xmlns="http://www.w3.org/2000/svg" viewBox="0 0 409.6 383.99"><path class="lineal-fill" d="M87,311.44H77.78V72.54H87a7.07,7.07,0,0,0,5.7-11.24l-34-46.45a7.06,7.06,0,0,0-11.4,0l-34,46.45A7.06,7.06,0,0,0,19,72.54H28.3v238.9H19a7.06,7.06,0,0,0-5.7,11.24l34,46.46a7.07,7.07,0,0,0,11.4,0l34-46.46A7.07,7.07,0,0,0,87,311.44Z"/><path class="lineal-stroke" d="M53,384a19.11,19.11,0,0,1-15.35-7.79l-34-46.45a19,19,0,0,1,12.65-30.08V84.31A19,19,0,0,1,3.69,54.24l34-46.45a19,19,0,0,1,30.7,0l34,46.45A19,19,0,0,1,89.73,84.31V299.67a19,19,0,0,1,12.66,30.08l-34,46.45A19.11,19.11,0,0,1,53,384Zm-24.37-60.6L53,356.68l24.37-33.29a12,12,0,0,1-11.59-11.95V72.54a12,12,0,0,1,11.58-12L53,27.3,28.68,60.59a12,12,0,0,1,11.58,12v238.9a12,12,0,0,1-11.59,11.95Z"/><path class="lineal-stroke" d="M328.33,379.22H214.58a29,29,0,0,1-29-29v-3.73A28.67,28.67,0,0,1,211.36,318l.17,0c7.66-.8,9.79-1.57,10-1.65,3-1.22,3.57-2.19,3.57-2.2a15.67,15.67,0,0,0,1.24-6.76V70.09c-11.1.51-20.88,1-22.91,1.23-.83.15-6,1.62-15.22,15.64C180.28,99,174.48,110.35,171,120.66a12,12,0,0,1-11.32,8.1,26.37,26.37,0,0,1-26.34-26.34V31.1A26.37,26.37,0,0,1,159.64,4.76H383.26A26.37,26.37,0,0,1,409.6,31.1v71.32a26.37,26.37,0,0,1-26.34,26.34,12,12,0,0,1-11.32-8.1C368.43,110.35,362.63,99,354.69,87c-9.24-14-14.39-15.49-15.21-15.64-2-.22-11.8-.72-22.92-1.23V97.14a12,12,0,0,1-23.91,0V57.6a11.95,11.95,0,0,1,12.46-12c7.73.33,33.26,1.44,37.41,2l.17,0c10.9,1.51,21.36,10.07,32,26.18q6.27,9.54,11,18.66V31.1a2.43,2.43,0,0,0-2.43-2.43H159.64a2.42,2.42,0,0,0-2.42,2.43V92.46a212.6,212.6,0,0,1,11-18.65c10.61-16.12,21.07-24.68,32-26.19l.16,0c4.14-.52,29.69-1.62,37.42-2a12,12,0,0,1,12.46,12V307.33a39.15,39.15,0,0,1-3.62,17.13c-2.94,6.1-8.3,10.78-15.95,13.92-3.48,1.46-8.64,2.51-16.64,3.35h-.16a4.82,4.82,0,0,0-4.35,4.8v3.73a5,5,0,0,0,5,5H328.32a5,5,0,0,0,5-5V345.9A5,5,0,0,0,329.3,341l-1.71-.33a93.58,93.58,0,0,1-15.39-4.05l-.27-.11c-7.52-3.16-12.81-7.88-15.71-14.05a39.31,39.31,0,0,1-3.58-17V151.74a12,12,0,1,1,23.92,0V305.46a15.84,15.84,0,0,0,1.28,6.75c.16.34,1,1.21,3.21,2.15a73.15,73.15,0,0,0,11.16,2.8l1.58.31a29,29,0,0,1,23.49,28.43v4.37a29,29,0,0,1-28.95,29Z"/></svg>