<svg xmlns="http://www.w3.org/2000/svg" viewBox="0 0 397.61 409.6"><rect class="lineal-stroke" x="346.85" y="155.07" width="34.01" height="24.17"/><rect class="lineal-stroke" x="16.75" y="155.07" width="31.59" height="24.17"/><path class="lineal-stroke" d="M349.5,321.87H48.12A12.08,12.08,0,0,1,36,309.79V42.47A42.52,42.52,0,0,1,78.5,0H319.11a42.52,42.52,0,0,1,42.47,42.47V309.79a12.08,12.08,0,0,1-12.08,12.08ZM60.2,297.7H337.41V42.47a18.32,18.32,0,0,0-18.3-18.3H78.5a18.32,18.32,0,0,0-18.3,18.3Z"/><path class="lineal-fill" d="M349.38,397.52H48.23a36.15,36.15,0,0,1-36.14-36.16V176.24a10,10,0,0,1,15.46-8.35l162.7,106.65a15.6,15.6,0,0,0,17.12,0l162.7-106.65a10,10,0,0,1,15.46,8.35V361.36a36.16,36.16,0,0,1-36.15,36.16Z"/><path class="lineal-stroke" d="M349.38,409.6H48.23A48.29,48.29,0,0,1,0,361.36V176.24a22,22,0,0,1,34.17-18.45l162.7,106.65a3.52,3.52,0,0,0,3.87,0l162.7-106.65a22,22,0,0,1,34.17,18.45V361.36a48.29,48.29,0,0,1-48.23,48.24ZM24.17,180.13V361.36a24.1,24.1,0,0,0,24.06,24.07H349.38a24.09,24.09,0,0,0,24.06-24.07V180.13L214,284.65a27.72,27.72,0,0,1-30.37,0Z"/><path class="lineal-stroke" d="M27.56,398.89a12.08,12.08,0,0,1-6.64-22.19l56.41-37a12.08,12.08,0,1,1,13.25,20.21l-56.4,37a12.06,12.06,0,0,1-6.62,2Z"/><path class="lineal-stroke" d="M370.05,398.89a12,12,0,0,1-6.61-2L200.74,290.26a3.53,3.53,0,0,0-3.87,0l-51.86,34A12.09,12.09,0,0,1,131.75,304l51.87-34A27.72,27.72,0,0,1,214,270L376.69,376.7a12.08,12.08,0,0,1-6.64,22.19Z"/><path class="lineal-stroke" d="M259.23,97.07H138.38a12.09,12.09,0,1,1,0-24.17H259.23a12.09,12.09,0,1,1,0,24.17Z"/><path class="lineal-stroke" d="M278.57,160.25H119a12.09,12.09,0,0,1,0-24.18H278.57a12.09,12.09,0,1,1,0,24.18Z"/></svg>