<svg xmlns="http://www.w3.org/2000/svg" viewBox="0 0 497.83 512"><path class="lineal-stroke" d="M429.13,129.53a13.4,13.4,0,0,0-13.4,13.39v14L325.1,66.32a13.4,13.4,0,1,0-19,18.94l90.64,90.63h-14a13.4,13.4,0,0,0,0,26.79h46.36a13.39,13.39,0,0,0,13.4-13.39V142.92A13.4,13.4,0,0,0,429.13,129.53Z"/><path class="lineal-stroke" d="M191.67,426.74,101,336.11h14a13.4,13.4,0,0,0,0-26.79H68.71a13.39,13.39,0,0,0-13.4,13.39v46.37a13.4,13.4,0,0,0,26.79,0v-14l90.63,90.63a13.39,13.39,0,1,0,18.94-18.94Z"/><circle class="lineal-fill" cx="138.4" cy="138.4" r="75.63"/><path class="lineal-stroke" d="M138.4,227.42a88.46,88.46,0,0,1-62.95-26.07,13.4,13.4,0,0,1,19-18.95,62.23,62.23,0,1,0,0-88,13.4,13.4,0,0,1-19-19,89,89,0,1,1,63,152Z"/><path class="lineal-stroke" d="M138.4,276.81C62.09,276.81,0,214.72,0,138.4A138.41,138.41,0,0,1,138.4,0c76.32,0,138.4,62.09,138.4,138.4a13.4,13.4,0,1,1-26.79,0A111.61,111.61,0,1,0,138.4,250a110.59,110.59,0,0,0,81.46-35.3A13.4,13.4,0,1,1,239.41,233,139,139,0,0,1,138.4,276.81Z"/><path class="lineal-stroke" d="M144.46,132.71V111.17c8.6,1.51,9.89,6.27,10.09,9.08a1.36,1.36,0,0,0,1.36,1.27h9.39a1.38,1.38,0,0,0,1.37-1.46c-.61-11.81-8.71-19.41-22.21-21.12V91.7a1.36,1.36,0,0,0-1.36-1.37h-9.39a1.37,1.37,0,0,0-1.37,1.37v7.24c-14,1.78-22.24,9.94-22.24,22.58s8.2,20.8,22.24,22.57v21.54c-8.6-1.5-9.89-6.27-10.08-9.07a1.37,1.37,0,0,0-1.37-1.27H111.5a1.37,1.37,0,0,0-1.37,1.45c.61,11.81,8.71,19.41,22.21,21.12v7.25a1.36,1.36,0,0,0,1.37,1.36h9.39a1.36,1.36,0,0,0,1.36-1.36v-7.25c14-1.77,22.25-9.93,22.25-22.57S158.51,134.49,144.46,132.71Zm-12.12-.84c-10.12-1.78-10.12-8.06-10.12-10.35s0-8.57,10.12-10.35Zm12.12,33.76V144.94c10.12,1.77,10.12,8.06,10.12,10.35S154.58,163.86,144.46,165.63Z"/><circle class="lineal-fill" cx="359.43" cy="373.6" r="75.63"/><path class="lineal-stroke" d="M359.43,462.58a88.72,88.72,0,0,1-62.95-26,13.39,13.39,0,0,1,18.94-18.94,62.24,62.24,0,1,0,0-88,13.39,13.39,0,0,1-18.94-18.94,89,89,0,1,1,62.95,151.93Z"/><path class="lineal-stroke" d="M359.43,512C283.11,512,221,449.91,221,373.6a138.4,138.4,0,0,1,138.4-138.41c76.31,0,138.4,62.09,138.4,138.41a13.4,13.4,0,0,1-26.79,0A111.61,111.61,0,1,0,359.43,485.21a110.52,110.52,0,0,0,81.45-35.31,13.4,13.4,0,0,1,19.55,18.32A138.93,138.93,0,0,1,359.43,512Z"/><path class="lineal-stroke" d="M393.05,382.76a1.91,1.91,0,0,0-1.43-.64h-8.69a1.93,1.93,0,0,0-1.9,1.6,36.68,36.68,0,0,1-3.88,11.9c-3.07,5.41-7.44,8-13.37,8-6.51,0-11.23-2.5-14.46-7.68a30.42,30.42,0,0,1-3.8-9.11H371a1.94,1.94,0,0,0,1.86-1.38l2.29-7.61a1.95,1.95,0,0,0-1.85-2.5H344.22v-.73c0-1.41,0-2.68.07-3.81h26.8a1.94,1.94,0,0,0,1.86-1.39l2.24-7.62a1.94,1.94,0,0,0-.3-1.71,2,2,0,0,0-1.55-.77H346a25.24,25.24,0,0,1,3.84-8.51c3.65-4.95,8.29-7.36,14.19-7.36,4.84,0,8.44,1.26,11,3.89s4.44,6.29,5.34,11a2,2,0,0,0,1.91,1.57h8.75A1.94,1.94,0,0,0,393,358a2.12,2.12,0,0,0-.05-.44,32.16,32.16,0,0,0-8.15-18.69c-5-5.64-12-8.51-20.86-8.51-10.41,0-18.69,4.36-24.6,12.93a44.62,44.62,0,0,0-6.82,16.08h-9.73a1.93,1.93,0,0,0-1.85,1.38l-2.25,7.62a1.94,1.94,0,0,0,.31,1.71,1.92,1.92,0,0,0,1.55.77h10.68c0,.68,0,1.35,0,2,0,.85,0,1.7.05,2.54h-8.45a1.94,1.94,0,0,0-1.85,1.39l-2.25,7.56a1.93,1.93,0,0,0,1.86,2.49h11.8c1.55,8.89,4.81,16,9.7,21.13a27.34,27.34,0,0,0,20.66,8.9c9.49,0,17.12-3.65,22.7-10.83,4.59-5.89,7.33-13.22,8.15-21.78A1.92,1.92,0,0,0,393.05,382.76Z"/></svg>