<svg xmlns="http://www.w3.org/2000/svg" viewBox="0 0 512 511.97"><path class="lineal-stroke" d="M340.41,225.21A14.18,14.18,0,0,1,330.33,221l-40.65-40.65a14.24,14.24,0,0,1,0-20.16L417.44,32.46a14.26,14.26,0,0,1,20.17,20.16L319.93,170.3l20.48,20.49,34-34A14.26,14.26,0,0,1,394.58,177L350.49,221A14.18,14.18,0,0,1,340.41,225.21Z"/><polygon class="lineal-fill" points="349.85 48.6 497.71 14.26 463.38 162.12 349.85 48.6"/><path class="lineal-stroke" d="M463.38,176.38a14.26,14.26,0,0,1-10.09-4.18L339.77,58.68a14.25,14.25,0,0,1,6.86-24L494.49.37A14.26,14.26,0,0,1,511.6,17.49L477.26,165.35a14.25,14.25,0,0,1-13.88,11ZM378.1,56.68l77.2,77.2L478.65,33.33Z"/><path class="lineal-stroke" d="M84.45,483.69a14.26,14.26,0,0,1-10.08-24.34L192.05,341.67l-20.49-20.48-34,34A14.26,14.26,0,1,1,117.4,335l44.08-44.08a14.25,14.25,0,0,1,20.16,0l40.65,40.65a14.24,14.24,0,0,1,0,20.16L94.53,479.52A14.21,14.21,0,0,1,84.45,483.69Z"/><polygon class="lineal-fill" points="162.12 463.38 14.26 497.71 48.59 349.85 162.12 463.38"/><path class="lineal-stroke" d="M14.26,512A14.25,14.25,0,0,1,.37,494.49L34.71,346.63a14.25,14.25,0,0,1,24-6.86L172.2,453.29a14.26,14.26,0,0,1-6.85,24L17.48,511.6A14.15,14.15,0,0,1,14.26,512ZM56.67,378.1,33.32,478.65,133.88,455.3Z"/><path class="lineal-stroke" d="M469.43,441.78a14.21,14.21,0,0,1-10.08-4.17L341.67,319.93l-20.48,20.48,34,34A14.26,14.26,0,1,1,335,394.58L290.94,350.5a14.26,14.26,0,0,1,0-20.17l40.65-40.65a14.26,14.26,0,0,1,20.16,0L479.51,417.44a14.26,14.26,0,0,1-10.08,24.34Z"/><polygon class="lineal-fill" points="463.38 349.85 497.71 497.71 349.85 463.38 463.38 349.85"/><path class="lineal-stroke" d="M497.71,512a14.15,14.15,0,0,1-3.22-.37L346.63,477.27a14.25,14.25,0,0,1-6.86-24L453.29,339.77a14.26,14.26,0,0,1,24,6.86l34.12,146.94A14.27,14.27,0,0,1,497.87,512ZM378.1,455.3l100.55,23.35L455.3,378.1Z"/><path class="lineal-stroke" d="M170.3,226.47a14.21,14.21,0,0,1-10.08-4.17L32.46,94.54A14.26,14.26,0,0,1,52.62,74.37L170.3,192.05l20.49-20.49-34-34A14.26,14.26,0,0,1,177,117.4L221,161.48a14.24,14.24,0,0,1,0,20.16l-40.65,40.65A14.18,14.18,0,0,1,170.3,226.47Z"/><polygon class="lineal-fill" points="48.59 162.12 14.26 14.26 162.12 48.6 48.59 162.12"/><path class="lineal-stroke" d="M48.59,176.38a14.25,14.25,0,0,1-13.88-11L.37,17.49A14.26,14.26,0,0,1,17.48.37L165.34,34.71a14.25,14.25,0,0,1,6.86,24L58.68,172.2A14.24,14.24,0,0,1,48.59,176.38Zm-15.27-143L56.67,133.88l77.21-77.2Z"/></svg>