<svg xmlns="http://www.w3.org/2000/svg" viewBox="0 0 409.6 357.39"><path class="lineal-fill" d="M71.14,346H32.44A21.05,21.05,0,0,1,11.38,325V56.34A21.06,21.06,0,0,1,32.44,35.28h38.7a21.05,21.05,0,0,1,21,21.06V325a21,21,0,0,1-21,21.05Z"/><path class="lineal-stroke" d="M71.14,357.39H32.44A32.47,32.47,0,0,1,0,325V56.34A32.47,32.47,0,0,1,32.44,23.9h38.7a32.47,32.47,0,0,1,32.43,32.44V325a32.47,32.47,0,0,1-32.43,32.44ZM32.44,46.66a9.68,9.68,0,0,0-9.67,9.68V325a9.67,9.67,0,0,0,9.67,9.67h38.7A9.68,9.68,0,0,0,80.81,325V56.34a9.69,9.69,0,0,0-9.67-9.68Z"/><path class="lineal-stroke" d="M343,199.18H191.64a29.62,29.62,0,0,1-29.59-29.59V72.38a29.42,29.42,0,0,1,8.64-20.9L213.35,8.7a29.4,29.4,0,0,1,21-8.7H343a29.63,29.63,0,0,1,29.59,29.59v140A29.62,29.62,0,0,1,343,199.18ZM234.31,22.77a6.82,6.82,0,0,0-4.84,2L186.8,67.56a6.8,6.8,0,0,0-2,4.82v97.21a6.84,6.84,0,0,0,6.83,6.83H343a6.83,6.83,0,0,0,6.83-6.83v-140A6.84,6.84,0,0,0,343,22.77Z"/><path class="lineal-stroke" d="M380,357.39H154.65a29.63,29.63,0,0,1-29.59-29.6V103.57A29.62,29.62,0,0,1,154.65,74h15.94a11.38,11.38,0,0,1,0,22.76H154.65a6.84,6.84,0,0,0-6.83,6.83V327.79a6.83,6.83,0,0,0,6.83,6.83H380a6.84,6.84,0,0,0,6.83-6.83V103.57A6.84,6.84,0,0,0,380,96.75H362.93a11.39,11.39,0,0,1,0-22.77H380a29.63,29.63,0,0,1,29.59,29.59V327.8A29.63,29.63,0,0,1,380,357.39Z"/><path class="lineal-stroke" d="M216.11,249.26H185.38a11.38,11.38,0,0,1,0-22.76h30.73a11.38,11.38,0,0,1,0,22.76Z"/><path class="lineal-stroke" d="M282.7,249.26H252a11.38,11.38,0,0,1,0-22.76H282.7a11.38,11.38,0,0,1,0,22.76Z"/><path class="lineal-stroke" d="M349.28,249.26H318.55a11.38,11.38,0,1,1,0-22.76h30.73a11.38,11.38,0,1,1,0,22.76Z"/><path class="lineal-stroke" d="M216.11,302.75H185.38a11.38,11.38,0,1,1,0-22.76h30.73a11.38,11.38,0,1,1,0,22.76Z"/><path class="lineal-stroke" d="M282.7,302.75H252A11.38,11.38,0,1,1,252,280H282.7a11.38,11.38,0,0,1,0,22.76Z"/><path class="lineal-stroke" d="M349.28,302.75H318.55a11.38,11.38,0,1,1,0-22.76h30.73a11.38,11.38,0,1,1,0,22.76Z"/></svg>