<svg xmlns="http://www.w3.org/2000/svg" viewBox="0 0 409.6 377.43"><path class="lineal-stroke" d="M352.44,377.43H301.18A18.49,18.49,0,0,1,282.72,359V121.2H262.5a18.47,18.47,0,0,1-14.67-29.68l64.3-84.26a18.46,18.46,0,0,1,29.36,0l64.3,84.25a18.47,18.47,0,0,1-14.67,29.68h-32a11.76,11.76,0,1,1,0-23.51h21.78L326.81,26.78,272.69,97.69h21.78a11.76,11.76,0,0,1,11.76,11.75V353.92h41.16V163a11.76,11.76,0,0,1,23.51,0V359a18.49,18.49,0,0,1-18.46,18.47Z"/><path class="lineal-fill" d="M152.33,157.16V359a6.71,6.71,0,0,0,6.72,6.71H210.3A6.71,6.71,0,0,0,217,359V157.16a6.72,6.72,0,0,0-6.71-6.72H159.05a6.72,6.72,0,0,0-6.72,6.72Z"/><path class="lineal-stroke" d="M210.3,377.43H159A18.49,18.49,0,0,1,140.58,359V157.16A18.48,18.48,0,0,1,159,138.69H210.3a18.48,18.48,0,0,1,18.46,18.47V359a18.49,18.49,0,0,1-18.46,18.47Zm-46.21-23.51h41.16V162.2H164.09Z"/><path class="lineal-stroke" d="M69.71,377.43H18.46A18.49,18.49,0,0,1,0,359V243a18.49,18.49,0,0,1,18.46-18.46H69.71a11.76,11.76,0,1,1,0,23.51H23.51V353.92H64.68v-61a11.75,11.75,0,1,1,23.5,0v66a18.49,18.49,0,0,1-18.47,18.47Z"/></svg>