<svg xmlns="http://www.w3.org/2000/svg" viewBox="0 0 511.99 512"><path class="lineal-fill" d="M308,164.23c-29.15,0-52,22.67-52,22.67s-21.56-22.67-52-22.67c-29.63,0-53.83,25.51-55.41,56.4-.9,17.44,4.49,30.72,12.09,42.75,15.17,24,95.45,84.39,95.45,84.39s80-60.16,95.26-84.39c7.61-12.08,13-25.31,12.09-42.75-1.59-30.89-25.78-56.4-55.42-56.4"/><path class="lineal-stroke" d="M256.09,362.29a14.5,14.5,0,0,1-8.72-2.92c-8.44-6.34-82.88-62.7-99-88.24-6.72-10.65-15.52-27.55-14.31-51.25,2-39.35,32.73-70.17,69.91-70.17,22.91,0,41.42,10.4,52.2,18.35,11-7.88,29.74-18.35,51.87-18.35,37.18,0,67.89,30.82,69.91,70.17,1.21,23.65-7.59,40.57-14.31,51.24-16.22,25.75-90.41,81.93-98.81,88.25A14.55,14.55,0,0,1,256.09,362.29ZM204,178.75c-21.35,0-39.71,19.12-40.91,42.62-.62,12.08,2.33,22.32,9.86,34.26,9.11,14.42,52.64,50.4,83.18,73.89,30.43-23.42,73.81-59.34,83-73.88,7.54-12,10.5-22.22,9.88-34.27-1.21-23.5-19.56-42.62-40.92-42.62-22.61,0-41.66,18.32-41.85,18.5a14.55,14.55,0,0,1-20.69-.34C245.35,196.78,227.56,178.75,204,178.75Z"/><path class="lineal-stroke" d="M256,512A254.35,254.35,0,0,1,75,437a14.52,14.52,0,0,1,20.54-20.53,227,227,0,1,0,321-321,227,227,0,0,0-321,0A227.76,227.76,0,0,0,36.86,315.24a14.52,14.52,0,0,1-28,7.55A255.89,255.89,0,0,1,75,75,256,256,0,0,1,437,437,254.33,254.33,0,0,1,256,512Z"/><path class="lineal-stroke" d="M256,452C147.9,452,60,364.09,60,256S147.9,60,256,60a196.7,196.7,0,0,1,170,98.36,14.51,14.51,0,0,1-25.16,14.48A167.6,167.6,0,0,0,256,89C163.91,89,89,163.92,89,256s74.91,167,167,167,167-74.91,167-167a14.52,14.52,0,1,1,29,0C452,364.09,364.08,452,256,452Z"/></svg>