<svg xmlns="http://www.w3.org/2000/svg" viewBox="0 0 317.51 409.6"><path class="lineal-stroke" d="M294.84,386.05a11.51,11.51,0,0,1-11.51-11.51V105.48a11.51,11.51,0,0,1,23,0V374.54a11.51,11.51,0,0,1-11.51,11.51Z"/><path class="lineal-stroke" d="M22.67,371.05a11.51,11.51,0,0,1-11.51-11.51V33.41a11.51,11.51,0,0,1,23,0V359.54a11.51,11.51,0,0,1-11.51,11.51Z"/><path class="lineal-stroke" d="M158.76,215.8A110.83,110.83,0,0,1,48.06,105.1V19a11.51,11.51,0,0,1,23,0V105.1a87.68,87.68,0,0,0,175.36,0,11.51,11.51,0,1,1,23,0,110.83,110.83,0,0,1-110.7,110.7Z"/><path class="lineal-fill" d="M284.11,55.3H33.41a21.9,21.9,0,1,1,0-43.79h250.7a21.9,21.9,0,0,1,0,43.79Z"/><path class="lineal-stroke" d="M284.11,66.81H33.41A33.41,33.41,0,1,1,33.41,0h250.7a33.41,33.41,0,0,1,0,66.81ZM33.41,23a10.39,10.39,0,1,0,0,20.77h250.7a10.39,10.39,0,0,0,0-20.77Z"/><path class="lineal-stroke" d="M59.57,402.12a11.51,11.51,0,0,1-11.51-11.51V304.5a110.7,110.7,0,1,1,221.39,0,11.51,11.51,0,1,1-23,0,87.68,87.68,0,1,0-175.35,0v86.11a11.51,11.51,0,0,1-11.51,11.51Z"/><path class="lineal-fill" d="M109.78,385V315.66a49,49,0,0,1,97.95,0V385Z"/><path class="lineal-stroke" d="M207.73,396.55H109.78A11.52,11.52,0,0,1,98.27,385V315.66a60.49,60.49,0,0,1,121,0V385a11.51,11.51,0,0,1-11.51,11.51Zm-86.43-23h74.92V315.66a37.46,37.46,0,1,0-74.92,0Z"/><path class="lineal-fill" d="M33.41,354.3h250.7a21.9,21.9,0,0,1,0,43.79H33.41a21.9,21.9,0,1,1,0-43.79Z"/><path class="lineal-stroke" d="M284.11,409.6H33.41a33.41,33.41,0,1,1,0-66.81h250.7a33.41,33.41,0,0,1,0,66.81ZM33.41,365.81a10.39,10.39,0,1,0,0,20.77h250.7a10.39,10.39,0,0,0,0-20.77Z"/></svg>