<svg xmlns="http://www.w3.org/2000/svg" viewBox="0 0 506.19 512"><path class="lineal-stroke" d="M146.33,288.23V241.72c18.56,3.25,21.36,13.54,21.78,19.59a2.93,2.93,0,0,0,2.94,2.75h20.27a3,3,0,0,0,3-3.14c-1.32-25.51-18.8-41.92-47.95-45.61V199.67a3,3,0,0,0-3-2.95H123.11a3,3,0,0,0-3,2.95v15.64c-30.32,3.84-48,21.45-48,48.75s17.7,44.91,48,48.75v46.51c-18.56-3.26-21.35-13.55-21.77-19.6A3,3,0,0,0,95.44,337H75.16a3,3,0,0,0-3,3.14C73.52,365.62,91,382,120.15,385.72v15.64a3,3,0,0,0,2.95,2.95h20.28a3,3,0,0,0,3-2.95V385.72c30.33-3.83,48-21.45,48-48.75S176.66,292.06,146.33,288.23Zm-26.18-1.82C98.31,282.58,98.3,269,98.3,264.07s0-18.52,21.85-22.35Zm26.18,72.91V314.63c21.85,3.83,21.85,17.4,21.85,22.34S168.18,355.49,146.33,359.32Z"/><path class="lineal-stroke" d="M407.05,512H15.86A15.86,15.86,0,0,1,0,496.14V160.78a15.86,15.86,0,0,1,31.72,0v319.5H407.05a15.86,15.86,0,1,1,0,31.72Z"/><rect class="lineal-fill" x="389.96" y="81.5" width="98.79" height="60.23" transform="translate(120.69 434.02) rotate(-59.59)"/><path class="lineal-fill" d="M137.92,126.64H395.63l42.75-72.85,35,20.54a69.55,69.55,0,0,0-68.43-58.45H82.51A69.49,69.49,0,0,1,151.8,85.17h0A68.86,68.86,0,0,1,137.92,126.64Z"/><path class="lineal-stroke" d="M505.68,80.29a15.86,15.86,0,0,0-7.32-9.68l-10.93-6.42C477.91,27.12,443.75,0,404.94,0h-316L86.11,0A86,86,0,0,0,0,86a15.86,15.86,0,0,0,31.72,0A54.54,54.54,0,0,1,81.6,31.7c.3,0,.6,0,.91,0a53.49,53.49,0,0,1,53.43,53.43,52.81,52.81,0,0,1-10.7,32,15.85,15.85,0,0,0,12.68,25.38h230L246.17,349.94a15.87,15.87,0,0,0-1.57,12.38l11.42,40a15.86,15.86,0,0,0,15.24,11.51,16.29,16.29,0,0,0,3.65-.42l40.52-9.55a15.83,15.83,0,0,0,10-7.41l65.72-112V420.07a15.86,15.86,0,0,0,31.72,0V228.49a16.21,16.21,0,0,0-30-9.62L301.55,374.58l-19.18,4.51L277,360.15,394,160.7l38.26,22.46A15.87,15.87,0,0,0,454,177.51l50-85.2A15.85,15.85,0,0,0,505.68,80.29ZM148.76,31.74H404.94A52.94,52.94,0,0,1,432,39.26l-.17.09a17.64,17.64,0,0,0-1.92,1l-.28.2a14.82,14.82,0,0,0-1.7,1.28l-.13.11a15.63,15.63,0,0,0-1.55,1.6l-.29.36a16.45,16.45,0,0,0-1.29,1.85l-38.16,65H163.72a85.15,85.15,0,0,0-15-79.05Zm285.91,116-24.58-14.43L444,75.5l24.58,14.43Z"/></svg>