<svg xmlns="http://www.w3.org/2000/svg" viewBox="0 0 409.6 306.75"><path class="lineal-stroke" d="M383.05,259.54H26.55V36.19A36.23,36.23,0,0,1,62.74,0H346.86a36.22,36.22,0,0,1,36.19,36.19ZM48.63,237.46H361V36.19a14.12,14.12,0,0,0-14.1-14.11H62.74A14.13,14.13,0,0,0,48.63,36.19Z"/><path class="lineal-stroke" d="M338.88,259.54H70.72V69.26a25.12,25.12,0,0,1,25.09-25.1h218a25.13,25.13,0,0,1,25.1,25.1H316.8a3,3,0,0,0-3-3h-218a3,3,0,0,0-3,3v168.2h224V113.66h22.08Z"/><path class="lineal-fill" d="M386.48,295.71H23.12A12.08,12.08,0,0,1,11,283.63v-23A12.08,12.08,0,0,1,23.12,248.5H386.48a12.08,12.08,0,0,1,12.08,12.09v23a12.08,12.08,0,0,1-12.08,12.08Z"/><path class="lineal-stroke" d="M386.48,306.75H23.12A23.14,23.14,0,0,1,0,283.63v-23a23.14,23.14,0,0,1,23.12-23.12H386.48a23.14,23.14,0,0,1,23.12,23.12v23a23.14,23.14,0,0,1-23.12,23.12ZM23.12,259.54a1,1,0,0,0-1,1v23a1,1,0,0,0,1,1H386.48a1,1,0,0,0,1-1v-23a1,1,0,0,0-1-1Z"/></svg>