<svg xmlns="http://www.w3.org/2000/svg" viewBox="0 0 409.6 403.98"><path class="lineal-fill" d="M300.86,202,198.11,135.91v38.86H13v54.45H198.11v38.85Z"/><path class="lineal-stroke" d="M198.11,281.1a13,13,0,0,1-13-13V242.24H13a13,13,0,0,1-13-13V174.76a13,13,0,0,1,13-13H185.09V135.91a13,13,0,0,1,20.07-11L307.9,191a13,13,0,0,1,0,21.91L205.16,279a13,13,0,0,1-7,2.07ZM26.05,216.19H198.11a13,13,0,0,1,13,13v15L276.78,202l-65.64-42.22v15a13,13,0,0,1-13,13H26.05Z"/><path class="lineal-stroke" d="M396.57,404H93.75a13,13,0,0,1-13-13V325.07a13,13,0,0,1,26,0v52.87H383.55V26.05H106.77V78.91a13,13,0,1,1-26,0V13a13,13,0,0,1,13-13H396.57a13,13,0,0,1,13,13V391a13,13,0,0,1-13,13Z"/></svg>