<svg xmlns="http://www.w3.org/2000/svg" viewBox="0 0 512 512"><polygon class="lineal-fill" points="449.87 151.95 482.93 275.33 359.55 242.27 449.87 151.95"/><path class="lineal-stroke" d="M497.89,270.25,465.1,147.87a15.76,15.76,0,0,0-26.38-7.07l-12.05,12L346.08,72.25a15.78,15.78,0,0,0-22.31,0l-43.92,43.93a15.76,15.76,0,0,0,0,22.3L338.33,197a15.77,15.77,0,1,0,22.3-22.3L313.3,127.33l21.62-21.63,69.44,69.45-56,56a15.77,15.77,0,0,0,7.07,26.38l123.38,33.06a15.83,15.83,0,0,0,4.08.54h.19a15.77,15.77,0,0,0,15.62-15.77A15.51,15.51,0,0,0,497.89,270.25ZM390,234.11l51.69-51.69L460.62,253Z"/><rect class="lineal-fill" x="274.03" y="367.39" width="77.99" height="128.84"/><path class="lineal-stroke" d="M496.23,416h-78a15.77,15.77,0,1,0,0,31.54h62.22v32.88H367.8V367.39A15.78,15.78,0,0,0,352,351.62H274a15.77,15.77,0,0,0-15.77,15.77V480.46H223.59V273.35a15.77,15.77,0,0,0-15.77-15.77h-78a15.77,15.77,0,0,0-15.77,15.77v134a15.77,15.77,0,1,0,31.54,0V289.12h46.45V480.46H31.54V15.77A15.77,15.77,0,0,0,0,15.77V496.23A15.77,15.77,0,0,0,15.77,512H496.23A15.77,15.77,0,0,0,512,496.23V431.81A15.77,15.77,0,0,0,496.23,416ZM289.8,480.46V383.17h46.45v97.29Z"/></svg>