<svg xmlns="http://www.w3.org/2000/svg" viewBox="0 0 512 457.97"><path class="lineal-fill" d="M286.5,180.78c-18.21,0-26.38,10.21-29.59,16.2a1.08,1.08,0,0,1-1.9,0c-3.21-6-11.33-16.2-29.54-16.2-20.74,0-39,14.16-39,40a54.24,54.24,0,0,0,8,29.43c12.06,20.38,51.78,46.81,59.94,52a2.74,2.74,0,0,0,3,0c8.16-5.18,47.9-31.48,60.05-52a54.22,54.22,0,0,0,8-29.43C325.51,194.94,307.24,180.78,286.5,180.78Z"/><path class="lineal-stroke" d="M256,316.82h0a16.91,16.91,0,0,1-9.09-2.65c-8.3-5.3-50.43-32.93-64.51-56.74a68.28,68.28,0,0,1-10-36.64c0-31.38,22.34-54.16,53.13-54.16,13.91,0,23.74,4.56,30.5,9.92,6.76-5.36,16.61-9.92,30.53-9.92,30.81,0,53.16,22.78,53.16,54.16a68.25,68.25,0,0,1-10,36.64c-14.19,24-56.34,51.49-64.65,56.76A16.86,16.86,0,0,1,256,316.82ZM225.47,194.94c-11.45,0-24.83,6.77-24.83,25.85A40.3,40.3,0,0,0,206.72,243c7.43,12.57,31.56,31.35,49.25,43.27,17.69-11.87,41.84-30.61,49.33-43.27a40.38,40.38,0,0,0,6.06-22.22c0-19.08-13.39-25.86-24.86-25.86-8.25,0-14,2.94-17.12,8.74a15.24,15.24,0,0,1-26.86,0C239.43,197.87,233.7,194.94,225.47,194.94Z"/><path class="lineal-stroke" d="M130.67,458c-8.1,0-19.71-3.73-44.41-31.37C74.07,413,64.07,399.53,63.65,399a14.32,14.32,0,0,1-1-1.56A58.57,58.57,0,0,1,55.29,369V301.34a14.15,14.15,0,0,1,14.15-14.15H155.9a50,50,0,0,1,35.31,14.46l44.27,43.56a36.25,36.25,0,1,1-51.18,51.34L141,353.28l-9.66-.06a14.16,14.16,0,0,1,.08-28.31h.07c5.35,0,9.26.06,11.84.09,5.33.07,9.54.13,13.67,4.25l47.28,47.29a7.94,7.94,0,0,0,11.23-11.24l-44.18-43.48a21.93,21.93,0,0,0-15.46-6.33H83.59V369A30.14,30.14,0,0,0,87,382.9c16.91,22.62,37.33,44.05,44.52,46.77l115,0c7.14,0,15.91-4,24.27-8,6.87-3.33,59.31-38.81,94.36-62.95.24-.16.48-.32.73-.46a9.49,9.49,0,0,0,3.22-13,9.47,9.47,0,0,0-12.79-3.34l-64.07,42.48a14.15,14.15,0,1,1-15.64-23.58L341,318.09l.52-.33a37.77,37.77,0,0,1,39.39,64.46c-15.12,10.41-86.6,59.5-97.77,64.9S259.62,458,246.49,458l-115.82,0Z"/><rect class="lineal-fill" x="14.15" y="288.21" width="73.13" height="141.2"/><path class="lineal-stroke" d="M87.28,443.56H14.15A14.16,14.16,0,0,1,0,429.41V288.21a14.15,14.15,0,0,1,14.15-14.15H87.28a14.14,14.14,0,0,1,14.15,14.15v141.2A14.15,14.15,0,0,1,87.28,443.56Zm-59-28.31H73.13V302.36H28.3Z"/><path class="lineal-stroke" d="M442.56,170.79H356.11a50.09,50.09,0,0,1-35.32-14.46l-44.27-43.56a36.25,36.25,0,1,1,51.19-51.35L371,104.69l9.66.07a14.15,14.15,0,0,1-.07,28.3h-.08c-5.34,0-9.25-.06-11.84-.09-5.33-.07-9.54-.12-13.66-4.25L307.69,81.44a7.94,7.94,0,0,0-11.23,11.23l44.18,43.48a21.93,21.93,0,0,0,15.46,6.33h72.3V88.94A30.13,30.13,0,0,0,425,75.07C408.11,52.45,387.69,31,380.5,28.3l-115,0c-7.14,0-15.91,4-24.28,8-6.86,3.33-59.3,38.82-94.35,63-.24.16-.48.32-.73.47a9.47,9.47,0,0,0,9.56,16.34L219.79,73.6a14.15,14.15,0,0,1,15.64,23.59l-64.38,42.7-.52.32a37.77,37.77,0,0,1-39.39-64.46c15.11-10.4,86.6-59.49,97.77-64.9C240.23,5.37,252.38,0,265.51,0L381.32,0h0c8.1,0,19.72,3.73,44.41,31.37C437.94,45,447.93,58.44,448.35,59a14.32,14.32,0,0,1,1,1.56,58.57,58.57,0,0,1,7.35,28.37v67.69A14.16,14.16,0,0,1,442.56,170.79Z"/><rect class="lineal-fill" x="424.72" y="28.56" width="73.13" height="141.2"/><path class="lineal-stroke" d="M497.85,183.92H424.72a14.15,14.15,0,0,1-14.15-14.16V28.56a14.15,14.15,0,0,1,14.15-14.15h73.13A14.16,14.16,0,0,1,512,28.56v141.2A14.16,14.16,0,0,1,497.85,183.92Zm-59-28.31H483.7V42.72H438.87Z"/></svg>