<svg xmlns="http://www.w3.org/2000/svg" viewBox="0 0 512 461.58"><path class="lineal-fill" d="M138.37,119.2h41.75a49.25,49.25,0,0,1,49.25,49.25v72.79H76.89V168.45a49.24,49.24,0,0,1,49.24-49.25h41.76"/><path class="lineal-fill" d="M347.33,119.2h41.76a49.25,49.25,0,0,1,49.25,49.25v72.79H285.85V168.45A49.25,49.25,0,0,1,335.1,119.2h41.76"/><path class="lineal-stroke" d="M497.07,226.31h-43.8V168.44a64.21,64.21,0,0,0-34.45-56.84,50,50,0,0,0,8.44-27.87V50.4a14.93,14.93,0,1,0-29.86,0V83.73A20.56,20.56,0,0,1,377,104.27H347.16a20.56,20.56,0,0,1-20.37-20.54V50.4a20.57,20.57,0,0,1,20.54-20.55h29.53a14.93,14.93,0,0,0,0-29.85H347.33a50.45,50.45,0,0,0-50.39,50.4V83.73a50,50,0,0,0,8.43,27.87,64.23,64.23,0,0,0-34.45,56.84v57.87H244.3V168.44a64.22,64.22,0,0,0-34.44-56.84,50.12,50.12,0,0,0,8.43-27.87V50.4a14.93,14.93,0,1,0-29.86,0V83.73a20.56,20.56,0,0,1-20.37,20.54H138.19a20.57,20.57,0,0,1-20.37-20.54V50.4a20.57,20.57,0,0,1,20.55-20.55h29.52a14.93,14.93,0,1,0,0-29.85H138.37A50.46,50.46,0,0,0,88,50.4V83.73A50.12,50.12,0,0,0,96.4,111.6,64.22,64.22,0,0,0,62,168.45v57.87h-47a14.93,14.93,0,1,0,0,29.85H43.28L99.89,450.82a14.92,14.92,0,0,0,14.33,10.76H397.78a14.92,14.92,0,0,0,14.33-10.76l37.26-128.1v0l.07-.24c0-.14.06-.27.1-.41.08-.31.16-.62.22-.93s.08-.5.11-.75.07-.46.09-.69,0-.68,0-1c0-.12,0-.24,0-.37v-.09c0-.37,0-.73-.06-1.1,0-.13,0-.27,0-.41,0-.32-.09-.64-.14-.95s-.05-.36-.09-.54-.12-.46-.18-.69-.12-.5-.2-.74-.1-.27-.15-.4c-.11-.33-.22-.65-.36-1a1.76,1.76,0,0,1-.09-.2c-.17-.37-.34-.73-.54-1.09,0-.08-.09-.15-.14-.23-.19-.33-.38-.66-.6-1s-.29-.38-.43-.58-.27-.37-.41-.54-.52-.59-.79-.87l-.17-.18a12.21,12.21,0,0,0-.92-.84l-.14-.13c-.27-.22-.55-.42-.84-.63-.11-.07-.21-.16-.33-.24l-.68-.41-.59-.35-.51-.25c-.28-.13-.56-.27-.86-.39-.13-.06-.27-.1-.4-.15-.34-.13-.67-.25-1-.35l-.09,0-.38-.1c-.32-.08-.64-.16-1-.22s-.49-.08-.73-.11-.47-.08-.71-.1-.67,0-1-.05l-.38,0H203.36a14.93,14.93,0,0,0,0,29.85H415.23l-28.66,98.53H125.43L74.37,256.17h422.7a14.93,14.93,0,0,0,0-29.86Zm-405.26,0V168.44a34.36,34.36,0,0,1,34.32-34.32H138.2v53.56a14.93,14.93,0,0,0,29.86,0V134.13h12.07a34.36,34.36,0,0,1,34.32,34.32v57.87Zm209,0V168.44a34.36,34.36,0,0,1,34.32-34.32h12.07v53.56a14.93,14.93,0,0,0,29.85,0V134.13h12.07a34.36,34.36,0,0,1,34.32,34.32v57.87Z"/></svg>