<svg xmlns="http://www.w3.org/2000/svg" viewBox="0 0 409.59 409.6"><path class="lineal-stroke" d="M381.14,409.59H258.24a28.48,28.48,0,0,1-28.45-28.45V258.24a28.49,28.49,0,0,1,28.45-28.45h73.33a12.42,12.42,0,1,1,0,24.84H258.24a3.62,3.62,0,0,0-3.62,3.61v122.9a3.63,3.63,0,0,0,3.62,3.62h122.9a3.63,3.63,0,0,0,3.62-3.62V319.69a12.42,12.42,0,1,1,24.83,0v61.45a28.48,28.48,0,0,1-28.45,28.45Z"/><path class="lineal-fill" d="M12.42,151.35V28.46a16,16,0,0,1,16-16H151.35a16,16,0,0,1,16,16V151.35a16,16,0,0,1-16,16H28.46a16,16,0,0,1-16-16Z"/><path class="lineal-stroke" d="M151.35,179.81H28.46A28.5,28.5,0,0,1,0,151.35V28.46A28.5,28.5,0,0,1,28.46,0H151.35a28.5,28.5,0,0,1,28.46,28.46V151.35a28.5,28.5,0,0,1-28.46,28.46ZM28.46,24.84a3.62,3.62,0,0,0-3.62,3.62V151.35A3.62,3.62,0,0,0,28.46,155H151.35a3.63,3.63,0,0,0,3.62-3.62V28.46a3.62,3.62,0,0,0-3.62-3.62Z"/><path class="lineal-fill" d="M242.21,151.35V28.46a16,16,0,0,1,16-16h122.9a16,16,0,0,1,16,16V151.35a16,16,0,0,1-16,16H258.24a16,16,0,0,1-16-16Z"/><path class="lineal-stroke" d="M381.14,179.81H258.24a28.49,28.49,0,0,1-28.45-28.46V28.46A28.49,28.49,0,0,1,258.24,0h122.9a28.49,28.49,0,0,1,28.45,28.46V151.35a28.49,28.49,0,0,1-28.45,28.46Zm-122.9-155a3.63,3.63,0,0,0-3.62,3.62V151.35a3.63,3.63,0,0,0,3.62,3.62h122.9a3.63,3.63,0,0,0,3.62-3.62V28.46a3.63,3.63,0,0,0-3.62-3.62Z"/><path class="lineal-fill" d="M12.42,381.15V258.25a16,16,0,0,1,16-16H151.35a16,16,0,0,1,16,16v122.9a16,16,0,0,1-16,16H28.46a16,16,0,0,1-16-16Z"/><path class="lineal-stroke" d="M151.35,409.6H28.46A28.49,28.49,0,0,1,0,381.15V258.25a28.5,28.5,0,0,1,28.46-28.46H151.35a28.5,28.5,0,0,1,28.46,28.46v122.9a28.49,28.49,0,0,1-28.46,28.45Zm-122.89-155a3.62,3.62,0,0,0-3.62,3.62v122.9a3.62,3.62,0,0,0,3.62,3.61H151.35a3.62,3.62,0,0,0,3.62-3.61V258.25a3.62,3.62,0,0,0-3.62-3.62Z"/></svg>