<svg xmlns="http://www.w3.org/2000/svg" viewBox="0 0 512 512"><path class="lineal-stroke" d="M457.26,512a13.88,13.88,0,0,1-9.83-4.07L322.92,383.42a13.9,13.9,0,0,1,19.65-19.66L457.26,478.45l20-20-33.13-33.13a13.89,13.89,0,1,1,19.65-19.65l43,43a13.89,13.89,0,0,1,0,19.65l-39.62,39.62A13.86,13.86,0,0,1,457.26,512Z"/><polygon class="lineal-fill" points="338.65 449.29 305.19 305.19 449.29 338.65 338.65 449.29"/><path class="lineal-stroke" d="M338.65,463.18a13.51,13.51,0,0,1-3.82-.54,13.86,13.86,0,0,1-9.72-10.21l-33.46-144.1a13.9,13.9,0,0,1,16.68-16.68l144.1,33.46a13.89,13.89,0,0,1,6.68,23.36L348.48,459.11A13.93,13.93,0,0,1,338.65,463.18ZM323.76,323.77l22.76,98,75.24-75.24Z"/><path class="lineal-stroke" d="M179.25,152.3a13.8,13.8,0,0,1-9.82-4.07L54.74,33.55l-20,20L67.91,86.65A13.89,13.89,0,0,1,48.26,106.3l-43-43a13.89,13.89,0,0,1,0-19.65L44.92,4.07a13.89,13.89,0,0,1,19.65,0L189.08,128.58a13.9,13.9,0,0,1-9.83,23.72Z"/><polygon class="lineal-fill" points="173.35 62.71 206.81 206.81 62.71 173.35 173.35 62.71"/><path class="lineal-stroke" d="M206.81,220.71a14,14,0,0,1-3.14-.36L59.57,186.89a13.9,13.9,0,0,1-6.68-23.37L163.52,52.89a13.89,13.89,0,0,1,23.36,6.68l33.26,143.21A13.89,13.89,0,0,1,207,220.71ZM90.24,165.48l98,22.75-22.75-98Z"/><path class="lineal-stroke" d="M53.51,510.77a13.86,13.86,0,0,1-9.82-4.07L4.07,467.08a13.89,13.89,0,0,1,0-19.65L128.58,322.92a13.89,13.89,0,0,1,19.65,19.65L33.55,457.26l20,20,33.14-33.14a13.9,13.9,0,1,1,19.65,19.66l-43,43A13.86,13.86,0,0,1,53.51,510.77Z"/><polygon class="lineal-fill" points="62.71 338.65 206.81 305.19 173.35 449.29 62.71 338.65"/><path class="lineal-stroke" d="M173.35,463.18a13.93,13.93,0,0,1-9.83-4.07L52.89,348.47a13.89,13.89,0,0,1,6.68-23.36l144.1-33.46a13.9,13.9,0,0,1,16.68,16.68l-33.46,144.1a13.87,13.87,0,0,1-13.54,10.75ZM90.24,346.52l75.24,75.24,22.75-98Z"/><path class="lineal-stroke" d="M373.59,193.15a13.9,13.9,0,0,1-9.82-23.72L478.45,54.74l-20-20L425.35,67.91A13.89,13.89,0,1,1,405.7,48.26l43-43a13.89,13.89,0,0,1,19.65,0l39.62,39.62a13.89,13.89,0,0,1,0,19.65L383.42,189.08A13.88,13.88,0,0,1,373.59,193.15Z"/><polygon class="lineal-fill" points="449.29 173.35 305.19 206.81 338.65 62.71 449.29 173.35"/><path class="lineal-stroke" d="M305.18,220.71a13.9,13.9,0,0,1-13.53-17l33.46-144.1a13.89,13.89,0,0,1,23.36-6.68L459.11,163.52a13.9,13.9,0,0,1-6.68,23.36l-144.1,33.47A14,14,0,0,1,305.18,220.71ZM346.52,90.24l-22.76,98,98-22.75Z"/></svg>