<svg xmlns="http://www.w3.org/2000/svg" viewBox="0 0 512 512"><path class="lineal-stroke" d="M256,420.13c-.37,0-.73,0-1.09,0A164.13,164.13,0,1,1,420.13,256,167.91,167.91,0,0,1,419,275.25a164.62,164.62,0,0,1-46.1,95.94,15.19,15.19,0,0,1-21.64-21.32,134,134,0,0,0,37.56-78.15,136,136,0,0,0,.92-15.72,133.77,133.77,0,1,0-134.4,133.74h.6a15.19,15.19,0,0,1,.05,30.38Z"/><path class="lineal-fill" d="M322.62,179.65c-29.5,17.19-29.79,62.18-45,80.21s-78.74-26.51-76.84-54-7-24-12.08-28.34c-3.23-2.73,14-37.7,12.34-58.44,17-6.76,35.58-12,55-12,30.4,0,58.69,10.65,82.26,26.29C339.65,151.91,337.34,171.07,322.62,179.65Z"/><path class="lineal-stroke" d="M267,279.23c-21.36,0-47.58-17.67-62.9-34.08-9-9.69-19.58-24.56-18.49-40.35.45-6.55.13-10-.16-11.66a27.94,27.94,0,0,1-6.58-4c-9.12-7.69-5.87-17.7-1-32.85,3.46-10.67,8.7-26.81,8-36A15.19,15.19,0,0,1,195.4,105c22.15-8.8,42-13.08,60.6-13.08,30.89,0,62.24,10,90.66,28.82a15.17,15.17,0,0,1,6.74,11.52c2.24,29.94-5.54,50.32-23.13,60.56-13.24,7.72-19.14,25.32-24.84,42.34-4.38,13.07-8.52,25.42-16.25,34.57C285.49,274,278.64,279.23,267,279.23ZM205.42,169.86c8.78,7,11.78,18.13,10.48,37-.15,2.06,1.84,8.36,10.39,17.52,13.4,14.36,32.12,24.38,40.61,24.44,3.59-5.09,6.7-14.39,9.72-23.4C283.41,205.2,291.85,180,315,166.52c6.68-3.88,8.45-14.41,8.44-24.58C301.79,129,278.63,122.25,256,122.25c-12.42,0-25.37,2.4-40.18,7.51-1.42,12.36-5.69,25.54-9,35.86C206.36,166.94,205.88,168.42,205.42,169.86Z"/><path class="lineal-fill" d="M256,405.38c-45.09-.2-86.18-22.44-113.35-54.28C161,328.57,199.46,338,210.74,315,230,275.73,291.54,352.41,256,405.38Z"/><path class="lineal-stroke" d="M256,420.56h-.07c-47.18-.2-92.69-21.93-124.83-59.6a15.18,15.18,0,0,1-.23-19.44c12.09-14.87,29.58-19.24,43.64-22.75,12.34-3.08,20-5.23,22.59-10.44,6-12.26,16.37-19.29,28.39-19.29,16.31,0,33.55,13.34,45,34.83,12.52,23.47,18.6,59.43-1.89,90A15.19,15.19,0,0,1,256,420.56ZM165.57,353.1c22.85,21.22,52.1,34.42,81.75,36.73,8-17.82,3.75-37.84-3.62-51.67-7.19-13.47-15.31-18.3-17.88-18.71a9.47,9.47,0,0,0-1.45,2.27c-8.91,18.14-27.54,22.79-42.5,26.53A120.23,120.23,0,0,0,165.57,353.1Z"/><path class="lineal-fill" d="M402.39,273.48c-3.93,33.76-17.46,64.06-40.11,87-26-5.34-31.13-28.73-45.26-44.91-33.16-38,27.32-46.53,61-46.53A68,68,0,0,1,402.39,273.48Z"/><path class="lineal-stroke" d="M362.28,375.72a15.06,15.06,0,0,1-3.06-.31c-24.65-5.07-35.45-22.29-44.12-36.13a107.59,107.59,0,0,0-9.52-13.67c-16.21-18.57-14.78-33.12-10.72-42.05C306.59,257.75,352,253.9,378,253.9a82.39,82.39,0,0,1,29.48,5.29,15.18,15.18,0,0,1,10,16.05c-4.4,37.77-19.75,70.95-44.39,95.95A15.16,15.16,0,0,1,362.28,375.72ZM322.59,296c.07.62.67,3.67,5.87,9.64a132.26,132.26,0,0,1,12.38,17.52c6,9.57,10.37,16.11,16.94,19.77,13.57-16.15,22.9-35.95,27.45-58.2a55.1,55.1,0,0,0-7.19-.44C345.34,284.28,325.06,291.72,322.59,296Z"/><path class="lineal-stroke" d="M256,512A256,256,0,0,1,75,75a256,256,0,0,1,362,0,15.19,15.19,0,0,1-21.48,21.48A225.62,225.62,0,0,0,96.46,415.54,225.62,225.62,0,0,0,481.62,256,15.19,15.19,0,1,1,512,256,256,256,0,0,1,256,512Z"/><circle class="lineal-fill" cx="85.73" cy="85.73" r="37.77"/><path class="lineal-stroke" d="M85.72,138.69a53,53,0,1,1,37.45-15.52A52.6,52.6,0,0,1,85.72,138.69Zm0-75.56a22.59,22.59,0,1,0,16,6.62A22.44,22.44,0,0,0,85.72,63.13Z"/><circle class="lineal-fill" cx="426.28" cy="426.28" r="37.77"/><path class="lineal-stroke" d="M426.28,479.24a53,53,0,1,1,37.45-15.51A52.62,52.62,0,0,1,426.28,479.24Zm0-75.55a22.59,22.59,0,1,0,16,6.62A22.4,22.4,0,0,0,426.28,403.69Z"/><circle class="lineal-fill" cx="426.28" cy="85.73" r="37.77" transform="translate(244.91 480.91) rotate(-76.72)"/><path class="lineal-stroke" d="M426.28,138.69a53,53,0,1,1,37.45-15.52A52.58,52.58,0,0,1,426.28,138.69Zm0-75.56a22.59,22.59,0,1,0,16,6.62A22.4,22.4,0,0,0,426.28,63.13Z"/><circle class="lineal-fill" cx="85.73" cy="426.28" r="37.77"/><path class="lineal-stroke" d="M85.72,479.24a53,53,0,1,1,37.45-15.51A52.63,52.63,0,0,1,85.72,479.24Zm0-75.55a22.59,22.59,0,1,0,16,6.62A22.44,22.44,0,0,0,85.72,403.69Z"/></svg>