<svg xmlns="http://www.w3.org/2000/svg" viewBox="0 0 512 509.47"><path class="lineal-stroke" d="M230.79,462.77a14.57,14.57,0,1,1,0-29.14,4.55,4.55,0,0,0,4.53-4.53v-124a4.54,4.54,0,0,0-4.53-4.53H33.68a4.53,4.53,0,0,0-4.53,4.53v124a4.53,4.53,0,0,0,4.53,4.53H180.74a14.57,14.57,0,0,1,0,29.14H33.68A33.71,33.71,0,0,1,0,429.1v-124a33.72,33.72,0,0,1,33.68-33.68h197.1a33.72,33.72,0,0,1,33.68,33.68v124A33.71,33.71,0,0,1,230.79,462.77Z"/><rect class="lineal-fill" x="82.61" y="448.2" width="99.26" height="46.69"/><path class="lineal-stroke" d="M181.86,509.47H82.61A14.58,14.58,0,0,1,68,494.9V448.2a14.57,14.57,0,0,1,14.58-14.57h99.25a14.57,14.57,0,0,1,14.57,14.57v46.7A14.57,14.57,0,0,1,181.86,509.47ZM97.18,480.32h70.1V462.77H97.18Z"/><path class="lineal-stroke" d="M210.67,509.47H53.79a14.58,14.58,0,0,1,0-29.15H210.67a14.58,14.58,0,0,1,0,29.15Z"/><path class="lineal-stroke" d="M230.79,191.36a14.58,14.58,0,1,1,0-29.15,4.54,4.54,0,0,0,4.53-4.53v-124a4.54,4.54,0,0,0-4.53-4.53H33.68a4.53,4.53,0,0,0-4.53,4.53v124a4.53,4.53,0,0,0,4.53,4.53H180.74a14.58,14.58,0,0,1,0,29.15H33.68A33.72,33.72,0,0,1,0,157.68v-124A33.72,33.72,0,0,1,33.68,0h197.1a33.72,33.72,0,0,1,33.68,33.68v124A33.72,33.72,0,0,1,230.79,191.36Z"/><rect class="lineal-fill" x="82.61" y="176.79" width="99.26" height="46.69"/><path class="lineal-stroke" d="M181.86,238.06H82.61A14.58,14.58,0,0,1,68,223.48V176.79a14.58,14.58,0,0,1,14.58-14.58h99.25a14.58,14.58,0,0,1,14.57,14.58v46.69A14.58,14.58,0,0,1,181.86,238.06ZM97.18,208.91h70.1V191.36H97.18Z"/><path class="lineal-stroke" d="M210.67,238.06H53.79a14.58,14.58,0,0,1,0-29.15H210.67a14.58,14.58,0,0,1,0,29.15Z"/><path class="lineal-stroke" d="M414.21,381.67H321.67a14.58,14.58,0,0,1,0-29.15h78V110.25h-78a14.57,14.57,0,1,1,0-29.14h92.54a14.57,14.57,0,0,1,14.58,14.57V367.09A14.58,14.58,0,0,1,414.21,381.67Z"/><path class="lineal-fill" d="M481.62,237.48a35.4,35.4,0,0,0-48.44-47.31,55.53,55.53,0,0,0-98,46.15A30.18,30.18,0,0,0,317,263.92h0A30.17,30.17,0,0,0,347.06,294H467.35a30.17,30.17,0,0,0,30.08-30.07h0A30.15,30.15,0,0,0,481.62,237.48Z"/><path class="lineal-stroke" d="M467.35,308.57H347.06a44.62,44.62,0,0,1-27.62-79.69c-.1-1.52-.15-3-.15-4.57A70.11,70.11,0,0,1,437.16,173a50,50,0,0,1,61.72,59.37,44.61,44.61,0,0,1-31.53,76.21Zm-78-125.22a41,41,0,0,0-40,49.83,14.56,14.56,0,0,1-8.43,16.5,15.49,15.49,0,0,0,6.09,29.74H467.35a15.47,15.47,0,0,0,7.31-29.13,14.59,14.59,0,0,1-6-19.51,20.54,20.54,0,0,0,2.32-9.55,20.84,20.84,0,0,0-20.82-20.82,20.49,20.49,0,0,0-10,2.54,14.58,14.58,0,0,1-18.49-3.81A40.72,40.72,0,0,0,389.4,183.35Z"/></svg>