<svg xmlns="http://www.w3.org/2000/svg" viewBox="0 0 384 331.57"><path class="lineal-fill" d="M344.93,11.38H39.07A27.69,27.69,0,0,0,11.38,39.07v76a36.13,36.13,0,0,0,72.25,0,36.13,36.13,0,0,0,72.25,0,36.12,36.12,0,0,0,72.24,0,36.13,36.13,0,0,0,72.26,0,36.12,36.12,0,0,0,72.24,0v-76a27.69,27.69,0,0,0-27.69-27.69Z"/><path class="lineal-stroke" d="M344.93,0H39.07A39.12,39.12,0,0,0,0,39.07v76a47.52,47.52,0,0,0,23.12,40.75v164.4A11.39,11.39,0,0,0,34.5,331.57h315a11.38,11.38,0,0,0,11.38-11.38V205.36a11.38,11.38,0,0,0-22.76,0V308.81H45.88V162.5c.54,0,1.08,0,1.62,0a47.43,47.43,0,0,0,36.13-16.69,47.43,47.43,0,0,0,72.24,0,47.44,47.44,0,0,0,72.25,0,47.44,47.44,0,0,0,72.25,0A47.48,47.48,0,0,0,384,115v-76A39.12,39.12,0,0,0,344.93,0Zm16.31,115a24.75,24.75,0,0,1-49.49,0V82A11.38,11.38,0,0,0,289,82V115a24.75,24.75,0,0,1-49.49,0V60.29a11.38,11.38,0,1,0-22.75,0V115a24.75,24.75,0,0,1-49.5,0V82a11.38,11.38,0,1,0-22.75,0V115A24.75,24.75,0,0,1,95,115V60.29a11.38,11.38,0,0,0-22.76,0V115a24.75,24.75,0,0,1-49.49,0v-76A16.33,16.33,0,0,1,39.07,22.76H344.93a16.33,16.33,0,0,1,16.31,16.31Z"/><path class="lineal-stroke" d="M138.59,249.39H115.36c.3-2.64,4.49-5.51,9.32-8.82,8.65-5.92,19.42-13.29,19.42-26.14,0-13.26-11.76-20.41-22.83-20.41-10.74,0-22.17,6.66-22.17,19,0,5.76,2.58,8.67,7.66,8.67,5.69,0,8.77-3.31,8.77-6.44,0-4.83,3.17-5.84,5.84-5.84,4.38,0,5.93,3,5.93,5.47,0,5-6.33,9.67-13,14.58-8,5.88-16.28,12-16.28,20.23v9c0,3.48,4.35,5.61,7.46,5.61h33.14c2.93,0,5.51-3.53,5.51-7.56s-2.53-7.38-5.51-7.38Z"/><path class="lineal-stroke" d="M188.18,234.32h-2.86v-5.38c0-3.35-3.29-5.51-8.4-5.51s-8.39,2.16-8.39,5.51v5.38h-5l15.68-31.45a5.68,5.68,0,0,0,.55-2.22c0-4.29-5.54-6.63-8.39-6.63a7.64,7.64,0,0,0-7.06,4.34L142.79,240.5a7,7,0,0,0-.88,3.33c0,3.69,2.4,6.17,6,6.17h20.64v8.72c0,3.85,4.35,5.61,8.39,5.61s8.4-1.76,8.4-5.61V250h2.86c2.89,0,5.61-3.82,5.61-7.84,0-3.78-1.76-7.84-5.61-7.84Z"/><path class="lineal-stroke" d="M231,190.21a5.21,5.21,0,0,0-4.93,3L193.4,260.26a5.17,5.17,0,0,0-.58,2.28,6.29,6.29,0,0,0,6.34,6.07,5.78,5.78,0,0,0,5.21-3l32.76-67.09a5.23,5.23,0,0,0,.49-2.27c0-3.64-3.42-6.07-6.63-6.07Z"/><path class="lineal-stroke" d="M278.55,194h-33c-3.84,0-7.47,2.73-7.47,5.61v14.43c0,3.13,3.65,5.6,8.31,5.6s8.49-2.52,8.49-5.6V209h14.38V214l-22.75,39.4a5.92,5.92,0,0,0-.8,3c0,5,5.46,8.49,10.35,8.49,2.48,0,4.2-.86,5.11-2.57l21.77-41.68c.94-1.76,3.11-6.18,3.11-9.38V199.63c0-3-4.17-5.61-7.46-5.61Z"/></svg>