<svg xmlns="http://www.w3.org/2000/svg" viewBox="0 0 404.41 409.6"><path class="lineal-stroke" d="M253.06,409.6h-221A32.1,32.1,0,0,1,0,377.53V32.07A32.11,32.11,0,0,1,32.07,0H299.73A32.11,32.11,0,0,1,331.8,32.07V93.72H307.7V32.07a8,8,0,0,0-8-8H32.07a8,8,0,0,0-8,8V377.53a8,8,0,0,0,8,8h211l64.62-64.61V190.07h24.1v140.8Z"/><rect class="lineal-stroke" x="67.06" y="96.38" width="104.86" height="24.1"/><rect class="lineal-stroke" x="67.06" y="192.75" width="104.86" height="24.09"/><rect class="lineal-stroke" x="67.06" y="289.13" width="104.86" height="24.09"/><path class="lineal-fill" d="M179.38,238.5,156.6,293.57c-3.37,8.18,3.69,15.24,11.86,11.86l55.07-22.77c3.08-1.28,4.25-5.17,2.18-7.24l-39.1-39.1c-2.07-2.07-6-.9-7.23,2.18Z"/><path class="lineal-stroke" d="M164.31,318.34a20.57,20.57,0,0,1-17.15-9A21.64,21.64,0,0,1,145.47,289l22.77-55.07A17.29,17.29,0,0,1,184,223.23a15.62,15.62,0,0,1,11.13,4.58l39.1,39.09a15.85,15.85,0,0,1,4.25,14.35,17.2,17.2,0,0,1-10.35,12.54l-55.07,22.77a22.81,22.81,0,0,1-8.75,1.78Zm22.06-65.22-15.89,38.44,38.44-15.9Z"/><path class="lineal-fill" d="M226.91,279.65,361.53,145l-22.26-22.26L317,100.5,182.39,235.13c-.12.11,44.4,44.64,44.52,44.52Z"/><path class="lineal-stroke" d="M231.85,291.74l-5,0c-4.91-.05-7.41-2.51-10.31-5.36-1.24-1.21-3-2.95-5.1-5-4.19-4.14-9.74-9.68-15.29-15.23-23.83-23.83-23.83-23.83-24.87-26.37l-3-7.42L317,83.46,378.57,145Zm-32.5-56.54c7.83,7.87,19.61,19.65,27.49,27.48L344.49,145,317,117.54Z"/><path class="lineal-fill" d="M361.56,145l26.73-26.73a13.91,13.91,0,0,0,0-19.68L363.46,73.74a13.92,13.92,0,0,0-19.69,0L317,100.47S361.52,145,361.56,145Z"/><path class="lineal-stroke" d="M366.26,157.33l-5.4-.31c-4.57-.27-6.84-2.53-9.72-5.39l-5.07-5-15.3-15.28c-5.56-5.56-11.12-11.12-15.29-15.31-8.77-8.78-8.77-8.78-9.7-11.24L303,97.47l32.24-32.25a26,26,0,0,1,36.72,0l24.84,24.84a26,26,0,0,1,0,36.72ZM334.05,100.5c7.87,7.88,19.6,19.61,27.48,27.48l18.24-18.24a1.81,1.81,0,0,0,.55-1.32,1.84,1.84,0,0,0-.55-1.33L354.94,82.26a1.88,1.88,0,0,0-1.33-.55,1.81,1.81,0,0,0-1.32.55Z"/></svg>