<svg xmlns="http://www.w3.org/2000/svg" viewBox="0 0 499.03 512"><path class="lineal-stroke" d="M249.52,125.57A62.79,62.79,0,1,1,312.3,62.79,62.85,62.85,0,0,1,249.52,125.57Zm0-97a34.25,34.25,0,1,0,34.24,34.25A34.28,34.28,0,0,0,249.52,28.54Z"/><path class="lineal-stroke" d="M424,512H35.75A35.78,35.78,0,0,1,0,476.25V105.94A35.78,35.78,0,0,1,35.75,70.2H463.28A35.79,35.79,0,0,1,499,105.94V416.28a14.27,14.27,0,0,1-28.54,0V105.94a7.21,7.21,0,0,0-7.21-7.2H35.75a7.21,7.21,0,0,0-7.21,7.2V476.25a7.21,7.21,0,0,0,7.21,7.21H424A14.27,14.27,0,0,1,424,512Z"/><path class="lineal-fill" d="M484.76,157.29V105.94a21.48,21.48,0,0,0-21.48-21.47H35.75a21.47,21.47,0,0,0-21.48,21.47v51.35Z"/><path class="lineal-stroke" d="M484.76,171.56H14.27A14.27,14.27,0,0,1,0,157.29V105.94A35.79,35.79,0,0,1,35.75,70.2H463.28A35.79,35.79,0,0,1,499,105.94v51.35A14.27,14.27,0,0,1,484.76,171.56ZM28.54,143h442V105.94a7.21,7.21,0,0,0-7.21-7.2H35.75a7.21,7.21,0,0,0-7.21,7.2Z"/><path class="lineal-fill" d="M116.93,285h-7.61a31.15,31.15,0,0,1-31.15-31.16h0a31.15,31.15,0,0,1,31.15-31.15h7.61a31.15,31.15,0,0,1,31.15,31.15h0A31.14,31.14,0,0,1,116.93,285Z"/><path class="lineal-stroke" d="M116.93,299.27h-7.61a45.43,45.43,0,0,1,0-90.85h7.61a45.43,45.43,0,1,1,0,90.85ZM109.32,237a16.89,16.89,0,0,0,0,33.77h7.61a16.89,16.89,0,1,0,0-33.77Z"/><path class="lineal-stroke" d="M284.48,299.27A14.27,14.27,0,0,1,270.21,285V237H228.82v48a14.27,14.27,0,1,1-28.53,0V222.69a14.26,14.26,0,0,1,14.26-14.27h69.93a14.27,14.27,0,0,1,14.27,14.27V285A14.27,14.27,0,0,1,284.48,299.27Z"/><rect class="lineal-fill" x="350.94" y="222.69" width="69.92" height="62.31"/><path class="lineal-stroke" d="M420.86,299.27H350.94A14.27,14.27,0,0,1,336.67,285V222.69a14.27,14.27,0,0,1,14.27-14.27h69.92a14.27,14.27,0,0,1,14.27,14.27V285A14.27,14.27,0,0,1,420.86,299.27Zm-55.65-28.54H406.6V237H365.21Z"/><rect class="lineal-fill" x="78.16" y="353.97" width="69.92" height="62.31"/><path class="lineal-stroke" d="M148.09,430.55H78.17A14.27,14.27,0,0,1,63.9,416.28V354A14.27,14.27,0,0,1,78.17,339.7h69.92A14.27,14.27,0,0,1,162.36,354v62.31A14.27,14.27,0,0,1,148.09,430.55ZM92.44,402h41.38V368.24H92.44Z"/><path class="lineal-fill" d="M253.32,416.28h-7.61a31.16,31.16,0,0,1-31.16-31.16h0A31.16,31.16,0,0,1,245.71,354h7.61a31.15,31.15,0,0,1,31.15,31.15h0A31.14,31.14,0,0,1,253.32,416.28Z"/><path class="lineal-stroke" d="M253.32,430.55h-7.61a45.43,45.43,0,0,1,0-90.85h7.61a45.43,45.43,0,1,1,0,90.85Zm-7.61-62.31a16.89,16.89,0,1,0,0,33.77h7.61a16.89,16.89,0,0,0,0-33.77Z"/><path class="lineal-stroke" d="M420.86,430.55a14.27,14.27,0,0,1-14.26-14.27v-48H365.21v48a14.27,14.27,0,1,1-28.54,0V354a14.27,14.27,0,0,1,14.27-14.27h69.92A14.27,14.27,0,0,1,435.13,354v62.31A14.27,14.27,0,0,1,420.86,430.55Z"/></svg>