<svg xmlns="http://www.w3.org/2000/svg" viewBox="0 0 512 512"><polygon class="lineal-fill" points="196.19 116.46 319.57 83.4 286.51 206.78 196.19 116.46"/><path class="lineal-stroke" d="M330.72,72.25a15.72,15.72,0,0,0-15.23-4.08L192.1,101.23A15.77,15.77,0,0,0,185,127.61l12.05,12-80.6,80.59a15.79,15.79,0,0,0,0,22.31l43.93,43.93a15.8,15.8,0,0,0,22.31,0L241.2,228a15.77,15.77,0,0,0-22.31-22.3L171.56,253,149.94,231.4,219.38,162l56,56a15.77,15.77,0,0,0,26.39-7.08L334.8,87.48A15.77,15.77,0,0,0,330.72,72.25ZM278.34,176.31l-51.69-51.69,70.61-18.92Z"/><rect class="lineal-fill" x="274.03" y="367.39" width="77.99" height="128.84"/><path class="lineal-stroke" d="M496.23,423.18A15.78,15.78,0,0,0,512,407.4v-134a15.77,15.77,0,0,0-15.77-15.77h-78a15.78,15.78,0,0,0-15.78,15.77V480.46H367.8V367.39A15.77,15.77,0,0,0,352,351.62H274a15.77,15.77,0,0,0-15.77,15.77V480.46H145.6V447.58h62.22a15.77,15.77,0,1,0,0-31.54h-78a15.77,15.77,0,0,0-15.77,15.77v48.65H31.54V15.77A15.77,15.77,0,0,0,0,15.77V496.23A15.77,15.77,0,0,0,15.77,512H496.23a15.77,15.77,0,0,0,0-31.54H434V289.12h46.45V407.4A15.78,15.78,0,0,0,496.23,423.18ZM289.8,480.46V383.17h46.45v97.29Z"/></svg>