<svg xmlns="http://www.w3.org/2000/svg" viewBox="0 0 409.6 254.52"><path class="lineal-fill" d="M269.63,244.21H140V42.29a32,32,0,0,1,32-32h65.7a32,32,0,0,1,32,32V244.21Z"/><path class="lineal-stroke" d="M279.94,254.52H129.66V42.29A42.34,42.34,0,0,1,172,0h65.7a42.34,42.34,0,0,1,42.29,42.29ZM150.27,233.91H259.33V42.29a21.7,21.7,0,0,0-21.68-21.68H172a21.71,21.71,0,0,0-21.68,21.68Z"/><path class="lineal-stroke" d="M409.6,254.52H259.33V81.4h108a42.34,42.34,0,0,1,42.29,42.29H389A21.7,21.7,0,0,0,367.31,102H279.94v131.9H389V178.49H409.6Z"/><path class="lineal-stroke" d="M150.27,254.52H0V103.08A42.33,42.33,0,0,1,42.29,60.8h108ZM20.61,233.91H129.66V81.4H42.29a21.71,21.71,0,0,0-21.68,21.68Z"/><path class="lineal-stroke" d="M230,136.48v16h-48.1v-16h15.81V108.09a12.27,12.27,0,0,1-3.12,2.72,32.85,32.85,0,0,1-4.73,2.56,34.66,34.66,0,0,1-5.34,1.9,19.31,19.31,0,0,1-4.85.72V99.51a12.47,12.47,0,0,0,4.62-1.22,43.45,43.45,0,0,0,5.63-3,50.39,50.39,0,0,0,5-3.51,10.48,10.48,0,0,0,2.78-2.89h18.15v47.55Z"/><path class="lineal-stroke" d="M47.41,206.65a50.57,50.57,0,0,1,.78-9.35,24.89,24.89,0,0,1,2.67-7.52A24.55,24.55,0,0,1,56,183.49a47.23,47.23,0,0,1,8.13-5.68q5.24-2.88,8.74-4.78a57.5,57.5,0,0,0,5.57-3.34,13.39,13.39,0,0,0,3-2.62,4.4,4.4,0,0,0,.89-2.73,6.23,6.23,0,0,0-2.23-5,9.52,9.52,0,0,0-6.34-1.89,14.4,14.4,0,0,0-8.13,2.28,33.74,33.74,0,0,0-6.68,6L47.52,152.54a21.94,21.94,0,0,1,4.79-3.9,41.74,41.74,0,0,1,6.79-3.39,47,47,0,0,1,8.3-2.4,48.77,48.77,0,0,1,9.41-.89q12,0,18.42,5.24t6.41,14.14a17.41,17.41,0,0,1-1.17,6.57,19.46,19.46,0,0,1-3.06,5.17,24.26,24.26,0,0,1-4.23,4q-2.34,1.72-4.79,3.18c-1.12.66-2.45,1.44-4,2.34s-3.1,1.8-4.62,2.72-2.94,1.86-4.23,2.78a19.4,19.4,0,0,0-3,2.51h30.29v16H47.41Z"/><path class="lineal-stroke" d="M345.67,172.11a17.14,17.14,0,0,1,5.58,2.1,15.66,15.66,0,0,1,4.36,3.82,16.87,16.87,0,0,1,2.79,5.28,20.56,20.56,0,0,1,1,6.42,18.06,18.06,0,0,1-1.86,8.27,17.83,17.83,0,0,1-5.34,6.26,25.84,25.84,0,0,1-8.37,4,39.17,39.17,0,0,1-11,1.43q-14.88,0-23.3-8.72L318,189.82a17.75,17.75,0,0,0,6,4.16,20.69,20.69,0,0,0,8.07,1.42q11.07,0,11.06-8.12a7.54,7.54,0,0,0-3.28-6.66q-3.27-2.25-10.32-2.25h-2.94V167.11h3.23q5.47,0,8.57-2.25a7,7,0,0,0,3.08-6,5.69,5.69,0,0,0-2.25-4.89,9.8,9.8,0,0,0-6-1.67,14.28,14.28,0,0,0-7.3,1.91,16.28,16.28,0,0,0-5.53,5.43l-9.88-11.35a17.9,17.9,0,0,1,4.11-3.82,26.35,26.35,0,0,1,5.77-3,39.16,39.16,0,0,1,7-1.91,41.65,41.65,0,0,1,7.63-.69,35,35,0,0,1,9.5,1.22,22.18,22.18,0,0,1,7.34,3.53,16.36,16.36,0,0,1,4.7,5.48,15.2,15.2,0,0,1,1.66,7.1,16.71,16.71,0,0,1-.93,5.58,17.11,17.11,0,0,1-2.59,4.8,14.87,14.87,0,0,1-4,3.57,14.43,14.43,0,0,1-5,1.91Z"/></svg>