<svg xmlns="http://www.w3.org/2000/svg" viewBox="0 0 409.6 406.5"><path class="lineal-stroke" d="M195.11,406.5A198,198,0,0,1,.18,241.56a13.25,13.25,0,0,1,10.58-15.2L66,215.81a13.25,13.25,0,0,1,5,26l-42,8A171.12,171.12,0,0,0,329.34,315l.45-.56-21.22-21.22L308,294a142.59,142.59,0,0,1-112.9,56.31,140.62,140.62,0,0,1-112-55.08,13.25,13.25,0,0,1,21-16.21,114.29,114.29,0,0,0,91,44.8A115.94,115.94,0,0,0,286.9,278l9.74-12.83a13.26,13.26,0,0,1,19.92-1.37l40.3,40.31a13.23,13.23,0,0,1,1,17.58l-7.76,9.81a197.44,197.44,0,0,1-155,75Z"/><path class="lineal-fill" d="M240.1,253.81,396.35,224,366.5,380.2Z"/><path class="lineal-stroke" d="M366.5,393.45a13.26,13.26,0,0,1-9.37-3.88l-126.4-126.4a13.25,13.25,0,0,1,6.89-22.38l156.24-29.85a13.25,13.25,0,0,1,15.5,15.5L379.51,382.69a13.23,13.23,0,0,1-9.12,10.17,13,13,0,0,1-3.89.59ZM267.16,262.12l91,91,21.5-112.52Z"/><path class="lineal-stroke" d="M341.11,190.92a13.25,13.25,0,0,1-2.47-26.26l42-8A171.13,171.13,0,0,0,80.25,91.47l-.44.56L101,113.25l.56-.74a142.59,142.59,0,0,1,112.89-56.3,140.64,140.64,0,0,1,112,55.08,13.25,13.25,0,0,1-21,16.21,114.31,114.31,0,0,0-91-44.8,116,116,0,0,0-91.79,45.83L113,141.36A13.27,13.27,0,0,1,93,142.73l-40.3-40.31a13.24,13.24,0,0,1-1-17.58L59.48,75a197.72,197.72,0,0,1,349.93,89.91,13.24,13.24,0,0,1-10.57,15.2l-55.22,10.55a13.41,13.41,0,0,1-2.51.24Z"/><path class="lineal-fill" d="M169.5,152.69,13.25,182.54,43.1,26.29Z"/><path class="lineal-stroke" d="M13.25,195.79a13.24,13.24,0,0,1-13-15.73L30.09,23.81a13.24,13.24,0,0,1,22.38-6.88L178.86,143.32A13.24,13.24,0,0,1,172,165.7L15.73,195.56a13.87,13.87,0,0,1-2.48.23ZM51.42,53.35,29.92,165.87l112.52-21.5Z"/></svg>