<svg xmlns="http://www.w3.org/2000/svg" viewBox="0 0 388.2 512"><rect class="lineal-fill" x="63.13" y="413.96" width="216.63" height="83.52"/><path class="lineal-stroke" d="M279.75,512H63.13a14.52,14.52,0,0,1-14.52-14.52V414a14.52,14.52,0,0,1,14.52-14.52H279.75A14.52,14.52,0,0,1,294.27,414v83.51A14.52,14.52,0,0,1,279.75,512ZM77.64,483H265.23V428.48H77.64Z"/><path class="lineal-stroke" d="M52.8,364.76A14.53,14.53,0,0,1,39,354.64L2.13,239A44.84,44.84,0,0,1,87.56,211.7L102,256.59a14.52,14.52,0,1,1-27.64,8.88L59.91,220.55a15.81,15.81,0,1,0-30.12,9.61L66.63,345.83a14.51,14.51,0,0,1-9.42,18.24A14.7,14.7,0,0,1,52.8,364.76Z"/><path class="lineal-stroke" d="M267,168.7H224V44.84a44.84,44.84,0,0,0-88-12.22A44.83,44.83,0,0,0,73.65,73.9v80.67a14.52,14.52,0,1,0,29,0V73.9a15.81,15.81,0,0,1,31.62,0V186.53a14.52,14.52,0,0,0,29,0V44.84a15.81,15.81,0,0,1,31.62,0V183.22a14.52,14.52,0,0,0,14.51,14.52H267a16.6,16.6,0,0,1,16.59,16.58V350.23a14.52,14.52,0,1,0,29,0V214.32A45.67,45.67,0,0,0,267,168.7Z"/><path class="lineal-stroke" d="M312.19,86.93a14.52,14.52,0,0,1-12.07-22.57l30.74-46.14a14.51,14.51,0,0,1,12.08-6.47h0A14.52,14.52,0,0,1,355,18.22l30.73,46.14a14.52,14.52,0,1,1-24.16,16.1l-18.65-28-18.66,28A14.51,14.51,0,0,1,312.19,86.93Z"/><path class="lineal-stroke" d="M342.94,190.22a14.5,14.5,0,0,1-12.08-6.46l-30.74-46.14a14.52,14.52,0,0,1,24.17-16.1l18.65,28,18.66-28a14.52,14.52,0,0,1,24.16,16.1L355,183.76A14.51,14.51,0,0,1,342.94,190.22Z"/></svg>