<svg xmlns="http://www.w3.org/2000/svg" viewBox="0 0 432.17 512"><rect class="lineal-fill" x="63.13" y="413.96" width="216.63" height="83.52"/><path class="lineal-stroke" d="M279.75,512H63.13a14.52,14.52,0,0,1-14.52-14.52V414a14.52,14.52,0,0,1,14.52-14.52H279.75A14.52,14.52,0,0,1,294.27,414v83.51A14.52,14.52,0,0,1,279.75,512ZM77.65,483H265.24V428.48H77.65Z"/><path class="lineal-stroke" d="M52.8,364.76A14.53,14.53,0,0,1,39,354.64L2.13,239A44.84,44.84,0,0,1,87.56,211.7L102,256.59a14.52,14.52,0,1,1-27.64,8.88L59.91,220.55a15.81,15.81,0,1,0-30.12,9.61L66.64,345.83a14.53,14.53,0,0,1-9.43,18.24A14.7,14.7,0,0,1,52.8,364.76Z"/><path class="lineal-stroke" d="M267,168.7H224V44.84a44.84,44.84,0,0,0-88-12.22,44.44,44.44,0,0,0-17.51-3.57A44.9,44.9,0,0,0,73.65,73.9v80.67a14.52,14.52,0,0,0,29,0V73.9a15.81,15.81,0,1,1,31.61,0V186.53a14.52,14.52,0,0,0,29,0V44.84a15.81,15.81,0,0,1,31.62,0V183.22a14.52,14.52,0,0,0,14.52,14.52H267a16.6,16.6,0,0,1,16.59,16.58V350.23a14.52,14.52,0,1,0,29,0V214.32A45.67,45.67,0,0,0,267,168.7Z"/><path class="lineal-stroke" d="M371.54,146.24a14.52,14.52,0,0,1-8.07-26.6l28-18.65-28-18.66a14.52,14.52,0,0,1,16.1-24.16L425.7,88.91a14.51,14.51,0,0,1,0,24.16l-46.13,30.74A14.41,14.41,0,0,1,371.54,146.24Z"/><path class="lineal-stroke" d="M314.34,146.24a14.41,14.41,0,0,1-8-2.43l-46.14-30.74a14.51,14.51,0,0,1,0-24.16l46.14-30.74A14.52,14.52,0,0,1,322.4,82.34L294.4,101l28,18.66a14.51,14.51,0,0,1-8.06,26.59Z"/></svg>