<svg xmlns="http://www.w3.org/2000/svg" viewBox="0 0 405.62 512"><path class="lineal-fill" d="M366,14.7H39.61A13.83,13.83,0,0,0,25.77,28.53V129.05a13.84,13.84,0,0,0,13.84,13.84H166.72l36.09,47.81,36.09-47.81H366a13.84,13.84,0,0,0,13.83-13.84V28.53A13.84,13.84,0,0,0,366,14.7Z"/><path class="lineal-stroke" d="M202.81,205.4a14.71,14.71,0,0,1-11.73-5.85l-31.68-42H39.61a28.56,28.56,0,0,1-28.53-28.53V28.53A28.56,28.56,0,0,1,39.61,0H366a28.56,28.56,0,0,1,28.53,28.53V129.05A28.56,28.56,0,0,1,366,157.58H246.22l-31.68,42A14.71,14.71,0,0,1,202.81,205.4ZM40.47,128.19H166.72A14.7,14.7,0,0,1,178.45,134l24.36,32.28L227.17,134a14.7,14.7,0,0,1,11.73-5.84H365.15V29.39H40.47Z"/><rect class="lineal-fill" x="14.69" y="324.42" width="376.23" height="87.27"/><path class="lineal-stroke" d="M390.92,426.39H14.7A14.7,14.7,0,0,1,0,411.69V324.42a14.7,14.7,0,0,1,14.7-14.69H390.92a14.7,14.7,0,0,1,14.7,14.69v87.27A14.7,14.7,0,0,1,390.92,426.39ZM29.39,397H376.23V339.12H29.39V397Z"/><path class="lineal-stroke" d="M390.92,512a14.7,14.7,0,0,1-14.69-14.7V424.73H29.39v57.88h267a14.7,14.7,0,0,1,0,29.39H14.7A14.7,14.7,0,0,1,0,497.3V410a14.7,14.7,0,0,1,14.7-14.7H390.92a14.7,14.7,0,0,1,14.7,14.7V497.3A14.7,14.7,0,0,1,390.92,512Z"/><path class="lineal-stroke" d="M390.92,339.12H14.7A14.7,14.7,0,0,1,0,324.42V237.16a14.7,14.7,0,0,1,14.7-14.7H165.09a14.7,14.7,0,0,1,0,29.39H29.39v57.88H376.23V251.85H240.53a14.7,14.7,0,1,1,0-29.39H390.92a14.7,14.7,0,0,1,14.7,14.7v87.26A14.7,14.7,0,0,1,390.92,339.12Z"/></svg>