<svg xmlns="http://www.w3.org/2000/svg" viewBox="0 0 334.88 409.6"><path class="lineal-fill" d="M153.66,39.88H40.37A29.34,29.34,0,0,0,11,69.22v34.6H150.25"/><path class="lineal-stroke" d="M150.25,114.85H11a11,11,0,0,1-11-11V69.22A40.42,40.42,0,0,1,40.37,28.85H153.66a11,11,0,0,1,0,22H40.37A18.34,18.34,0,0,0,22.05,69.22V92.8h128.2a11,11,0,0,1,0,22Z"/><path class="lineal-fill" d="M11,329.92v39.31a29.34,29.34,0,0,0,29.35,29.34H206.82a29.33,29.33,0,0,0,29.34-29.34V329.92H90.56"/><path class="lineal-stroke" d="M206.82,409.6H40.37A40.42,40.42,0,0,1,0,369.23V329.92a11,11,0,0,1,22.05,0v39.31a18.34,18.34,0,0,0,18.32,18.32H206.82a18.34,18.34,0,0,0,18.32-18.32V341H90.56a11,11,0,0,1,0-22.05h145.6a11,11,0,0,1,11,11v39.31a40.42,40.42,0,0,1-40.37,40.37Z"/><path class="lineal-stroke" d="M141,375.1H107.09a11,11,0,0,1,0-22.05H141a11,11,0,0,1,0,22.05Z"/><path class="lineal-stroke" d="M11,344.37a11,11,0,0,1-11-11V94.74a11,11,0,0,1,22.05,0V333.35a11,11,0,0,1-11,11Z"/><path class="lineal-stroke" d="M236.16,354.1a11,11,0,0,1-11-11V274.16a11,11,0,0,1,22.05,0v68.92a11,11,0,0,1-11,11Z"/><path class="lineal-stroke" d="M237.6,242.19A25,25,0,0,1,227,239.87c-26.07-12-86.71-44.42-86.71-86.33V43.91a15.05,15.05,0,0,1,15.33-15.1,17.3,17.3,0,0,1,5.15.81,43.09,43.09,0,0,0,13.65,2.13,44.13,44.13,0,0,0,38-21.4A21.6,21.6,0,0,1,230.77,0h13.66a21.62,21.62,0,0,1,18.34,10.35,44.13,44.13,0,0,0,38,21.4,44.38,44.38,0,0,0,14.12-2.29,15.18,15.18,0,0,1,20,14.44V153.54c0,41.91-60.65,74.34-86.72,86.33a25,25,0,0,1-10.56,2.32ZM162.38,52.72V153.54c0,23.85,39.79,50.62,73.87,66.3a3.26,3.26,0,0,0,2.7,0c34.08-15.68,73.88-42.45,73.88-66.3V52.7a66.77,66.77,0,0,1-12.08,1.1,66,66,0,0,1-56.68-31.75H231.13A66,66,0,0,1,174.46,53.8a64.33,64.33,0,0,1-12.08-1.08Z"/></svg>