<svg xmlns="http://www.w3.org/2000/svg" viewBox="0 0 512 240.45"><polygon class="lineal-fill" points="125.69 14.02 155.12 90.93 237.36 95.15 173.31 146.91 194.71 226.43 125.69 181.51 56.67 226.43 78.07 146.91 14.02 95.15 96.26 90.93 125.69 14.02"/><path class="lineal-stroke" d="M194.71,240.45a14.06,14.06,0,0,1-7.65-2.27l-61.37-40-61.37,40a14,14,0,0,1-21.18-15.39l19-70.71-56.95-46a14,14,0,0,1,8.09-24.9L86.43,77.4,112.6,9a14,14,0,0,1,26.18,0L165,77.4l73.13,3.75a14,14,0,0,1,8.09,24.9l-56.95,46,19,70.71a14,14,0,0,1-13.53,17.66Zm-69-73a14.06,14.06,0,0,1,7.65,2.27l38.31,24.94-11.87-44.15A14,14,0,0,1,164.5,136l35.56-28.74-45.66-2.35a14,14,0,0,1-12.37-9l-16.34-42.7-16.34,42.7a14,14,0,0,1-12.37,9l-45.66,2.35L86.88,136a14,14,0,0,1,4.73,14.54L79.73,194.7l38.32-24.94A14,14,0,0,1,125.69,167.49Z"/><path class="lineal-stroke" d="M455.33,240.45a14.06,14.06,0,0,1-7.65-2.27l-61.37-40-61.37,40a14,14,0,0,1-21.18-15.39l19-70.71-56.95-46a14,14,0,0,1,8.09-24.9l73.13-3.75L373.22,9A14,14,0,0,1,399.4,9L425.57,77.4l73.13,3.75a14,14,0,0,1-1.44,28L415,104.93a14,14,0,0,1-12.37-9l-16.34-42.7L370,95.94a14,14,0,0,1-12.37,9l-45.66,2.34L347.5,136a14,14,0,0,1,4.73,14.54L340.35,194.7l38.32-24.94a14,14,0,0,1,15.29,0l38.32,24.94L420.4,150.55a14,14,0,1,1,27.07-7.28l21.39,79.52a14,14,0,0,1-13.53,17.66Z"/></svg>