<svg xmlns="http://www.w3.org/2000/svg" viewBox="0 0 357.51 409.6"><path class="lineal-stroke" d="M135,260.57A130.42,130.42,0,0,1,4.76,130.29C4.76,58.45,63.2,0,135,0S265.33,58.45,265.33,130.29A129.66,129.66,0,0,1,243.1,203.1a12,12,0,0,1-20-13.47A106.22,106.22,0,1,0,135,236.49a12,12,0,1,1,0,24.08Z"/><path class="lineal-fill" d="M161.8,304.57H108.29L80.84,236.86h108.4Z"/><path class="lineal-stroke" d="M161.8,316.61H108.29a12.05,12.05,0,0,1-11.16-7.52l-27.44-67.7a12,12,0,0,1,11.15-16.57h108.4a12,12,0,0,1,11.16,16.57L173,309.09a12.06,12.06,0,0,1-11.16,7.52Zm-45.4-24.08h37.29l17.68-43.63H98.71Z"/><path class="lineal-stroke" d="M187.07,282.78H83a12,12,0,1,1,0-24.08H187.07a12,12,0,0,1,0,24.08Z"/><path class="lineal-fill" d="M236.93,397.56H33.16A21.11,21.11,0,0,1,12,376.45V325.68a21.12,21.12,0,0,1,21.12-21.11H236.93a21.12,21.12,0,0,1,21.12,21.11v50.77a21.12,21.12,0,0,1-21.12,21.11Z"/><path class="lineal-stroke" d="M236.93,409.6H33.16A33.19,33.19,0,0,1,0,376.45V325.68a33.19,33.19,0,0,1,33.16-33.15H236.93a33.19,33.19,0,0,1,33.16,33.15v50.77a33.19,33.19,0,0,1-33.16,33.15Zm-203.77-93a9.08,9.08,0,0,0-9.08,9.07v50.77a9.08,9.08,0,0,0,9.08,9.07H236.93a9.08,9.08,0,0,0,9.08-9.07V325.68a9.09,9.09,0,0,0-9.08-9.07Z"/><path class="lineal-stroke" d="M323.09,363.1a34.42,34.42,0,1,1,34.42-34.42,34.46,34.46,0,0,1-34.42,34.42Zm0-44.76a10.34,10.34,0,1,0,10.34,10.34,10.35,10.35,0,0,0-10.34-10.34Z"/><path class="lineal-stroke" d="M323.09,407.87a34.43,34.43,0,1,1,34.42-34.42,34.46,34.46,0,0,1-34.42,34.42Zm0-44.77a10.35,10.35,0,1,0,10.34,10.35,10.36,10.36,0,0,0-10.34-10.35Z"/></svg>