<svg xmlns="http://www.w3.org/2000/svg" viewBox="0 0 512 512"><path class="lineal-fill" d="M288.37,276.32H232.88V209.8a27.74,27.74,0,0,1,27.74-27.75h0a27.74,27.74,0,0,1,27.75,27.75Z"/><path class="lineal-stroke" d="M288.37,291.15H232.88a14.83,14.83,0,0,1-14.83-14.83V209.8a42.58,42.58,0,1,1,85.15,0v66.52A14.83,14.83,0,0,1,288.37,291.15Zm-40.66-29.66h25.83V209.8a12.92,12.92,0,1,0-25.83,0Z"/><path class="lineal-fill" d="M343.86,276.32H288.37V176.5a27.74,27.74,0,0,1,27.74-27.74h0a27.74,27.74,0,0,1,27.75,27.74Z"/><path class="lineal-stroke" d="M343.86,291.15H288.37a14.83,14.83,0,0,1-14.83-14.83V176.5a42.58,42.58,0,0,1,85.15,0v99.82A14.83,14.83,0,0,1,343.86,291.15ZM303.2,261.49H329v-85a12.92,12.92,0,0,0-25.83,0v85Z"/><path class="lineal-stroke" d="M399.35,291.15H343.86A14.83,14.83,0,0,1,329,276.32V143.2a42.58,42.58,0,0,1,85.15,0V210a14.83,14.83,0,1,1-29.66,0V143.2a12.92,12.92,0,0,0-25.83,0V261.49h40.66a14.83,14.83,0,0,1,0,29.66Z"/><path class="lineal-stroke" d="M316.11,391.77c-108,0-195.88-87.87-195.88-195.88S208.1,0,316.11,0,512,87.87,512,195.89a194.21,194.21,0,0,1-18.6,83.41,14.83,14.83,0,1,1-26.83-12.65,164.77,164.77,0,0,0,15.77-70.76c0-91.66-74.57-166.23-166.23-166.23S149.89,104.23,149.89,195.89s74.56,166.22,166.22,166.22A165.22,165.22,0,0,0,411.55,332a14.83,14.83,0,0,1,17.05,24.27A194.71,194.71,0,0,1,316.11,391.77Z"/><path class="lineal-stroke" d="M142.6,384.23a14.84,14.84,0,0,1-10.48-25.32L177,314.07a14.83,14.83,0,0,1,21,21l-44.84,44.84A14.76,14.76,0,0,1,142.6,384.23Z"/><path class="lineal-fill" d="M69.28,497.17,14.83,442.72,95,362.59a38.49,38.49,0,0,1,54.45,0h0a38.49,38.49,0,0,1,0,54.45Z"/><path class="lineal-stroke" d="M69.28,512a14.79,14.79,0,0,1-10.48-4.34L4.34,453.21a14.84,14.84,0,0,1,0-21L84.47,352.1a53.34,53.34,0,0,1,75.43,75.43L79.77,507.66A14.81,14.81,0,0,1,69.28,512ZM35.8,442.72,69.28,476.2l69.64-69.64a23.67,23.67,0,1,0-33.48-33.48Z"/></svg>