<svg xmlns="http://www.w3.org/2000/svg" viewBox="0 0 512 512"><path class="lineal-stroke" d="M256,462.39C142.19,462.39,49.61,369.81,49.61,256S142.19,49.61,256,49.61,462.39,142.19,462.39,256A204.26,204.26,0,0,1,440,349.69,208.42,208.42,0,0,1,380,421a14.42,14.42,0,1,1-17.34-23,176.25,176.25,0,0,0,70.9-142c0-97.91-79.65-177.56-177.56-177.56S78.44,158.09,78.44,256,158.09,433.56,256,433.56a14.42,14.42,0,1,1,0,28.83Z"/><circle class="lineal-fill" cx="256" cy="256" r="96.83"/><path class="lineal-stroke" d="M256,367.25A111.25,111.25,0,1,1,367.25,256,111.38,111.38,0,0,1,256,367.25Zm0-193.67A82.42,82.42,0,1,0,338.42,256,82.52,82.52,0,0,0,256,173.58Z"/><path class="lineal-stroke" d="M256,512a14.43,14.43,0,0,1-14.42-14.42v-47.8a14.42,14.42,0,0,1,28.84,0v47.8A14.42,14.42,0,0,1,256,512Z"/><path class="lineal-stroke" d="M256,76.64a14.43,14.43,0,0,1-14.42-14.42V14.42a14.42,14.42,0,0,1,28.84,0v47.8A14.43,14.43,0,0,1,256,76.64Z"/><path class="lineal-stroke" d="M62.22,270.42H14.42a14.42,14.42,0,0,1,0-28.84h47.8a14.42,14.42,0,0,1,0,28.84Z"/><path class="lineal-stroke" d="M497.58,270.42h-47.8a14.42,14.42,0,1,1,0-28.84h47.8a14.42,14.42,0,1,1,0,28.84Z"/></svg>