<svg xmlns="http://www.w3.org/2000/svg" viewBox="0 0 510.81 512"><rect class="lineal-fill" x="282.23" y="66.33" width="196.97" height="129.91" transform="translate(18.67 307.66) rotate(-45)"/><rect class="lineal-fill" x="24.93" y="300.83" width="242.55" height="129.91" transform="translate(-215.83 210.52) rotate(-45)"/><path class="lineal-stroke" d="M45.57,94.3A14.53,14.53,0,0,1,35.3,69.5L100.54,4.25A14.53,14.53,0,0,1,121.09,24.8L55.85,90.05A14.52,14.52,0,0,1,45.57,94.3Z"/><rect class="lineal-fill" x="84.4" y="66.43" width="111.87" height="85.74" transform="translate(-36.18 131.25) rotate(-45)"/><path class="lineal-stroke" d="M442.61,181.8h0l63.94-64a14.53,14.53,0,0,0,0-20.54L414.69,5.44a14.54,14.54,0,0,0-20.55,0l-129,129L220.49,89.79,159.86,29.16c-.35-.34-.71-.67-1.08-1a9.41,9.41,0,0,0-.81-.6l-.34-.25c-.33-.22-.68-.42-1-.62l-.19-.11c-.35-.19-.71-.35-1.07-.51l-.21-.09c-.34-.14-.69-.26-1-.37l-.31-.11c-.3-.1-.62-.17-.93-.24l-.45-.11-.8-.12L151,25l-.65,0c-.25,0-.5,0-.76,0s-.54,0-.82.05l-.58,0-.69.1c-.24,0-.48.06-.72.11l-.54.13c-.29.07-.57.13-.84.22l-.41.14c-.32.1-.63.21-.94.33l-.31.15c-.33.14-.65.29-1,.46-.11.05-.22.13-.33.19-.3.17-.6.34-.89.53s-.35.26-.53.39-.42.3-.62.46a12.56,12.56,0,0,0-1.08,1L60.2,108.27a14.54,14.54,0,0,0-4,7.42,14.27,14.27,0,0,0-.28,2.85,14.53,14.53,0,0,0,4.25,10.27l60.64,60.64h0l44.65,44.65L4.26,395.33a14.52,14.52,0,0,0,0,20.55l91.86,91.86a14.52,14.52,0,0,0,20.55,0L277.9,346.51,388,456.6a14.57,14.57,0,0,0,10,4.26l80.65,1.54h.28a14.53,14.53,0,0,0,.27-29l-74.79-1.44L151.66,179.17l58.55-58.56,44.65,44.65h0l91.86,91.86h0L467.1,377.5A14.53,14.53,0,1,0,487.65,357L377.56,246.86l65-65.05ZM106.39,476.92,35.08,405.6l151-151,19.81,19.81L223,291.61a14.52,14.52,0,0,0-17.73,22.73l31.85,31.85L170.34,413l-31.85-31.85a14.53,14.53,0,1,0-20.55,20.55l31.85,31.85Zm24.72-318.3L91,118.54,149.58,60l40.09,40.09ZM285.69,155,404.42,36.26l71.31,71.32L432.34,151l-31.85-31.85a14.53,14.53,0,0,0-20.55,20.55l31.85,31.85L357,226.31Z"/></svg>