<svg xmlns="http://www.w3.org/2000/svg" viewBox="0 0 362.06 409.6"><path class="lineal-stroke" d="M180.94,362.11A181.72,181.72,0,0,1,68.35,322.82C-9.81,260.71-22.88,146.59,39.22,68.43A181.06,181.06,0,0,1,340.13,267.48a11.88,11.88,0,1,1-20.86-11.39A157.39,157.39,0,0,0,278.82,57.9a157.3,157.3,0,0,0-221,25.31c-53.95,67.91-42.6,167,25.3,221a157.9,157.9,0,0,0,97.81,34.14,11.88,11.88,0,1,1,0,23.76Z"/><path class="lineal-stroke" d="M180.94,308.64A128,128,0,0,1,101.61,281C46.54,237.19,37.32,156.77,81.09,101.69A127.65,127.65,0,0,1,303.62,216.45a11.88,11.88,0,0,1-22.83-6.59,103.87,103.87,0,1,0-99.85,75,11.88,11.88,0,0,1,0,23.76Z"/><path class="lineal-fill" d="M243.21,181.06A62.23,62.23,0,1,1,181,118.82a62.23,62.23,0,0,1,62.23,62.24Z"/><path class="lineal-stroke" d="M180.94,255.17a74.11,74.11,0,1,1,58.07-28,74.28,74.28,0,0,1-58.07,28ZM181,130.71a50.35,50.35,0,1,0,31.28,10.93A50.14,50.14,0,0,0,181,130.71Z"/><path class="lineal-fill" d="M258.69,397.72a30.53,30.53,0,0,0,30.53-30.53V289.11A41.2,41.2,0,0,0,248,247.9l-41.74-.08v-61c0-12.89-10-23.87-22.89-24.32a23.77,23.77,0,0,0-24.64,23.75V292.87l-6.23-13c-3.4-7.09-9.81-11.12-16.42-11.12a16.9,16.9,0,0,0-9,2.64c-9.06,5.68-12.39,18.67-7.41,29,0,0,20.56,48.15,35.25,79.68a30.5,30.5,0,0,0,27.66,17.63Z"/><path class="lineal-stroke" d="M258.69,409.6H182.61a42.56,42.56,0,0,1-38.44-24.49c-14.09-30.26-33.77-76.22-35.31-79.81-7.44-15.82-2.23-35.09,11.93-44a29,29,0,0,1,15.3-4.45A28.63,28.63,0,0,1,146.86,259V186.21a35.69,35.69,0,0,1,36.94-35.63c19.27.69,34.36,16.58,34.36,36.2V236L248,236a53.14,53.14,0,0,1,53.07,53.09v78.08a42.46,42.46,0,0,1-42.41,42.41Zm-122.6-129a5.09,5.09,0,0,0-2.69.83c-3.93,2.46-5.34,8.92-3,13.8l.22.48c.2.48,20.65,48.33,35.09,79.32a18.7,18.7,0,0,0,16.89,10.77h76.08a18.68,18.68,0,0,0,18.65-18.65V289.11A29.36,29.36,0,0,0,248,259.78l-41.76-.08a11.88,11.88,0,0,1-11.86-11.88v-61c0-6.63-5.13-12.21-11.44-12.44a11.86,11.86,0,0,0-12.32,11.87V292.87A11.88,11.88,0,0,1,148,298l-6.24-13c-1.29-2.7-3.47-4.37-5.7-4.37Z"/></svg>