<svg xmlns="http://www.w3.org/2000/svg" viewBox="0 0 512 481.3"><path class="lineal-stroke" d="M385.8,481.3H33.53A33.57,33.57,0,0,1,0,447.76v-228a33.57,33.57,0,0,1,33.53-33.54H385.8a33.57,33.57,0,0,1,33.53,33.54V355.31a15.39,15.39,0,0,1-30.78,0V219.75A2.76,2.76,0,0,0,385.8,217H33.53a2.76,2.76,0,0,0-2.75,2.76v228a2.76,2.76,0,0,0,2.75,2.76H385.8a15.39,15.39,0,0,1,0,30.78Z"/><polygon class="lineal-fill" points="403.95 292 403.95 375.51 496.61 437.43 496.61 230.08 403.95 292"/><path class="lineal-stroke" d="M496.61,452.82a15.4,15.4,0,0,1-8.55-2.59l-92.67-61.92a15.41,15.41,0,0,1-6.84-12.8V292a15.38,15.38,0,0,1,6.84-12.79l92.67-61.93A15.39,15.39,0,0,1,512,230.08V437.43a15.37,15.37,0,0,1-15.39,15.39Zm-77.28-85.53,61.89,41.35V258.87l-61.89,41.36Z"/><circle class="lineal-fill" cx="289.51" cy="108.44" r="93.04"/><path class="lineal-stroke" d="M289.51,216.88A108.44,108.44,0,1,1,398,108.44,108.56,108.56,0,0,1,289.51,216.88Zm0-186.1a77.66,77.66,0,1,0,77.66,77.66A77.75,77.75,0,0,0,289.51,30.78Z"/><circle class="lineal-fill" cx="113.74" cy="124.52" r="76.96"/><path class="lineal-stroke" d="M113.74,216.88a92.36,92.36,0,1,1,92.36-92.36A92.46,92.46,0,0,1,113.74,216.88Zm0-153.93a61.58,61.58,0,1,0,61.58,61.57A61.64,61.64,0,0,0,113.74,63Z"/><path class="lineal-stroke" d="M155.59,420a15.39,15.39,0,0,1-7.71-28.72l94.31-54.44L171,295.76v34.16a15.39,15.39,0,1,1-30.78,0V269.1a15.39,15.39,0,0,1,23.08-13.33l117.39,67.78a15.38,15.38,0,0,1,0,26.65L163.27,418A15.3,15.3,0,0,1,155.59,420Z"/></svg>