<svg xmlns="http://www.w3.org/2000/svg" viewBox="0 0 512 508.34"><path class="lineal-stroke" d="M426.83,31.41H261.73a15.71,15.71,0,0,1,0-31.41h165.1a15.71,15.71,0,0,1,0,31.41Z"/><circle class="lineal-fill" cx="451.97" cy="448.3" r="44.33"/><path class="lineal-stroke" d="M452,508.34a60,60,0,1,1,60-60A60.1,60.1,0,0,1,452,508.34Zm0-88.65a28.63,28.63,0,1,0,28.62,28.62A28.66,28.66,0,0,0,452,419.69Z"/><circle class="lineal-fill" cx="60.03" cy="448.3" r="44.33"/><rect class="lineal-fill" x="207.85" y="409.17" width="96.31" height="81.39"/><path class="lineal-stroke" d="M452,331.86H271.7v-53H426.83a15.7,15.7,0,0,0,15.7-15.71V74.61a15.7,15.7,0,0,0-15.7-15.71H191.22a15.71,15.71,0,1,0,0,31.41H411.13V247.43H100.87v-216h90.35a15.71,15.71,0,0,0,0-31.41h-106a15.7,15.7,0,0,0-15.7,15.7V263.13a15.7,15.7,0,0,0,15.7,15.71H240.3v53H60a15.7,15.7,0,0,0-15.7,15.7v42.82a60,60,0,1,0,31.4,0V363.27H240.3v30.19H207.84a15.7,15.7,0,0,0-15.7,15.7v81.4a15.7,15.7,0,0,0,15.7,15.7h96.31a15.7,15.7,0,0,0,15.71-15.7v-81.4a15.7,15.7,0,0,0-15.71-15.7H271.7V363.27H452a15.71,15.71,0,0,0,0-31.41ZM88.66,448.31A28.63,28.63,0,1,1,60,419.68,28.66,28.66,0,0,1,88.66,448.31Zm199.79,26.54h-64.9v-50h64.9v50Z"/></svg>